ISO-10303-21;
HEADER;
/* Generated by software containing ST-Developer
 * from STEP Tools, Inc. (www.steptools.com) 
 */
/* OPTION: using custom renumber hook */

FILE_DESCRIPTION(
/* description */ ('STEP AP242 Edition 2',
'CAx-IF Rec.Pracs.---Representation and Presentation of Product Manufa
cturing Information (PMI)---4.0---2014-10-13',
'CAx-IF Rec.Pracs.---3D Tessellated Geometry---0.4---2014-09-14','2;1',
'CAx-IF Rec.Pracs.---User Defined Attributes---1.5---2016-08-15'),
/* implementation_level */ '2;1');

FILE_NAME(
/* name */ 'Part Studio 1 - case front',
/* time_stamp */ '2026-09-27T17:21:44Z',
/* author */ (''),
/* organization */ (''),
/* preprocessor_version */ 'ST-DEVELOPER v20',
/* originating_system */ 'ONSHAPE BY PTC INC, 1.221',
/* authorisation */ '  ');

FILE_SCHEMA (('AP242_MANAGED_MODEL_BASED_3D_ENGINEERING_MIM_LF { 1 0 10303 442 3 1 4 }'));
ENDSEC;

DATA;
#10=SHAPE_REPRESENTATION_RELATIONSHIP('','',#805,#11);
#11=ADVANCED_BREP_SHAPE_REPRESENTATION('',(#803),#1399);
#12=CONICAL_SURFACE('',#846,0.00492818016249859,0.349065850398867);
#13=CONICAL_SURFACE('',#853,0.00492818016249859,0.349065850398856);
#14=CONICAL_SURFACE('',#860,0.00492818016249857,0.349065850398867);
#15=CONICAL_SURFACE('',#867,0.00492818016249857,0.349065850398867);
#16=TOROIDAL_SURFACE('',#841,0.00477837866888671,0.000600000000000014);
#17=TOROIDAL_SURFACE('',#848,0.00477837866888672,0.000600000000000014);
#18=TOROIDAL_SURFACE('',#855,0.0047783786688867,0.000600000000000014);
#19=TOROIDAL_SURFACE('',#862,0.0047783786688867,0.000600000000000014);
#20=TOROIDAL_SURFACE('',#869,0.00477837866888668,0.000600000000000015);
#21=TOROIDAL_SURFACE('',#876,0.00477837866888668,0.000600000000000015);
#22=TOROIDAL_SURFACE('',#882,0.0047783786688867,0.000600000000000015);
#23=TOROIDAL_SURFACE('',#888,0.0047783786688867,0.000600000000000015);
#24=CIRCLE('',#809,0.006500001172987);
#25=CIRCLE('',#810,0.006500001172987);
#26=CIRCLE('',#813,0.00650000117298699);
#27=CIRCLE('',#814,0.00650000117298699);
#28=CIRCLE('',#817,0.00650000117298699);
#29=CIRCLE('',#818,0.00650000117298699);
#30=CIRCLE('',#821,0.006500001172987);
#31=CIRCLE('',#822,0.006500001172987);
#32=CIRCLE('',#825,0.00500000117298699);
#33=CIRCLE('',#826,0.005000001172987);
#34=CIRCLE('',#827,0.005000001172987);
#35=CIRCLE('',#828,0.00500000117298699);
#36=CIRCLE('',#831,0.00500000117298699);
#37=CIRCLE('',#834,0.005000001172987);
#38=CIRCLE('',#837,0.005000001172987);
#39=CIRCLE('',#840,0.00500000117298699);
#40=CIRCLE('',#842,0.000600000000000014);
#41=CIRCLE('',#843,0.00537834948005993);
#42=CIRCLE('',#844,0.000600000000000014);
#43=CIRCLE('',#845,0.005000001172987);
#44=CIRCLE('',#847,0.00534219424135826);
#45=CIRCLE('',#849,0.000600000000000014);
#46=CIRCLE('',#850,0.00537834948005995);
#47=CIRCLE('',#851,0.000600000000000014);
#48=CIRCLE('',#852,0.005000001172987);
#49=CIRCLE('',#854,0.00534219424135824);
#50=CIRCLE('',#856,0.000600000000000014);
#51=CIRCLE('',#857,0.00537834948005992);
#52=CIRCLE('',#858,0.000600000000000014);
#53=CIRCLE('',#859,0.00500000117298699);
#54=CIRCLE('',#861,0.00534219424135824);
#55=CIRCLE('',#863,0.000600000000000014);
#56=CIRCLE('',#864,0.00537834948005992);
#57=CIRCLE('',#865,0.000600000000000014);
#58=CIRCLE('',#866,0.00500000117298699);
#59=CIRCLE('',#868,0.00534219424135824);
#60=CIRCLE('',#870,0.000600000000000015);
#61=CIRCLE('',#871,0.000600000000000015);
#62=CIRCLE('',#874,0.000600000000000015);
#63=CIRCLE('',#877,0.000600000000000015);
#64=CIRCLE('',#880,0.000600000000000015);
#65=CIRCLE('',#883,0.000600000000000015);
#66=CIRCLE('',#886,0.000600000000000015);
#67=CIRCLE('',#889,0.000600000000000015);
#68=CIRCLE('',#894,0.00500000117298699);
#69=CIRCLE('',#895,0.005000001172987);
#70=CIRCLE('',#896,0.005000001172987);
#71=CIRCLE('',#897,0.00500000117298699);
#72=CYLINDRICAL_SURFACE('',#808,0.006500001172987);
#73=CYLINDRICAL_SURFACE('',#812,0.00650000117298699);
#74=CYLINDRICAL_SURFACE('',#816,0.00650000117298699);
#75=CYLINDRICAL_SURFACE('',#820,0.006500001172987);
#76=CYLINDRICAL_SURFACE('',#830,0.00500000117298699);
#77=CYLINDRICAL_SURFACE('',#833,0.005000001172987);
#78=CYLINDRICAL_SURFACE('',#836,0.005000001172987);
#79=CYLINDRICAL_SURFACE('',#839,0.00500000117298699);
#80=CYLINDRICAL_SURFACE('',#872,0.000600000000000014);
#81=CYLINDRICAL_SURFACE('',#873,0.000600000000000015);
#82=CYLINDRICAL_SURFACE('',#878,0.000600000000000014);
#83=CYLINDRICAL_SURFACE('',#879,0.000600000000000015);
#84=CYLINDRICAL_SURFACE('',#884,0.000600000000000014);
#85=CYLINDRICAL_SURFACE('',#885,0.000600000000000015);
#86=CYLINDRICAL_SURFACE('',#890,0.000600000000000014);
#87=CYLINDRICAL_SURFACE('',#891,0.000600000000000015);
#88=CYLINDRICAL_SURFACE('',#899,0.00500000117298699);
#89=CYLINDRICAL_SURFACE('',#901,0.005000001172987);
#90=CYLINDRICAL_SURFACE('',#903,0.005000001172987);
#91=CYLINDRICAL_SURFACE('',#905,0.00500000117298699);
#92=ORIENTED_EDGE('',*,*,#316,.T.);
#93=ORIENTED_EDGE('',*,*,#317,.T.);
#94=ORIENTED_EDGE('',*,*,#318,.F.);
#95=ORIENTED_EDGE('',*,*,#319,.T.);
#96=ORIENTED_EDGE('',*,*,#318,.T.);
#97=ORIENTED_EDGE('',*,*,#320,.F.);
#98=ORIENTED_EDGE('',*,*,#321,.F.);
#99=ORIENTED_EDGE('',*,*,#322,.F.);
#100=ORIENTED_EDGE('',*,*,#321,.T.);
#101=ORIENTED_EDGE('',*,*,#323,.T.);
#102=ORIENTED_EDGE('',*,*,#324,.F.);
#103=ORIENTED_EDGE('',*,*,#325,.T.);
#104=ORIENTED_EDGE('',*,*,#324,.T.);
#105=ORIENTED_EDGE('',*,*,#326,.F.);
#106=ORIENTED_EDGE('',*,*,#327,.F.);
#107=ORIENTED_EDGE('',*,*,#328,.F.);
#108=ORIENTED_EDGE('',*,*,#327,.T.);
#109=ORIENTED_EDGE('',*,*,#329,.T.);
#110=ORIENTED_EDGE('',*,*,#330,.F.);
#111=ORIENTED_EDGE('',*,*,#331,.T.);
#112=ORIENTED_EDGE('',*,*,#330,.T.);
#113=ORIENTED_EDGE('',*,*,#332,.F.);
#114=ORIENTED_EDGE('',*,*,#333,.F.);
#115=ORIENTED_EDGE('',*,*,#334,.F.);
#116=ORIENTED_EDGE('',*,*,#333,.T.);
#117=ORIENTED_EDGE('',*,*,#335,.T.);
#118=ORIENTED_EDGE('',*,*,#336,.F.);
#119=ORIENTED_EDGE('',*,*,#337,.T.);
#120=ORIENTED_EDGE('',*,*,#336,.T.);
#121=ORIENTED_EDGE('',*,*,#338,.F.);
#122=ORIENTED_EDGE('',*,*,#316,.F.);
#123=ORIENTED_EDGE('',*,*,#339,.F.);
#124=ORIENTED_EDGE('',*,*,#319,.F.);
#125=ORIENTED_EDGE('',*,*,#322,.T.);
#126=ORIENTED_EDGE('',*,*,#325,.F.);
#127=ORIENTED_EDGE('',*,*,#328,.T.);
#128=ORIENTED_EDGE('',*,*,#331,.F.);
#129=ORIENTED_EDGE('',*,*,#334,.T.);
#130=ORIENTED_EDGE('',*,*,#337,.F.);
#131=ORIENTED_EDGE('',*,*,#339,.T.);
#132=ORIENTED_EDGE('',*,*,#340,.T.);
#133=ORIENTED_EDGE('',*,*,#341,.F.);
#134=ORIENTED_EDGE('',*,*,#342,.T.);
#135=ORIENTED_EDGE('',*,*,#343,.F.);
#136=ORIENTED_EDGE('',*,*,#344,.T.);
#137=ORIENTED_EDGE('',*,*,#345,.F.);
#138=ORIENTED_EDGE('',*,*,#346,.T.);
#139=ORIENTED_EDGE('',*,*,#347,.F.);
#140=ORIENTED_EDGE('',*,*,#338,.T.);
#141=ORIENTED_EDGE('',*,*,#335,.F.);
#142=ORIENTED_EDGE('',*,*,#332,.T.);
#143=ORIENTED_EDGE('',*,*,#329,.F.);
#144=ORIENTED_EDGE('',*,*,#326,.T.);
#145=ORIENTED_EDGE('',*,*,#323,.F.);
#146=ORIENTED_EDGE('',*,*,#320,.T.);
#147=ORIENTED_EDGE('',*,*,#317,.F.);
#148=ORIENTED_EDGE('',*,*,#348,.F.);
#149=ORIENTED_EDGE('',*,*,#349,.F.);
#150=ORIENTED_EDGE('',*,*,#340,.F.);
#151=ORIENTED_EDGE('',*,*,#350,.T.);
#152=ORIENTED_EDGE('',*,*,#349,.T.);
#153=ORIENTED_EDGE('',*,*,#351,.T.);
#154=ORIENTED_EDGE('',*,*,#352,.F.);
#155=ORIENTED_EDGE('',*,*,#341,.T.);
#156=ORIENTED_EDGE('',*,*,#353,.F.);
#157=ORIENTED_EDGE('',*,*,#354,.F.);
#158=ORIENTED_EDGE('',*,*,#342,.F.);
#159=ORIENTED_EDGE('',*,*,#352,.T.);
#160=ORIENTED_EDGE('',*,*,#354,.T.);
#161=ORIENTED_EDGE('',*,*,#355,.T.);
#162=ORIENTED_EDGE('',*,*,#356,.F.);
#163=ORIENTED_EDGE('',*,*,#343,.T.);
#164=ORIENTED_EDGE('',*,*,#357,.F.);
#165=ORIENTED_EDGE('',*,*,#358,.F.);
#166=ORIENTED_EDGE('',*,*,#344,.F.);
#167=ORIENTED_EDGE('',*,*,#356,.T.);
#168=ORIENTED_EDGE('',*,*,#358,.T.);
#169=ORIENTED_EDGE('',*,*,#359,.T.);
#170=ORIENTED_EDGE('',*,*,#360,.F.);
#171=ORIENTED_EDGE('',*,*,#345,.T.);
#172=ORIENTED_EDGE('',*,*,#361,.F.);
#173=ORIENTED_EDGE('',*,*,#362,.F.);
#174=ORIENTED_EDGE('',*,*,#346,.F.);
#175=ORIENTED_EDGE('',*,*,#360,.T.);
#176=ORIENTED_EDGE('',*,*,#362,.T.);
#177=ORIENTED_EDGE('',*,*,#363,.T.);
#178=ORIENTED_EDGE('',*,*,#350,.F.);
#179=ORIENTED_EDGE('',*,*,#347,.T.);
#180=ORIENTED_EDGE('',*,*,#364,.F.);
#181=ORIENTED_EDGE('',*,*,#365,.T.);
#182=ORIENTED_EDGE('',*,*,#366,.T.);
#183=ORIENTED_EDGE('',*,*,#367,.F.);
#184=ORIENTED_EDGE('',*,*,#368,.T.);
#185=ORIENTED_EDGE('',*,*,#369,.F.);
#186=ORIENTED_EDGE('',*,*,#370,.F.);
#187=ORIENTED_EDGE('',*,*,#359,.F.);
#188=ORIENTED_EDGE('',*,*,#371,.F.);
#189=ORIENTED_EDGE('',*,*,#372,.T.);
#190=ORIENTED_EDGE('',*,*,#373,.T.);
#191=ORIENTED_EDGE('',*,*,#374,.F.);
#192=ORIENTED_EDGE('',*,*,#375,.T.);
#193=ORIENTED_EDGE('',*,*,#376,.F.);
#194=ORIENTED_EDGE('',*,*,#377,.F.);
#195=ORIENTED_EDGE('',*,*,#355,.F.);
#196=ORIENTED_EDGE('',*,*,#378,.F.);
#197=ORIENTED_EDGE('',*,*,#379,.T.);
#198=ORIENTED_EDGE('',*,*,#380,.T.);
#199=ORIENTED_EDGE('',*,*,#381,.F.);
#200=ORIENTED_EDGE('',*,*,#382,.T.);
#201=ORIENTED_EDGE('',*,*,#383,.F.);
#202=ORIENTED_EDGE('',*,*,#384,.F.);
#203=ORIENTED_EDGE('',*,*,#363,.F.);
#204=ORIENTED_EDGE('',*,*,#385,.F.);
#205=ORIENTED_EDGE('',*,*,#386,.T.);
#206=ORIENTED_EDGE('',*,*,#387,.T.);
#207=ORIENTED_EDGE('',*,*,#388,.F.);
#208=ORIENTED_EDGE('',*,*,#389,.T.);
#209=ORIENTED_EDGE('',*,*,#390,.F.);
#210=ORIENTED_EDGE('',*,*,#391,.F.);
#211=ORIENTED_EDGE('',*,*,#351,.F.);
#212=ORIENTED_EDGE('',*,*,#379,.F.);
#213=ORIENTED_EDGE('',*,*,#392,.F.);
#214=ORIENTED_EDGE('',*,*,#383,.T.);
#215=ORIENTED_EDGE('',*,*,#393,.T.);
#216=ORIENTED_EDGE('',*,*,#394,.T.);
#217=ORIENTED_EDGE('',*,*,#387,.F.);
#218=ORIENTED_EDGE('',*,*,#395,.T.);
#219=ORIENTED_EDGE('',*,*,#378,.T.);
#220=ORIENTED_EDGE('',*,*,#395,.F.);
#221=ORIENTED_EDGE('',*,*,#396,.F.);
#222=ORIENTED_EDGE('',*,*,#397,.T.);
#223=ORIENTED_EDGE('',*,*,#392,.T.);
#224=ORIENTED_EDGE('',*,*,#348,.T.);
#225=ORIENTED_EDGE('',*,*,#384,.T.);
#226=ORIENTED_EDGE('',*,*,#397,.F.);
#227=ORIENTED_EDGE('',*,*,#389,.F.);
#228=ORIENTED_EDGE('',*,*,#386,.F.);
#229=ORIENTED_EDGE('',*,*,#398,.F.);
#230=ORIENTED_EDGE('',*,*,#390,.T.);
#231=ORIENTED_EDGE('',*,*,#396,.T.);
#232=ORIENTED_EDGE('',*,*,#399,.T.);
#233=ORIENTED_EDGE('',*,*,#373,.F.);
#234=ORIENTED_EDGE('',*,*,#400,.T.);
#235=ORIENTED_EDGE('',*,*,#385,.T.);
#236=ORIENTED_EDGE('',*,*,#400,.F.);
#237=ORIENTED_EDGE('',*,*,#401,.F.);
#238=ORIENTED_EDGE('',*,*,#402,.T.);
#239=ORIENTED_EDGE('',*,*,#398,.T.);
#240=ORIENTED_EDGE('',*,*,#353,.T.);
#241=ORIENTED_EDGE('',*,*,#391,.T.);
#242=ORIENTED_EDGE('',*,*,#402,.F.);
#243=ORIENTED_EDGE('',*,*,#375,.F.);
#244=ORIENTED_EDGE('',*,*,#372,.F.);
#245=ORIENTED_EDGE('',*,*,#403,.F.);
#246=ORIENTED_EDGE('',*,*,#376,.T.);
#247=ORIENTED_EDGE('',*,*,#401,.T.);
#248=ORIENTED_EDGE('',*,*,#404,.T.);
#249=ORIENTED_EDGE('',*,*,#366,.F.);
#250=ORIENTED_EDGE('',*,*,#405,.T.);
#251=ORIENTED_EDGE('',*,*,#371,.T.);
#252=ORIENTED_EDGE('',*,*,#405,.F.);
#253=ORIENTED_EDGE('',*,*,#406,.F.);
#254=ORIENTED_EDGE('',*,*,#407,.T.);
#255=ORIENTED_EDGE('',*,*,#403,.T.);
#256=ORIENTED_EDGE('',*,*,#357,.T.);
#257=ORIENTED_EDGE('',*,*,#377,.T.);
#258=ORIENTED_EDGE('',*,*,#407,.F.);
#259=ORIENTED_EDGE('',*,*,#368,.F.);
#260=ORIENTED_EDGE('',*,*,#365,.F.);
#261=ORIENTED_EDGE('',*,*,#408,.F.);
#262=ORIENTED_EDGE('',*,*,#369,.T.);
#263=ORIENTED_EDGE('',*,*,#406,.T.);
#264=ORIENTED_EDGE('',*,*,#409,.T.);
#265=ORIENTED_EDGE('',*,*,#380,.F.);
#266=ORIENTED_EDGE('',*,*,#410,.T.);
#267=ORIENTED_EDGE('',*,*,#364,.T.);
#268=ORIENTED_EDGE('',*,*,#410,.F.);
#269=ORIENTED_EDGE('',*,*,#393,.F.);
#270=ORIENTED_EDGE('',*,*,#411,.T.);
#271=ORIENTED_EDGE('',*,*,#408,.T.);
#272=ORIENTED_EDGE('',*,*,#361,.T.);
#273=ORIENTED_EDGE('',*,*,#370,.T.);
#274=ORIENTED_EDGE('',*,*,#411,.F.);
#275=ORIENTED_EDGE('',*,*,#382,.F.);
#276=ORIENTED_EDGE('',*,*,#412,.F.);
#277=ORIENTED_EDGE('',*,*,#413,.T.);
#278=ORIENTED_EDGE('',*,*,#414,.F.);
#279=ORIENTED_EDGE('',*,*,#415,.T.);
#280=ORIENTED_EDGE('',*,*,#416,.F.);
#281=ORIENTED_EDGE('',*,*,#417,.T.);
#282=ORIENTED_EDGE('',*,*,#418,.F.);
#283=ORIENTED_EDGE('',*,*,#419,.T.);
#284=ORIENTED_EDGE('',*,*,#394,.F.);
#285=ORIENTED_EDGE('',*,*,#420,.T.);
#286=ORIENTED_EDGE('',*,*,#419,.F.);
#287=ORIENTED_EDGE('',*,*,#421,.F.);
#288=ORIENTED_EDGE('',*,*,#422,.F.);
#289=ORIENTED_EDGE('',*,*,#388,.T.);
#290=ORIENTED_EDGE('',*,*,#421,.T.);
#291=ORIENTED_EDGE('',*,*,#418,.T.);
#292=ORIENTED_EDGE('',*,*,#399,.F.);
#293=ORIENTED_EDGE('',*,*,#422,.T.);
#294=ORIENTED_EDGE('',*,*,#417,.F.);
#295=ORIENTED_EDGE('',*,*,#423,.F.);
#296=ORIENTED_EDGE('',*,*,#424,.F.);
#297=ORIENTED_EDGE('',*,*,#374,.T.);
#298=ORIENTED_EDGE('',*,*,#423,.T.);
#299=ORIENTED_EDGE('',*,*,#416,.T.);
#300=ORIENTED_EDGE('',*,*,#404,.F.);
#301=ORIENTED_EDGE('',*,*,#424,.T.);
#302=ORIENTED_EDGE('',*,*,#415,.F.);
#303=ORIENTED_EDGE('',*,*,#425,.F.);
#304=ORIENTED_EDGE('',*,*,#426,.F.);
#305=ORIENTED_EDGE('',*,*,#367,.T.);
#306=ORIENTED_EDGE('',*,*,#425,.T.);
#307=ORIENTED_EDGE('',*,*,#414,.T.);
#308=ORIENTED_EDGE('',*,*,#409,.F.);
#309=ORIENTED_EDGE('',*,*,#426,.T.);
#310=ORIENTED_EDGE('',*,*,#413,.F.);
#311=ORIENTED_EDGE('',*,*,#427,.F.);
#312=ORIENTED_EDGE('',*,*,#420,.F.);
#313=ORIENTED_EDGE('',*,*,#381,.T.);
#314=ORIENTED_EDGE('',*,*,#427,.T.);
#315=ORIENTED_EDGE('',*,*,#412,.T.);
#316=EDGE_CURVE('',#428,#429,#492,.T.);
#317=EDGE_CURVE('',#429,#430,#493,.T.);
#318=EDGE_CURVE('',#431,#430,#494,.T.);
#319=EDGE_CURVE('',#431,#428,#495,.T.);
#320=EDGE_CURVE('',#432,#430,#24,.F.);
#321=EDGE_CURVE('',#433,#432,#496,.T.);
#322=EDGE_CURVE('',#431,#433,#25,.T.);
#323=EDGE_CURVE('',#432,#434,#497,.T.);
#324=EDGE_CURVE('',#435,#434,#498,.T.);
#325=EDGE_CURVE('',#435,#433,#499,.T.);
#326=EDGE_CURVE('',#436,#434,#26,.F.);
#327=EDGE_CURVE('',#437,#436,#500,.T.);
#328=EDGE_CURVE('',#435,#437,#27,.T.);
#329=EDGE_CURVE('',#436,#438,#501,.T.);
#330=EDGE_CURVE('',#439,#438,#502,.T.);
#331=EDGE_CURVE('',#439,#437,#503,.T.);
#332=EDGE_CURVE('',#440,#438,#28,.F.);
#333=EDGE_CURVE('',#441,#440,#504,.T.);
#334=EDGE_CURVE('',#439,#441,#29,.T.);
#335=EDGE_CURVE('',#440,#442,#505,.T.);
#336=EDGE_CURVE('',#443,#442,#506,.T.);
#337=EDGE_CURVE('',#443,#441,#507,.T.);
#338=EDGE_CURVE('',#429,#442,#30,.F.);
#339=EDGE_CURVE('',#443,#428,#31,.T.);
#340=EDGE_CURVE('',#444,#445,#508,.T.);
#341=EDGE_CURVE('',#446,#445,#32,.F.);
#342=EDGE_CURVE('',#446,#447,#509,.T.);
#343=EDGE_CURVE('',#448,#447,#33,.F.);
#344=EDGE_CURVE('',#448,#449,#510,.T.);
#345=EDGE_CURVE('',#450,#449,#34,.F.);
#346=EDGE_CURVE('',#450,#451,#511,.T.);
#347=EDGE_CURVE('',#444,#451,#35,.F.);
#348=EDGE_CURVE('',#452,#453,#512,.T.);
#349=EDGE_CURVE('',#445,#452,#513,.T.);
#350=EDGE_CURVE('',#444,#453,#514,.T.);
#351=EDGE_CURVE('',#452,#454,#36,.T.);
#352=EDGE_CURVE('',#446,#454,#515,.T.);
#353=EDGE_CURVE('',#455,#454,#516,.T.);
#354=EDGE_CURVE('',#447,#455,#517,.T.);
#355=EDGE_CURVE('',#455,#456,#37,.T.);
#356=EDGE_CURVE('',#448,#456,#518,.T.);
#357=EDGE_CURVE('',#457,#456,#519,.T.);
#358=EDGE_CURVE('',#449,#457,#520,.T.);
#359=EDGE_CURVE('',#457,#458,#38,.T.);
#360=EDGE_CURVE('',#450,#458,#521,.T.);
#361=EDGE_CURVE('',#459,#458,#522,.T.);
#362=EDGE_CURVE('',#451,#459,#523,.T.);
#363=EDGE_CURVE('',#459,#453,#39,.T.);
#364=EDGE_CURVE('',#460,#461,#40,.F.);
#365=EDGE_CURVE('',#460,#462,#41,.T.);
#366=EDGE_CURVE('',#462,#463,#42,.T.);
#367=EDGE_CURVE('',#461,#463,#43,.T.);
#368=EDGE_CURVE('',#457,#464,#524,.F.);
#369=EDGE_CURVE('',#465,#464,#44,.F.);
#370=EDGE_CURVE('',#458,#465,#525,.T.);
#371=EDGE_CURVE('',#466,#467,#45,.F.);
#372=EDGE_CURVE('',#466,#468,#46,.T.);
#373=EDGE_CURVE('',#468,#469,#47,.T.);
#374=EDGE_CURVE('',#467,#469,#48,.T.);
#375=EDGE_CURVE('',#455,#470,#526,.F.);
#376=EDGE_CURVE('',#471,#470,#49,.F.);
#377=EDGE_CURVE('',#456,#471,#527,.T.);
#378=EDGE_CURVE('',#472,#473,#50,.F.);
#379=EDGE_CURVE('',#472,#474,#51,.T.);
#380=EDGE_CURVE('',#474,#475,#52,.T.);
#381=EDGE_CURVE('',#473,#475,#53,.T.);
#382=EDGE_CURVE('',#459,#476,#528,.T.);
#383=EDGE_CURVE('',#477,#476,#54,.F.);
#384=EDGE_CURVE('',#453,#477,#529,.T.);
#385=EDGE_CURVE('',#478,#479,#55,.F.);
#386=EDGE_CURVE('',#478,#480,#56,.T.);
#387=EDGE_CURVE('',#480,#481,#57,.T.);
#388=EDGE_CURVE('',#479,#481,#58,.T.);
#389=EDGE_CURVE('',#452,#482,#530,.T.);
#390=EDGE_CURVE('',#483,#482,#59,.F.);
#391=EDGE_CURVE('',#454,#483,#531,.T.);
#392=EDGE_CURVE('',#477,#472,#60,.F.);
#393=EDGE_CURVE('',#476,#474,#61,.T.);
#394=EDGE_CURVE('',#473,#481,#532,.F.);
#395=EDGE_CURVE('',#480,#472,#533,.T.);
#396=EDGE_CURVE('',#482,#480,#62,.T.);
#397=EDGE_CURVE('',#482,#477,#534,.T.);
#398=EDGE_CURVE('',#483,#478,#63,.F.);
#399=EDGE_CURVE('',#479,#469,#535,.F.);
#400=EDGE_CURVE('',#468,#478,#536,.T.);
#401=EDGE_CURVE('',#470,#468,#64,.T.);
#402=EDGE_CURVE('',#470,#483,#537,.F.);
#403=EDGE_CURVE('',#471,#466,#65,.F.);
#404=EDGE_CURVE('',#467,#463,#538,.F.);
#405=EDGE_CURVE('',#462,#466,#539,.T.);
#406=EDGE_CURVE('',#464,#462,#66,.T.);
#407=EDGE_CURVE('',#464,#471,#540,.F.);
#408=EDGE_CURVE('',#465,#460,#67,.F.);
#409=EDGE_CURVE('',#461,#475,#541,.F.);
#410=EDGE_CURVE('',#474,#460,#542,.T.);
#411=EDGE_CURVE('',#476,#465,#543,.T.);
#412=EDGE_CURVE('',#484,#485,#68,.T.);
#413=EDGE_CURVE('',#484,#486,#544,.T.);
#414=EDGE_CURVE('',#487,#486,#69,.T.);
#415=EDGE_CURVE('',#487,#488,#545,.T.);
#416=EDGE_CURVE('',#489,#488,#70,.T.);
#417=EDGE_CURVE('',#489,#490,#546,.T.);
#418=EDGE_CURVE('',#491,#490,#71,.T.);
#419=EDGE_CURVE('',#491,#485,#547,.T.);
#420=EDGE_CURVE('',#473,#485,#548,.T.);
#421=EDGE_CURVE('',#481,#491,#549,.T.);
#422=EDGE_CURVE('',#479,#490,#550,.T.);
#423=EDGE_CURVE('',#469,#489,#551,.T.);
#424=EDGE_CURVE('',#467,#488,#552,.T.);
#425=EDGE_CURVE('',#463,#487,#553,.T.);
#426=EDGE_CURVE('',#461,#486,#554,.T.);
#427=EDGE_CURVE('',#475,#484,#555,.T.);
#428=VERTEX_POINT('',#1173);
#429=VERTEX_POINT('',#1174);
#430=VERTEX_POINT('',#1176);
#431=VERTEX_POINT('',#1178);
#432=VERTEX_POINT('',#1182);
#433=VERTEX_POINT('',#1184);
#434=VERTEX_POINT('',#1188);
#435=VERTEX_POINT('',#1190);
#436=VERTEX_POINT('',#1194);
#437=VERTEX_POINT('',#1196);
#438=VERTEX_POINT('',#1200);
#439=VERTEX_POINT('',#1202);
#440=VERTEX_POINT('',#1206);
#441=VERTEX_POINT('',#1208);
#442=VERTEX_POINT('',#1212);
#443=VERTEX_POINT('',#1214);
#444=VERTEX_POINT('',#1222);
#445=VERTEX_POINT('',#1223);
#446=VERTEX_POINT('',#1225);
#447=VERTEX_POINT('',#1227);
#448=VERTEX_POINT('',#1229);
#449=VERTEX_POINT('',#1231);
#450=VERTEX_POINT('',#1233);
#451=VERTEX_POINT('',#1235);
#452=VERTEX_POINT('',#1239);
#453=VERTEX_POINT('',#1240);
#454=VERTEX_POINT('',#1245);
#455=VERTEX_POINT('',#1249);
#456=VERTEX_POINT('',#1253);
#457=VERTEX_POINT('',#1257);
#458=VERTEX_POINT('',#1261);
#459=VERTEX_POINT('',#1265);
#460=VERTEX_POINT('',#1271);
#461=VERTEX_POINT('',#1272);
#462=VERTEX_POINT('',#1274);
#463=VERTEX_POINT('',#1276);
#464=VERTEX_POINT('',#1280);
#465=VERTEX_POINT('',#1282);
#466=VERTEX_POINT('',#1286);
#467=VERTEX_POINT('',#1287);
#468=VERTEX_POINT('',#1289);
#469=VERTEX_POINT('',#1291);
#470=VERTEX_POINT('',#1295);
#471=VERTEX_POINT('',#1297);
#472=VERTEX_POINT('',#1301);
#473=VERTEX_POINT('',#1302);
#474=VERTEX_POINT('',#1304);
#475=VERTEX_POINT('',#1306);
#476=VERTEX_POINT('',#1310);
#477=VERTEX_POINT('',#1312);
#478=VERTEX_POINT('',#1316);
#479=VERTEX_POINT('',#1317);
#480=VERTEX_POINT('',#1319);
#481=VERTEX_POINT('',#1321);
#482=VERTEX_POINT('',#1325);
#483=VERTEX_POINT('',#1327);
#484=VERTEX_POINT('',#1367);
#485=VERTEX_POINT('',#1368);
#486=VERTEX_POINT('',#1370);
#487=VERTEX_POINT('',#1372);
#488=VERTEX_POINT('',#1374);
#489=VERTEX_POINT('',#1376);
#490=VERTEX_POINT('',#1378);
#491=VERTEX_POINT('',#1380);
#492=LINE('',#1172,#556);
#493=LINE('',#1175,#557);
#494=LINE('',#1177,#558);
#495=LINE('',#1179,#559);
#496=LINE('',#1183,#560);
#497=LINE('',#1187,#561);
#498=LINE('',#1189,#562);
#499=LINE('',#1191,#563);
#500=LINE('',#1195,#564);
#501=LINE('',#1199,#565);
#502=LINE('',#1201,#566);
#503=LINE('',#1203,#567);
#504=LINE('',#1207,#568);
#505=LINE('',#1211,#569);
#506=LINE('',#1213,#570);
#507=LINE('',#1215,#571);
#508=LINE('',#1221,#572);
#509=LINE('',#1226,#573);
#510=LINE('',#1230,#574);
#511=LINE('',#1234,#575);
#512=LINE('',#1238,#576);
#513=LINE('',#1241,#577);
#514=LINE('',#1242,#578);
#515=LINE('',#1246,#579);
#516=LINE('',#1248,#580);
#517=LINE('',#1250,#581);
#518=LINE('',#1254,#582);
#519=LINE('',#1256,#583);
#520=LINE('',#1258,#584);
#521=LINE('',#1262,#585);
#522=LINE('',#1264,#586);
#523=LINE('',#1266,#587);
#524=LINE('',#1279,#588);
#525=LINE('',#1283,#589);
#526=LINE('',#1294,#590);
#527=LINE('',#1298,#591);
#528=LINE('',#1309,#592);
#529=LINE('',#1313,#593);
#530=LINE('',#1324,#594);
#531=LINE('',#1328,#595);
#532=LINE('',#1333,#596);
#533=LINE('',#1334,#597);
#534=LINE('',#1337,#598);
#535=LINE('',#1342,#599);
#536=LINE('',#1343,#600);
#537=LINE('',#1346,#601);
#538=LINE('',#1351,#602);
#539=LINE('',#1352,#603);
#540=LINE('',#1355,#604);
#541=LINE('',#1360,#605);
#542=LINE('',#1361,#606);
#543=LINE('',#1363,#607);
#544=LINE('',#1369,#608);
#545=LINE('',#1373,#609);
#546=LINE('',#1377,#610);
#547=LINE('',#1381,#611);
#548=LINE('',#1383,#612);
#549=LINE('',#1384,#613);
#550=LINE('',#1386,#614);
#551=LINE('',#1388,#615);
#552=LINE('',#1390,#616);
#553=LINE('',#1392,#617);
#554=LINE('',#1394,#618);
#555=LINE('',#1396,#619);
#556=VECTOR('',#910,1.);
#557=VECTOR('',#911,1.);
#558=VECTOR('',#912,1.);
#559=VECTOR('',#913,1.);
#560=VECTOR('',#918,1.);
#561=VECTOR('',#923,1.);
#562=VECTOR('',#924,1.);
#563=VECTOR('',#925,1.);
#564=VECTOR('',#930,1.);
#565=VECTOR('',#935,1.);
#566=VECTOR('',#936,1.);
#567=VECTOR('',#937,1.);
#568=VECTOR('',#942,1.);
#569=VECTOR('',#947,1.);
#570=VECTOR('',#948,1.);
#571=VECTOR('',#949,1.);
#572=VECTOR('',#960,1.);
#573=VECTOR('',#963,1.);
#574=VECTOR('',#966,1.);
#575=VECTOR('',#969,1.);
#576=VECTOR('',#974,1.);
#577=VECTOR('',#975,1.);
#578=VECTOR('',#976,1.);
#579=VECTOR('',#981,1.);
#580=VECTOR('',#984,1.);
#581=VECTOR('',#985,1.);
#582=VECTOR('',#990,1.);
#583=VECTOR('',#993,1.);
#584=VECTOR('',#994,1.);
#585=VECTOR('',#999,1.);
#586=VECTOR('',#1002,1.);
#587=VECTOR('',#1003,1.);
#588=VECTOR('',#1020,1.);
#589=VECTOR('',#1023,1.);
#590=VECTOR('',#1036,1.);
#591=VECTOR('',#1039,1.);
#592=VECTOR('',#1052,1.);
#593=VECTOR('',#1055,1.);
#594=VECTOR('',#1068,1.);
#595=VECTOR('',#1071,1.);
#596=VECTOR('',#1080,1.);
#597=VECTOR('',#1081,1.);
#598=VECTOR('',#1086,1.);
#599=VECTOR('',#1095,1.);
#600=VECTOR('',#1096,1.);
#601=VECTOR('',#1101,1.);
#602=VECTOR('',#1110,1.);
#603=VECTOR('',#1111,1.);
#604=VECTOR('',#1116,1.);
#605=VECTOR('',#1125,1.);
#606=VECTOR('',#1126,1.);
#607=VECTOR('',#1129,1.);
#608=VECTOR('',#1136,1.);
#609=VECTOR('',#1139,1.);
#610=VECTOR('',#1142,1.);
#611=VECTOR('',#1145,1.);
#612=VECTOR('',#1148,1.);
#613=VECTOR('',#1149,1.);
#614=VECTOR('',#1152,1.);
#615=VECTOR('',#1155,1.);
#616=VECTOR('',#1158,1.);
#617=VECTOR('',#1161,1.);
#618=VECTOR('',#1164,1.);
#619=VECTOR('',#1167,1.);
#620=EDGE_LOOP('',(#92,#93,#94,#95));
#621=EDGE_LOOP('',(#96,#97,#98,#99));
#622=EDGE_LOOP('',(#100,#101,#102,#103));
#623=EDGE_LOOP('',(#104,#105,#106,#107));
#624=EDGE_LOOP('',(#108,#109,#110,#111));
#625=EDGE_LOOP('',(#112,#113,#114,#115));
#626=EDGE_LOOP('',(#116,#117,#118,#119));
#627=EDGE_LOOP('',(#120,#121,#122,#123));
#628=EDGE_LOOP('',(#124,#125,#126,#127,#128,#129,#130,#131));
#629=EDGE_LOOP('',(#132,#133,#134,#135,#136,#137,#138,#139));
#630=EDGE_LOOP('',(#140,#141,#142,#143,#144,#145,#146,#147));
#631=EDGE_LOOP('',(#148,#149,#150,#151));
#632=EDGE_LOOP('',(#152,#153,#154,#155));
#633=EDGE_LOOP('',(#156,#157,#158,#159));
#634=EDGE_LOOP('',(#160,#161,#162,#163));
#635=EDGE_LOOP('',(#164,#165,#166,#167));
#636=EDGE_LOOP('',(#168,#169,#170,#171));
#637=EDGE_LOOP('',(#172,#173,#174,#175));
#638=EDGE_LOOP('',(#176,#177,#178,#179));
#639=EDGE_LOOP('',(#180,#181,#182,#183));
#640=EDGE_LOOP('',(#184,#185,#186,#187));
#641=EDGE_LOOP('',(#188,#189,#190,#191));
#642=EDGE_LOOP('',(#192,#193,#194,#195));
#643=EDGE_LOOP('',(#196,#197,#198,#199));
#644=EDGE_LOOP('',(#200,#201,#202,#203));
#645=EDGE_LOOP('',(#204,#205,#206,#207));
#646=EDGE_LOOP('',(#208,#209,#210,#211));
#647=EDGE_LOOP('',(#212,#213,#214,#215));
#648=EDGE_LOOP('',(#216,#217,#218,#219));
#649=EDGE_LOOP('',(#220,#221,#222,#223));
#650=EDGE_LOOP('',(#224,#225,#226,#227));
#651=EDGE_LOOP('',(#228,#229,#230,#231));
#652=EDGE_LOOP('',(#232,#233,#234,#235));
#653=EDGE_LOOP('',(#236,#237,#238,#239));
#654=EDGE_LOOP('',(#240,#241,#242,#243));
#655=EDGE_LOOP('',(#244,#245,#246,#247));
#656=EDGE_LOOP('',(#248,#249,#250,#251));
#657=EDGE_LOOP('',(#252,#253,#254,#255));
#658=EDGE_LOOP('',(#256,#257,#258,#259));
#659=EDGE_LOOP('',(#260,#261,#262,#263));
#660=EDGE_LOOP('',(#264,#265,#266,#267));
#661=EDGE_LOOP('',(#268,#269,#270,#271));
#662=EDGE_LOOP('',(#272,#273,#274,#275));
#663=EDGE_LOOP('',(#276,#277,#278,#279,#280,#281,#282,#283));
#664=EDGE_LOOP('',(#284,#285,#286,#287));
#665=EDGE_LOOP('',(#288,#289,#290,#291));
#666=EDGE_LOOP('',(#292,#293,#294,#295));
#667=EDGE_LOOP('',(#296,#297,#298,#299));
#668=EDGE_LOOP('',(#300,#301,#302,#303));
#669=EDGE_LOOP('',(#304,#305,#306,#307));
#670=EDGE_LOOP('',(#308,#309,#310,#311));
#671=EDGE_LOOP('',(#312,#313,#314,#315));
#672=FACE_BOUND('',#620,.T.);
#673=FACE_BOUND('',#621,.T.);
#674=FACE_BOUND('',#622,.T.);
#675=FACE_BOUND('',#623,.T.);
#676=FACE_BOUND('',#624,.T.);
#677=FACE_BOUND('',#625,.T.);
#678=FACE_BOUND('',#626,.T.);
#679=FACE_BOUND('',#627,.T.);
#680=FACE_BOUND('',#628,.T.);
#681=FACE_BOUND('',#629,.T.);
#682=FACE_BOUND('',#630,.T.);
#683=FACE_BOUND('',#631,.T.);
#684=FACE_BOUND('',#632,.T.);
#685=FACE_BOUND('',#633,.T.);
#686=FACE_BOUND('',#634,.T.);
#687=FACE_BOUND('',#635,.T.);
#688=FACE_BOUND('',#636,.T.);
#689=FACE_BOUND('',#637,.T.);
#690=FACE_BOUND('',#638,.T.);
#691=FACE_BOUND('',#639,.T.);
#692=FACE_BOUND('',#640,.T.);
#693=FACE_BOUND('',#641,.T.);
#694=FACE_BOUND('',#642,.T.);
#695=FACE_BOUND('',#643,.T.);
#696=FACE_BOUND('',#644,.T.);
#697=FACE_BOUND('',#645,.T.);
#698=FACE_BOUND('',#646,.T.);
#699=FACE_BOUND('',#647,.T.);
#700=FACE_BOUND('',#648,.T.);
#701=FACE_BOUND('',#649,.T.);
#702=FACE_BOUND('',#650,.T.);
#703=FACE_BOUND('',#651,.T.);
#704=FACE_BOUND('',#652,.T.);
#705=FACE_BOUND('',#653,.T.);
#706=FACE_BOUND('',#654,.T.);
#707=FACE_BOUND('',#655,.T.);
#708=FACE_BOUND('',#656,.T.);
#709=FACE_BOUND('',#657,.T.);
#710=FACE_BOUND('',#658,.T.);
#711=FACE_BOUND('',#659,.T.);
#712=FACE_BOUND('',#660,.T.);
#713=FACE_BOUND('',#661,.T.);
#714=FACE_BOUND('',#662,.T.);
#715=FACE_BOUND('',#663,.T.);
#716=FACE_BOUND('',#664,.T.);
#717=FACE_BOUND('',#665,.T.);
#718=FACE_BOUND('',#666,.T.);
#719=FACE_BOUND('',#667,.T.);
#720=FACE_BOUND('',#668,.T.);
#721=FACE_BOUND('',#669,.T.);
#722=FACE_BOUND('',#670,.T.);
#723=FACE_BOUND('',#671,.T.);
#724=PLANE('',#807);
#725=PLANE('',#811);
#726=PLANE('',#815);
#727=PLANE('',#819);
#728=PLANE('',#823);
#729=PLANE('',#824);
#730=PLANE('',#829);
#731=PLANE('',#832);
#732=PLANE('',#835);
#733=PLANE('',#838);
#734=PLANE('',#875);
#735=PLANE('',#881);
#736=PLANE('',#887);
#737=PLANE('',#892);
#738=PLANE('',#893);
#739=PLANE('',#898);
#740=PLANE('',#900);
#741=PLANE('',#902);
#742=PLANE('',#904);
#743=ADVANCED_FACE('',(#672),#724,.T.);
#744=ADVANCED_FACE('',(#673),#72,.T.);
#745=ADVANCED_FACE('',(#674),#725,.T.);
#746=ADVANCED_FACE('',(#675),#73,.T.);
#747=ADVANCED_FACE('',(#676),#726,.T.);
#748=ADVANCED_FACE('',(#677),#74,.T.);
#749=ADVANCED_FACE('',(#678),#727,.T.);
#750=ADVANCED_FACE('',(#679),#75,.T.);
#751=ADVANCED_FACE('',(#680),#728,.T.);
#752=ADVANCED_FACE('',(#681,#682),#729,.F.);
#753=ADVANCED_FACE('',(#683),#730,.T.);
#754=ADVANCED_FACE('',(#684),#76,.F.);
#755=ADVANCED_FACE('',(#685),#731,.T.);
#756=ADVANCED_FACE('',(#686),#77,.F.);
#757=ADVANCED_FACE('',(#687),#732,.T.);
#758=ADVANCED_FACE('',(#688),#78,.F.);
#759=ADVANCED_FACE('',(#689),#733,.T.);
#760=ADVANCED_FACE('',(#690),#79,.F.);
#761=ADVANCED_FACE('',(#691),#16,.F.);
#762=ADVANCED_FACE('',(#692),#12,.F.);
#763=ADVANCED_FACE('',(#693),#17,.F.);
#764=ADVANCED_FACE('',(#694),#13,.F.);
#765=ADVANCED_FACE('',(#695),#18,.F.);
#766=ADVANCED_FACE('',(#696),#14,.F.);
#767=ADVANCED_FACE('',(#697),#19,.F.);
#768=ADVANCED_FACE('',(#698),#15,.F.);
#769=ADVANCED_FACE('',(#699),#20,.F.);
#770=ADVANCED_FACE('',(#700),#80,.F.);
#771=ADVANCED_FACE('',(#701),#81,.F.);
#772=ADVANCED_FACE('',(#702),#734,.F.);
#773=ADVANCED_FACE('',(#703),#21,.F.);
#774=ADVANCED_FACE('',(#704),#82,.F.);
#775=ADVANCED_FACE('',(#705),#83,.F.);
#776=ADVANCED_FACE('',(#706),#735,.F.);
#777=ADVANCED_FACE('',(#707),#22,.F.);
#778=ADVANCED_FACE('',(#708),#84,.F.);
#779=ADVANCED_FACE('',(#709),#85,.F.);
#780=ADVANCED_FACE('',(#710),#736,.F.);
#781=ADVANCED_FACE('',(#711),#23,.F.);
#782=ADVANCED_FACE('',(#712),#86,.F.);
#783=ADVANCED_FACE('',(#713),#87,.F.);
#784=ADVANCED_FACE('',(#714),#737,.F.);
#785=ADVANCED_FACE('',(#715),#738,.F.);
#786=ADVANCED_FACE('',(#716),#739,.T.);
#787=ADVANCED_FACE('',(#717),#88,.F.);
#788=ADVANCED_FACE('',(#718),#740,.T.);
#789=ADVANCED_FACE('',(#719),#89,.F.);
#790=ADVANCED_FACE('',(#720),#741,.T.);
#791=ADVANCED_FACE('',(#721),#90,.F.);
#792=ADVANCED_FACE('',(#722),#742,.T.);
#793=ADVANCED_FACE('',(#723),#91,.F.);
#794=CLOSED_SHELL('',(#743,#744,#745,#746,#747,#748,#749,#750,#751,#752,
#753,#754,#755,#756,#757,#758,#759,#760,#761,#762,#763,#764,#765,#766,#767,
#768,#769,#770,#771,#772,#773,#774,#775,#776,#777,#778,#779,#780,#781,#782,
#783,#784,#785,#786,#787,#788,#789,#790,#791,#792,#793));
#795=STYLED_ITEM('',(#796),#803);
#796=PRESENTATION_STYLE_ASSIGNMENT((#797));
#797=SURFACE_STYLE_USAGE(.BOTH.,#798);
#798=SURFACE_SIDE_STYLE('',(#799));
#799=SURFACE_STYLE_FILL_AREA(#800);
#800=FILL_AREA_STYLE('',(#801));
#801=FILL_AREA_STYLE_COLOUR('',#802);
#802=COLOUR_RGB('',0.647058823529412,0.647058823529412,0.647058823529412);
#803=MANIFOLD_SOLID_BREP('case front',#794);
#804=SHAPE_DEFINITION_REPRESENTATION(#1404,#805);
#805=SHAPE_REPRESENTATION('case front',(#806),#1399);
#806=AXIS2_PLACEMENT_3D('',#1170,#906,#907);
#807=AXIS2_PLACEMENT_3D('',#1171,#908,#909);
#808=AXIS2_PLACEMENT_3D('',#1180,#914,#915);
#809=AXIS2_PLACEMENT_3D('',#1181,#916,#917);
#810=AXIS2_PLACEMENT_3D('',#1185,#919,#920);
#811=AXIS2_PLACEMENT_3D('',#1186,#921,#922);
#812=AXIS2_PLACEMENT_3D('',#1192,#926,#927);
#813=AXIS2_PLACEMENT_3D('',#1193,#928,#929);
#814=AXIS2_PLACEMENT_3D('',#1197,#931,#932);
#815=AXIS2_PLACEMENT_3D('',#1198,#933,#934);
#816=AXIS2_PLACEMENT_3D('',#1204,#938,#939);
#817=AXIS2_PLACEMENT_3D('',#1205,#940,#941);
#818=AXIS2_PLACEMENT_3D('',#1209,#943,#944);
#819=AXIS2_PLACEMENT_3D('',#1210,#945,#946);
#820=AXIS2_PLACEMENT_3D('',#1216,#950,#951);
#821=AXIS2_PLACEMENT_3D('',#1217,#952,#953);
#822=AXIS2_PLACEMENT_3D('',#1218,#954,#955);
#823=AXIS2_PLACEMENT_3D('',#1219,#956,#957);
#824=AXIS2_PLACEMENT_3D('',#1220,#958,#959);
#825=AXIS2_PLACEMENT_3D('',#1224,#961,#962);
#826=AXIS2_PLACEMENT_3D('',#1228,#964,#965);
#827=AXIS2_PLACEMENT_3D('',#1232,#967,#968);
#828=AXIS2_PLACEMENT_3D('',#1236,#970,#971);
#829=AXIS2_PLACEMENT_3D('',#1237,#972,#973);
#830=AXIS2_PLACEMENT_3D('',#1243,#977,#978);
#831=AXIS2_PLACEMENT_3D('',#1244,#979,#980);
#832=AXIS2_PLACEMENT_3D('',#1247,#982,#983);
#833=AXIS2_PLACEMENT_3D('',#1251,#986,#987);
#834=AXIS2_PLACEMENT_3D('',#1252,#988,#989);
#835=AXIS2_PLACEMENT_3D('',#1255,#991,#992);
#836=AXIS2_PLACEMENT_3D('',#1259,#995,#996);
#837=AXIS2_PLACEMENT_3D('',#1260,#997,#998);
#838=AXIS2_PLACEMENT_3D('',#1263,#1000,#1001);
#839=AXIS2_PLACEMENT_3D('',#1267,#1004,#1005);
#840=AXIS2_PLACEMENT_3D('',#1268,#1006,#1007);
#841=AXIS2_PLACEMENT_3D('',#1269,#1008,#1009);
#842=AXIS2_PLACEMENT_3D('',#1270,#1010,#1011);
#843=AXIS2_PLACEMENT_3D('',#1273,#1012,#1013);
#844=AXIS2_PLACEMENT_3D('',#1275,#1014,#1015);
#845=AXIS2_PLACEMENT_3D('',#1277,#1016,#1017);
#846=AXIS2_PLACEMENT_3D('',#1278,#1018,#1019);
#847=AXIS2_PLACEMENT_3D('',#1281,#1021,#1022);
#848=AXIS2_PLACEMENT_3D('',#1284,#1024,#1025);
#849=AXIS2_PLACEMENT_3D('',#1285,#1026,#1027);
#850=AXIS2_PLACEMENT_3D('',#1288,#1028,#1029);
#851=AXIS2_PLACEMENT_3D('',#1290,#1030,#1031);
#852=AXIS2_PLACEMENT_3D('',#1292,#1032,#1033);
#853=AXIS2_PLACEMENT_3D('',#1293,#1034,#1035);
#854=AXIS2_PLACEMENT_3D('',#1296,#1037,#1038);
#855=AXIS2_PLACEMENT_3D('',#1299,#1040,#1041);
#856=AXIS2_PLACEMENT_3D('',#1300,#1042,#1043);
#857=AXIS2_PLACEMENT_3D('',#1303,#1044,#1045);
#858=AXIS2_PLACEMENT_3D('',#1305,#1046,#1047);
#859=AXIS2_PLACEMENT_3D('',#1307,#1048,#1049);
#860=AXIS2_PLACEMENT_3D('',#1308,#1050,#1051);
#861=AXIS2_PLACEMENT_3D('',#1311,#1053,#1054);
#862=AXIS2_PLACEMENT_3D('',#1314,#1056,#1057);
#863=AXIS2_PLACEMENT_3D('',#1315,#1058,#1059);
#864=AXIS2_PLACEMENT_3D('',#1318,#1060,#1061);
#865=AXIS2_PLACEMENT_3D('',#1320,#1062,#1063);
#866=AXIS2_PLACEMENT_3D('',#1322,#1064,#1065);
#867=AXIS2_PLACEMENT_3D('',#1323,#1066,#1067);
#868=AXIS2_PLACEMENT_3D('',#1326,#1069,#1070);
#869=AXIS2_PLACEMENT_3D('',#1329,#1072,#1073);
#870=AXIS2_PLACEMENT_3D('',#1330,#1074,#1075);
#871=AXIS2_PLACEMENT_3D('',#1331,#1076,#1077);
#872=AXIS2_PLACEMENT_3D('',#1332,#1078,#1079);
#873=AXIS2_PLACEMENT_3D('',#1335,#1082,#1083);
#874=AXIS2_PLACEMENT_3D('',#1336,#1084,#1085);
#875=AXIS2_PLACEMENT_3D('',#1338,#1087,#1088);
#876=AXIS2_PLACEMENT_3D('',#1339,#1089,#1090);
#877=AXIS2_PLACEMENT_3D('',#1340,#1091,#1092);
#878=AXIS2_PLACEMENT_3D('',#1341,#1093,#1094);
#879=AXIS2_PLACEMENT_3D('',#1344,#1097,#1098);
#880=AXIS2_PLACEMENT_3D('',#1345,#1099,#1100);
#881=AXIS2_PLACEMENT_3D('',#1347,#1102,#1103);
#882=AXIS2_PLACEMENT_3D('',#1348,#1104,#1105);
#883=AXIS2_PLACEMENT_3D('',#1349,#1106,#1107);
#884=AXIS2_PLACEMENT_3D('',#1350,#1108,#1109);
#885=AXIS2_PLACEMENT_3D('',#1353,#1112,#1113);
#886=AXIS2_PLACEMENT_3D('',#1354,#1114,#1115);
#887=AXIS2_PLACEMENT_3D('',#1356,#1117,#1118);
#888=AXIS2_PLACEMENT_3D('',#1357,#1119,#1120);
#889=AXIS2_PLACEMENT_3D('',#1358,#1121,#1122);
#890=AXIS2_PLACEMENT_3D('',#1359,#1123,#1124);
#891=AXIS2_PLACEMENT_3D('',#1362,#1127,#1128);
#892=AXIS2_PLACEMENT_3D('',#1364,#1130,#1131);
#893=AXIS2_PLACEMENT_3D('',#1365,#1132,#1133);
#894=AXIS2_PLACEMENT_3D('',#1366,#1134,#1135);
#895=AXIS2_PLACEMENT_3D('',#1371,#1137,#1138);
#896=AXIS2_PLACEMENT_3D('',#1375,#1140,#1141);
#897=AXIS2_PLACEMENT_3D('',#1379,#1143,#1144);
#898=AXIS2_PLACEMENT_3D('',#1382,#1146,#1147);
#899=AXIS2_PLACEMENT_3D('',#1385,#1150,#1151);
#900=AXIS2_PLACEMENT_3D('',#1387,#1153,#1154);
#901=AXIS2_PLACEMENT_3D('',#1389,#1156,#1157);
#902=AXIS2_PLACEMENT_3D('',#1391,#1159,#1160);
#903=AXIS2_PLACEMENT_3D('',#1393,#1162,#1163);
#904=AXIS2_PLACEMENT_3D('',#1395,#1165,#1166);
#905=AXIS2_PLACEMENT_3D('',#1397,#1168,#1169);
#906=DIRECTION('',(0.,0.,1.));
#907=DIRECTION('',(1.,0.,0.));
#908=DIRECTION('',(1.,0.,0.));
#909=DIRECTION('',(0.,-1.,0.));
#910=DIRECTION('',(0.,-1.,0.));
#911=DIRECTION('',(0.,0.,-1.));
#912=DIRECTION('',(0.,-1.,0.));
#913=DIRECTION('',(0.,0.,1.));
#914=DIRECTION('',(0.,-1.,0.));
#915=DIRECTION('',(-1.,0.,0.));
#916=DIRECTION('',(0.,1.,0.));
#917=DIRECTION('',(1.,0.,0.));
#918=DIRECTION('',(0.,-1.,0.));
#919=DIRECTION('',(0.,1.,0.));
#920=DIRECTION('',(1.,0.,0.));
#921=DIRECTION('',(0.,0.,-1.));
#922=DIRECTION('',(0.,1.,0.));
#923=DIRECTION('',(-1.,0.,0.));
#924=DIRECTION('',(0.,-1.,0.));
#925=DIRECTION('',(1.,0.,0.));
#926=DIRECTION('',(0.,-1.,0.));
#927=DIRECTION('',(-1.,0.,0.));
#928=DIRECTION('',(0.,1.,0.));
#929=DIRECTION('',(1.,0.,0.));
#930=DIRECTION('',(0.,-1.,0.));
#931=DIRECTION('',(0.,1.,0.));
#932=DIRECTION('',(0.,0.,-1.));
#933=DIRECTION('',(-1.,0.,0.));
#934=DIRECTION('',(0.,1.,0.));
#935=DIRECTION('',(0.,0.,1.));
#936=DIRECTION('',(0.,-1.,0.));
#937=DIRECTION('',(0.,0.,-1.));
#938=DIRECTION('',(0.,-1.,0.));
#939=DIRECTION('',(-1.,0.,0.));
#940=DIRECTION('',(0.,1.,0.));
#941=DIRECTION('',(1.,0.,0.));
#942=DIRECTION('',(0.,-1.,0.));
#943=DIRECTION('',(0.,1.,0.));
#944=DIRECTION('',(-1.,0.,-4.27008778567253E-15));
#945=DIRECTION('',(0.,0.,1.));
#946=DIRECTION('',(0.,-1.,0.));
#947=DIRECTION('',(1.,0.,0.));
#948=DIRECTION('',(0.,-1.,0.));
#949=DIRECTION('',(-1.,0.,0.));
#950=DIRECTION('',(0.,-1.,0.));
#951=DIRECTION('',(-1.,0.,0.));
#952=DIRECTION('',(0.,1.,0.));
#953=DIRECTION('',(1.,0.,0.));
#954=DIRECTION('',(0.,1.,0.));
#955=DIRECTION('',(0.,0.,1.));
#956=DIRECTION('',(0.,1.,0.));
#957=DIRECTION('',(1.,0.,0.));
#958=DIRECTION('',(0.,1.,0.));
#959=DIRECTION('',(1.,0.,0.));
#960=DIRECTION('',(0.,0.,1.));
#961=DIRECTION('',(0.,1.,0.));
#962=DIRECTION('',(1.,0.,0.));
#963=DIRECTION('',(1.,0.,0.));
#964=DIRECTION('',(0.,1.,0.));
#965=DIRECTION('',(1.,0.,0.));
#966=DIRECTION('',(0.,0.,-1.));
#967=DIRECTION('',(0.,1.,0.));
#968=DIRECTION('',(1.,0.,0.));
#969=DIRECTION('',(-1.,0.,0.));
#970=DIRECTION('',(0.,1.,0.));
#971=DIRECTION('',(1.,0.,0.));
#972=DIRECTION('',(1.,0.,0.));
#973=DIRECTION('',(0.,-1.,0.));
#974=DIRECTION('',(0.,0.,-1.));
#975=DIRECTION('',(0.,1.,0.));
#976=DIRECTION('',(0.,1.,0.));
#977=DIRECTION('',(0.,1.,0.));
#978=DIRECTION('',(1.,0.,0.));
#979=DIRECTION('',(0.,1.,0.));
#980=DIRECTION('',(1.,0.,0.));
#981=DIRECTION('',(0.,1.,0.));
#982=DIRECTION('',(0.,0.,-1.));
#983=DIRECTION('',(0.,1.,0.));
#984=DIRECTION('',(-1.,0.,0.));
#985=DIRECTION('',(0.,1.,0.));
#986=DIRECTION('',(0.,1.,0.));
#987=DIRECTION('',(1.,0.,0.));
#988=DIRECTION('',(0.,1.,0.));
#989=DIRECTION('',(1.,0.,0.));
#990=DIRECTION('',(0.,1.,0.));
#991=DIRECTION('',(-1.,0.,0.));
#992=DIRECTION('',(0.,1.,0.));
#993=DIRECTION('',(0.,0.,1.));
#994=DIRECTION('',(0.,1.,0.));
#995=DIRECTION('',(0.,1.,0.));
#996=DIRECTION('',(1.,0.,0.));
#997=DIRECTION('',(0.,1.,0.));
#998=DIRECTION('',(1.,0.,0.));
#999=DIRECTION('',(0.,1.,0.));
#1000=DIRECTION('',(0.,0.,1.));
#1001=DIRECTION('',(0.,-1.,0.));
#1002=DIRECTION('',(1.,0.,0.));
#1003=DIRECTION('',(0.,1.,0.));
#1004=DIRECTION('',(0.,1.,0.));
#1005=DIRECTION('',(1.,0.,0.));
#1006=DIRECTION('',(0.,1.,0.));
#1007=DIRECTION('',(1.,0.,0.));
#1008=DIRECTION('',(0.,-1.,0.));
#1009=DIRECTION('',(-1.,0.,0.));
#1010=DIRECTION('',(-1.,0.,6.12323399573677E-17));
#1011=DIRECTION('',(6.12323399573677E-17,0.,1.));
#1012=DIRECTION('',(0.,-1.,0.));
#1013=DIRECTION('',(-1.,0.,0.));
#1014=DIRECTION('',(0.,0.,1.));
#1015=DIRECTION('',(0.,-1.,0.));
#1016=DIRECTION('',(0.,-1.,0.));
#1017=DIRECTION('',(-1.,0.,0.));
#1018=DIRECTION('',(0.,1.,0.));
#1019=DIRECTION('',(1.,0.,0.));
#1020=DIRECTION('',(-0.34202014332567,-0.939692620785908,0.));
#1021=DIRECTION('',(0.,1.,0.));
#1022=DIRECTION('',(1.,0.,0.));
#1023=DIRECTION('',(2.0942693688385E-17,0.939692620785908,-0.342020143325669));
#1024=DIRECTION('',(0.,-1.,0.));
#1025=DIRECTION('',(-1.,0.,0.));
#1026=DIRECTION('',(-1.22464679914735E-16,0.,-1.));
#1027=DIRECTION('',(-1.,0.,1.22464679914735E-16));
#1028=DIRECTION('',(0.,-1.,0.));
#1029=DIRECTION('',(-1.,0.,0.));
#1030=DIRECTION('',(-1.,0.,0.));
#1031=DIRECTION('',(0.,1.,0.));
#1032=DIRECTION('',(0.,-1.,0.));
#1033=DIRECTION('',(-1.,0.,0.));
#1034=DIRECTION('',(0.,1.,0.));
#1035=DIRECTION('',(1.,0.,0.));
#1036=DIRECTION('',(0.,-0.939692620785908,-0.34202014332567));
#1037=DIRECTION('',(0.,1.,0.));
#1038=DIRECTION('',(1.,0.,0.));
#1039=DIRECTION('',(0.342020143325659,0.939692620785912,0.));
#1040=DIRECTION('',(0.,-1.,0.));
#1041=DIRECTION('',(-1.,0.,0.));
#1042=DIRECTION('',(5.32907051820075E-15,0.,1.));
#1043=DIRECTION('',(1.,0.,-5.32907051820075E-15));
#1044=DIRECTION('',(0.,-1.,0.));
#1045=DIRECTION('',(-1.,0.,0.));
#1046=DIRECTION('',(1.,0.,0.));
#1047=DIRECTION('',(0.,-1.,0.));
#1048=DIRECTION('',(0.,-1.,0.));
#1049=DIRECTION('',(-1.,0.,0.));
#1050=DIRECTION('',(0.,1.,0.));
#1051=DIRECTION('',(1.,0.,0.));
#1052=DIRECTION('',(0.,0.939692620785908,-0.34202014332567));
#1053=DIRECTION('',(0.,1.,0.));
#1054=DIRECTION('',(1.,0.,0.));
#1055=DIRECTION('',(-0.342020143325669,0.939692620785908,1.78076407505085E-15));
#1056=DIRECTION('',(0.,-1.,0.));
#1057=DIRECTION('',(-1.,0.,0.));
#1058=DIRECTION('',(1.,0.,2.48083823922828E-15));
#1059=DIRECTION('',(2.48083823922828E-15,0.,-1.));
#1060=DIRECTION('',(0.,-1.,0.));
#1061=DIRECTION('',(-1.,0.,0.));
#1062=DIRECTION('',(0.,0.,-1.));
#1063=DIRECTION('',(0.,1.,0.));
#1064=DIRECTION('',(0.,-1.,0.));
#1065=DIRECTION('',(-1.,0.,0.));
#1066=DIRECTION('',(0.,1.,0.));
#1067=DIRECTION('',(1.,0.,0.));
#1068=DIRECTION('',(-0.34202014332567,0.939692620785908,0.));
#1069=DIRECTION('',(0.,1.,0.));
#1070=DIRECTION('',(1.,0.,0.));
#1071=DIRECTION('',(-9.74152812278966E-16,0.939692620785908,0.342020143325669));
#1072=DIRECTION('',(0.,-1.,0.));
#1073=DIRECTION('',(-1.,0.,0.));
#1074=DIRECTION('',(5.32907051820075E-15,0.,1.));
#1075=DIRECTION('',(1.,0.,-5.32907051820075E-15));
#1076=DIRECTION('',(1.,0.,0.));
#1077=DIRECTION('',(0.,-1.,0.));
#1078=DIRECTION('',(0.,0.,-1.));
#1079=DIRECTION('',(0.,1.,0.));
#1080=DIRECTION('',(0.,0.,-1.));
#1081=DIRECTION('',(0.,0.,-1.));
#1082=DIRECTION('',(0.,0.,-1.));
#1083=DIRECTION('',(0.,1.,0.));
#1084=DIRECTION('',(0.,0.,-1.));
#1085=DIRECTION('',(0.,1.,0.));
#1086=DIRECTION('',(0.,0.,-1.));
#1087=DIRECTION('',(-0.939692620785908,-0.34202014332567,0.));
#1088=DIRECTION('',(-0.34202014332567,0.939692620785908,0.));
#1089=DIRECTION('',(0.,-1.,0.));
#1090=DIRECTION('',(-1.,0.,0.));
#1091=DIRECTION('',(1.,0.,2.48083823922828E-15));
#1092=DIRECTION('',(2.48083823922828E-15,0.,-1.));
#1093=DIRECTION('',(-1.,0.,0.));
#1094=DIRECTION('',(0.,1.,0.));
#1095=DIRECTION('',(-1.,0.,0.));
#1096=DIRECTION('',(-1.,0.,0.));
#1097=DIRECTION('',(-1.,0.,0.));
#1098=DIRECTION('',(0.,1.,0.));
#1099=DIRECTION('',(-1.,0.,0.));
#1100=DIRECTION('',(0.,1.,0.));
#1101=DIRECTION('',(1.,0.,0.));
#1102=DIRECTION('',(0.,-0.34202014332567,0.939692620785908));
#1103=DIRECTION('',(0.,-0.939692620785908,-0.34202014332567));
#1104=DIRECTION('',(0.,-1.,0.));
#1105=DIRECTION('',(-1.,0.,0.));
#1106=DIRECTION('',(-1.22464679914735E-16,0.,-1.));
#1107=DIRECTION('',(-1.,0.,1.22464679914735E-16));
#1108=DIRECTION('',(0.,0.,1.));
#1109=DIRECTION('',(0.,-1.,0.));
#1110=DIRECTION('',(0.,0.,1.));
#1111=DIRECTION('',(0.,0.,1.));
#1112=DIRECTION('',(0.,0.,1.));
#1113=DIRECTION('',(0.,-1.,0.));
#1114=DIRECTION('',(0.,0.,1.));
#1115=DIRECTION('',(0.,-1.,0.));
#1116=DIRECTION('',(0.,0.,-1.));
#1117=DIRECTION('',(0.939692620785908,-0.34202014332567,0.));
#1118=DIRECTION('',(-0.34202014332567,-0.939692620785908,0.));
#1119=DIRECTION('',(0.,-1.,0.));
#1120=DIRECTION('',(-1.,0.,0.));
#1121=DIRECTION('',(-1.,0.,6.12323399573677E-17));
#1122=DIRECTION('',(6.12323399573677E-17,0.,1.));
#1123=DIRECTION('',(1.,0.,0.));
#1124=DIRECTION('',(0.,-1.,0.));
#1125=DIRECTION('',(1.,0.,0.));
#1126=DIRECTION('',(1.,0.,0.));
#1127=DIRECTION('',(1.,0.,0.));
#1128=DIRECTION('',(0.,-1.,0.));
#1129=DIRECTION('',(1.,0.,0.));
#1130=DIRECTION('',(0.,-0.34202014332567,-0.939692620785908));
#1131=DIRECTION('',(0.,0.939692620785908,-0.34202014332567));
#1132=DIRECTION('',(0.,1.,0.));
#1133=DIRECTION('',(1.,0.,0.));
#1134=DIRECTION('',(0.,1.,0.));
#1135=DIRECTION('',(0.,0.,-1.));
#1136=DIRECTION('',(1.,0.,0.));
#1137=DIRECTION('',(0.,1.,0.));
#1138=DIRECTION('',(1.,0.,0.));
#1139=DIRECTION('',(0.,0.,1.));
#1140=DIRECTION('',(0.,1.,0.));
#1141=DIRECTION('',(0.,0.,1.));
#1142=DIRECTION('',(-1.,0.,0.));
#1143=DIRECTION('',(0.,1.,0.));
#1144=DIRECTION('',(-1.,0.,-5.55111382084891E-15));
#1145=DIRECTION('',(0.,0.,-1.));
#1146=DIRECTION('',(1.,0.,0.));
#1147=DIRECTION('',(0.,-1.,0.));
#1148=DIRECTION('',(0.,1.,0.));
#1149=DIRECTION('',(0.,1.,0.));
#1150=DIRECTION('',(0.,1.,0.));
#1151=DIRECTION('',(1.,0.,0.));
#1152=DIRECTION('',(0.,1.,0.));
#1153=DIRECTION('',(0.,0.,-1.));
#1154=DIRECTION('',(0.,1.,0.));
#1155=DIRECTION('',(0.,1.,0.));
#1156=DIRECTION('',(0.,1.,0.));
#1157=DIRECTION('',(1.,0.,0.));
#1158=DIRECTION('',(0.,1.,0.));
#1159=DIRECTION('',(-1.,0.,0.));
#1160=DIRECTION('',(0.,1.,0.));
#1161=DIRECTION('',(0.,1.,0.));
#1162=DIRECTION('',(0.,1.,0.));
#1163=DIRECTION('',(1.,0.,0.));
#1164=DIRECTION('',(0.,1.,0.));
#1165=DIRECTION('',(0.,0.,1.));
#1166=DIRECTION('',(0.,-1.,0.));
#1167=DIRECTION('',(0.,1.,0.));
#1168=DIRECTION('',(0.,1.,0.));
#1169=DIRECTION('',(1.,0.,0.));
#1170=CARTESIAN_POINT('',(0.,0.,0.));
#1171=CARTESIAN_POINT('',(0.1485,0.00472,0.086749999999995));
#1172=CARTESIAN_POINT('',(0.148499999999997,0.00472,0.09824999882701));
#1173=CARTESIAN_POINT('',(0.148499999999997,0.00472,0.09824999882701));
#1174=CARTESIAN_POINT('',(0.148499999999997,0.,0.09824999882701));
#1175=CARTESIAN_POINT('',(0.1485,0.,0.086749999999995));
#1176=CARTESIAN_POINT('',(0.1485,0.,0.07525000117298));
#1177=CARTESIAN_POINT('',(0.1485,0.00472,0.07525000117298));
#1178=CARTESIAN_POINT('',(0.1485,0.00472,0.07525000117298));
#1179=CARTESIAN_POINT('',(0.1485,0.00472,0.086749999999995));
#1180=CARTESIAN_POINT('',(0.14199999882701,0.00472,0.07525000117298));
#1181=CARTESIAN_POINT('',(0.14199999882701,0.,0.07525000117298));
#1182=CARTESIAN_POINT('',(0.14199999882701,0.,0.06875));
#1183=CARTESIAN_POINT('',(0.14199999882701,0.00472,0.06875));
#1184=CARTESIAN_POINT('',(0.14199999882701,0.00472,0.06875));
#1185=CARTESIAN_POINT('',(0.14199999882701,0.00472,0.07525000117298));
#1186=CARTESIAN_POINT('',(0.130499999999995,0.00472,0.06875));
#1187=CARTESIAN_POINT('',(0.130499999999995,0.,0.06875));
#1188=CARTESIAN_POINT('',(0.11900000117298,0.,0.06875));
#1189=CARTESIAN_POINT('',(0.11900000117298,0.00472,0.06875));
#1190=CARTESIAN_POINT('',(0.11900000117298,0.00472,0.06875));
#1191=CARTESIAN_POINT('',(0.130499999999995,0.00472,0.06875));
#1192=CARTESIAN_POINT('',(0.11900000117298,0.00472,0.07525000117298));
#1193=CARTESIAN_POINT('',(0.11900000117298,0.,0.07525000117298));
#1194=CARTESIAN_POINT('',(0.112499999999993,0.,0.07525000117298));
#1195=CARTESIAN_POINT('',(0.112499999999993,0.00472,0.07525000117298));
#1196=CARTESIAN_POINT('',(0.112499999999993,0.00472,0.07525000117298));
#1197=CARTESIAN_POINT('',(0.11900000117298,0.00472,0.07525000117298));
#1198=CARTESIAN_POINT('',(0.1125,0.00472,0.086749999999995));
#1199=CARTESIAN_POINT('',(0.1125,0.,0.086749999999995));
#1200=CARTESIAN_POINT('',(0.1125,0.,0.09824999882701));
#1201=CARTESIAN_POINT('',(0.1125,0.00472,0.09824999882701));
#1202=CARTESIAN_POINT('',(0.1125,0.00472,0.09824999882701));
#1203=CARTESIAN_POINT('',(0.1125,0.00472,0.086749999999995));
#1204=CARTESIAN_POINT('',(0.11900000117298,0.00472,0.09824999882701));
#1205=CARTESIAN_POINT('',(0.11900000117298,0.,0.09824999882701));
#1206=CARTESIAN_POINT('',(0.11900000117298,0.,0.104749999999997));
#1207=CARTESIAN_POINT('',(0.11900000117298,0.00472,0.104749999999997));
#1208=CARTESIAN_POINT('',(0.11900000117298,0.00472,0.104749999999997));
#1209=CARTESIAN_POINT('',(0.11900000117298,0.00472,0.09824999882701));
#1210=CARTESIAN_POINT('',(0.130499999999995,0.00472,0.10475));
#1211=CARTESIAN_POINT('',(0.130499999999995,0.,0.10475));
#1212=CARTESIAN_POINT('',(0.14199999882701,0.,0.10475));
#1213=CARTESIAN_POINT('',(0.14199999882701,0.00472,0.10475));
#1214=CARTESIAN_POINT('',(0.14199999882701,0.00472,0.10475));
#1215=CARTESIAN_POINT('',(0.130499999999995,0.00472,0.10475));
#1216=CARTESIAN_POINT('',(0.14199999882701,0.00472,0.09824999882701));
#1217=CARTESIAN_POINT('',(0.14199999882701,0.,0.09824999882701));
#1218=CARTESIAN_POINT('',(0.14199999882701,0.00472,0.09824999882701));
#1219=CARTESIAN_POINT('',(0.130499999999996,0.00472,0.0867499999999965));
#1220=CARTESIAN_POINT('',(0.,0.,0.));
#1221=CARTESIAN_POINT('',(0.114,0.,0.086749999999995));
#1222=CARTESIAN_POINT('',(0.114,0.,0.07525000117298));
#1223=CARTESIAN_POINT('',(0.113999999999993,0.,0.09824999882701));
#1224=CARTESIAN_POINT('',(0.11900000117298,0.,0.09824999882701));
#1225=CARTESIAN_POINT('',(0.11900000117298,0.,0.10325));
#1226=CARTESIAN_POINT('',(0.130499999999995,0.,0.10325));
#1227=CARTESIAN_POINT('',(0.14199999882701,0.,0.103249999999997));
#1228=CARTESIAN_POINT('',(0.14199999882701,0.,0.09824999882701));
#1229=CARTESIAN_POINT('',(0.147,0.,0.09824999882701));
#1230=CARTESIAN_POINT('',(0.147,0.,0.086749999999995));
#1231=CARTESIAN_POINT('',(0.146999999999997,0.,0.07525000117298));
#1232=CARTESIAN_POINT('',(0.14199999882701,0.,0.07525000117298));
#1233=CARTESIAN_POINT('',(0.14199999882701,0.,0.070249999999993));
#1234=CARTESIAN_POINT('',(0.130499999999995,0.,0.07025));
#1235=CARTESIAN_POINT('',(0.11900000117298,0.,0.070249999999993));
#1236=CARTESIAN_POINT('',(0.11900000117298,0.,0.07525000117298));
#1237=CARTESIAN_POINT('',(0.114,-2.00000000000027E-6,0.086749999999995));
#1238=CARTESIAN_POINT('',(0.114,0.000342783675915894,0.086749999999995));
#1239=CARTESIAN_POINT('',(0.113999999999993,0.000342783675915925,0.09824999882701));
#1240=CARTESIAN_POINT('',(0.113999999999994,0.000342783675913644,0.07525000117298));
#1241=CARTESIAN_POINT('',(0.113999999999993,-2.00000000000027E-6,0.09824999882701));
#1242=CARTESIAN_POINT('',(0.114,-2.00000000000027E-6,0.07525000117298));
#1243=CARTESIAN_POINT('',(0.11900000117298,-2.00000000000027E-6,0.09824999882701));
#1244=CARTESIAN_POINT('',(0.11900000117298,0.000342783675915888,0.09824999882701));
#1245=CARTESIAN_POINT('',(0.11900000117298,0.000342783675908684,0.103249999999994));
#1246=CARTESIAN_POINT('',(0.11900000117298,-2.00000000000027E-6,0.10325));
#1247=CARTESIAN_POINT('',(0.130499999999995,-2.00000000000027E-6,0.10325));
#1248=CARTESIAN_POINT('',(0.130499999999995,0.000342783675915932,0.10325));
#1249=CARTESIAN_POINT('',(0.14199999882701,0.000342783675923173,0.103250000000003));
#1250=CARTESIAN_POINT('',(0.14199999882701,-2.00000000000027E-6,0.103249999999997));
#1251=CARTESIAN_POINT('',(0.14199999882701,-2.00000000000027E-6,0.09824999882701));
#1252=CARTESIAN_POINT('',(0.14199999882701,0.000342783675915876,0.09824999882701));
#1253=CARTESIAN_POINT('',(0.146999999999994,0.000342783675908705,0.09824999882701));
#1254=CARTESIAN_POINT('',(0.147,-2.00000000000027E-6,0.09824999882701));
#1255=CARTESIAN_POINT('',(0.147,-2.00000000000027E-6,0.086749999999995));
#1256=CARTESIAN_POINT('',(0.147,0.00034278367591597,0.086749999999995));
#1257=CARTESIAN_POINT('',(0.147000000000003,0.000342783675923136,0.07525000117298));
#1258=CARTESIAN_POINT('',(0.146999999999997,-2.00000000000027E-6,0.07525000117298));
#1259=CARTESIAN_POINT('',(0.14199999882701,-2.00000000000027E-6,0.07525000117298));
#1260=CARTESIAN_POINT('',(0.14199999882701,0.000342783675915869,0.07525000117298));
#1261=CARTESIAN_POINT('',(0.14199999882701,0.000342783675932838,0.0702499999999868));
#1262=CARTESIAN_POINT('',(0.14199999882701,-2.00000000000027E-6,0.070249999999993));
#1263=CARTESIAN_POINT('',(0.130499999999995,-2.00000000000027E-6,0.07025));
#1264=CARTESIAN_POINT('',(0.130499999999995,0.000342783675915894,0.07025));
#1265=CARTESIAN_POINT('',(0.11900000117298,0.000342783675915894,0.07025));
#1266=CARTESIAN_POINT('',(0.11900000117298,-2.00000000000027E-6,0.070249999999993));
#1267=CARTESIAN_POINT('',(0.11900000117298,-2.00000000000027E-6,0.07525000117298));
#1268=CARTESIAN_POINT('',(0.11900000117298,0.000342783675915888,0.07525000117298));
#1269=CARTESIAN_POINT('',(0.14199999882701,0.00150000000000096,0.07525000117298));
#1270=CARTESIAN_POINT('',(0.14199999882701,0.00150000000000096,0.0704716225040933));
#1271=CARTESIAN_POINT('',(0.14199999882701,0.00149408174500015,0.0698716516929236));
#1272=CARTESIAN_POINT('',(0.14199999882701,0.00205756924742799,0.070249999999993));
#1273=CARTESIAN_POINT('',(0.14199999882701,0.00149408174517737,0.07525000117298));
#1274=CARTESIAN_POINT('',(0.147378348307072,0.00149408174510299,0.07525000117298));
#1275=CARTESIAN_POINT('',(0.1467783774959,0.00150000000000096,0.07525000117298));
#1276=CARTESIAN_POINT('',(0.147,0.00205756924742797,0.07525000117298));
#1277=CARTESIAN_POINT('',(0.14199999882701,0.00205756924742799,0.07525000117298));
#1278=CARTESIAN_POINT('',(0.14199999882701,0.000145457071356544,0.07525000117298));
#1279=CARTESIAN_POINT('',(0.147135186028941,0.000714204237858167,0.07525000117298));
#1280=CARTESIAN_POINT('',(0.147342193068371,0.00128295140435865,0.07525000117298));
#1281=CARTESIAN_POINT('',(0.14199999882701,0.0012829514043598,0.07525000117298));
#1282=CARTESIAN_POINT('',(0.14199999882701,0.0012829514043598,0.0699078069316217));
#1283=CARTESIAN_POINT('',(0.14199999882701,0.000145457071356544,0.0703218210104814));
#1284=CARTESIAN_POINT('',(0.14199999882701,0.00150000000000096,0.09824999882701));
#1285=CARTESIAN_POINT('',(0.146778377495897,0.00150000000000096,0.09824999882701));
#1286=CARTESIAN_POINT('',(0.147378348307071,0.00149408174525171,0.09824999882701));
#1287=CARTESIAN_POINT('',(0.146999999999997,0.00205756924742799,0.09824999882701));
#1288=CARTESIAN_POINT('',(0.14199999882701,0.00149408174517679,0.09824999882701));
#1289=CARTESIAN_POINT('',(0.14199999882701,0.00149408174510168,0.103628348307072));
#1290=CARTESIAN_POINT('',(0.14199999882701,0.00150000000000096,0.1030283774959));
#1291=CARTESIAN_POINT('',(0.14199999882701,0.00205756924742798,0.10325));
#1292=CARTESIAN_POINT('',(0.14199999882701,0.00205756924742799,0.09824999882701));
#1293=CARTESIAN_POINT('',(0.14199999882701,0.000145457071356545,0.09824999882701));
#1294=CARTESIAN_POINT('',(0.14199999882701,0.000714204237858167,0.103385186028941));
#1295=CARTESIAN_POINT('',(0.14199999882701,0.00128295140435864,0.103592193068371));
#1296=CARTESIAN_POINT('',(0.14199999882701,0.0012829514043598,0.09824999882701));
#1297=CARTESIAN_POINT('',(0.147342193068369,0.00128295140436095,0.09824999882701));
#1298=CARTESIAN_POINT('',(0.146928178989509,0.000145457071356545,0.09824999882701));
#1299=CARTESIAN_POINT('',(0.11900000117298,0.00150000000000096,0.07525000117298));
#1300=CARTESIAN_POINT('',(0.114221622504093,0.00150000000000096,0.07525000117298));
#1301=CARTESIAN_POINT('',(0.113621651692924,0.00149408174500015,0.07525000117298));
#1302=CARTESIAN_POINT('',(0.114,0.00205756924742798,0.07525000117298));
#1303=CARTESIAN_POINT('',(0.11900000117298,0.00149408174517737,0.07525000117298));
#1304=CARTESIAN_POINT('',(0.11900000117298,0.00149408174535492,0.0698716516929253));
#1305=CARTESIAN_POINT('',(0.11900000117298,0.00150000000000096,0.0704716225041003));
#1306=CARTESIAN_POINT('',(0.11900000117298,0.00205756924742798,0.07025));
#1307=CARTESIAN_POINT('',(0.11900000117298,0.00205756924742798,0.07525000117298));
#1308=CARTESIAN_POINT('',(0.11900000117298,0.000145457071356544,0.07525000117298));
#1309=CARTESIAN_POINT('',(0.11900000117298,0.000714204237858167,0.0701148139710586));
#1310=CARTESIAN_POINT('',(0.11900000117298,0.0012829514043625,0.0699078069316278));
#1311=CARTESIAN_POINT('',(0.11900000117298,0.0012829514043598,0.07525000117298));
#1312=CARTESIAN_POINT('',(0.113657806931623,0.0012829514043571,0.07525000117298));
#1313=CARTESIAN_POINT('',(0.114071821010481,0.000145457071356544,0.07525000117298));
#1314=CARTESIAN_POINT('',(0.11900000117298,0.00150000000000096,0.09824999882701));
#1315=CARTESIAN_POINT('',(0.11900000117298,0.00150000000000096,0.103028377495897));
#1316=CARTESIAN_POINT('',(0.11900000117298,0.00149408174525265,0.103628348307071));
#1317=CARTESIAN_POINT('',(0.11900000117298,0.00205756924742798,0.103249999999997));
#1318=CARTESIAN_POINT('',(0.11900000117298,0.00149408174517737,0.09824999882701));
#1319=CARTESIAN_POINT('',(0.113621651692925,0.00149408174535466,0.09824999882701));
#1320=CARTESIAN_POINT('',(0.1142216225041,0.00150000000000096,0.09824999882701));
#1321=CARTESIAN_POINT('',(0.114,0.00205756924742798,0.09824999882701));
#1322=CARTESIAN_POINT('',(0.11900000117298,0.00205756924742798,0.09824999882701));
#1323=CARTESIAN_POINT('',(0.11900000117298,0.000145457071356544,0.09824999882701));
#1324=CARTESIAN_POINT('',(0.113864813971059,0.000714204237858167,0.09824999882701));
#1325=CARTESIAN_POINT('',(0.113657806931628,0.00128295140436249,0.09824999882701));
#1326=CARTESIAN_POINT('',(0.11900000117298,0.0012829514043598,0.09824999882701));
#1327=CARTESIAN_POINT('',(0.11900000117298,0.0012829514043598,0.103592193068371));
#1328=CARTESIAN_POINT('',(0.11900000117298,0.000145457071356544,0.103178178989509));
#1329=CARTESIAN_POINT('',(0.11900000117298,0.00148816349035519,0.07525000117298));
#1330=CARTESIAN_POINT('',(0.114221622504093,0.00148816349035519,0.07525000117298));
#1331=CARTESIAN_POINT('',(0.11900000117298,0.00148816349035519,0.0704716225041003));
#1332=CARTESIAN_POINT('',(0.1142216225041,0.00150000000000096,0.09824999882701));
#1333=CARTESIAN_POINT('',(0.114,0.00205756924742798,0.09824999882701));
#1334=CARTESIAN_POINT('',(0.113621651692927,0.00149408174517739,0.09824999882701));
#1335=CARTESIAN_POINT('',(0.1142216225041,0.00148816349035519,0.09824999882701));
#1336=CARTESIAN_POINT('',(0.1142216225041,0.00148816349035519,0.09824999882701));
#1337=CARTESIAN_POINT('',(0.113657806931628,0.00128295140436205,0.09824999882701));
#1338=CARTESIAN_POINT('',(0.113864813971059,0.000714204237858167,0.09824999882701));
#1339=CARTESIAN_POINT('',(0.11900000117298,0.00148816349035519,0.09824999882701));
#1340=CARTESIAN_POINT('',(0.11900000117298,0.00148816349035519,0.103028377495897));
#1341=CARTESIAN_POINT('',(0.14199999882701,0.00150000000000096,0.1030283774959));
#1342=CARTESIAN_POINT('',(0.14199999882701,0.00205756924742798,0.10325));
#1343=CARTESIAN_POINT('',(0.14199999882701,0.00149408174517739,0.103628348307073));
#1344=CARTESIAN_POINT('',(0.14199999882701,0.00148816349035519,0.1030283774959));
#1345=CARTESIAN_POINT('',(0.14199999882701,0.00148816349035519,0.1030283774959));
#1346=CARTESIAN_POINT('',(0.14199999882701,0.00128295140435883,0.103592193068371));
#1347=CARTESIAN_POINT('',(0.14199999882701,0.000714204237858167,0.103385186028941));
#1348=CARTESIAN_POINT('',(0.14199999882701,0.00148816349035519,0.09824999882701));
#1349=CARTESIAN_POINT('',(0.146778377495897,0.00148816349035519,0.09824999882701));
#1350=CARTESIAN_POINT('',(0.1467783774959,0.00150000000000096,0.07525000117298));
#1351=CARTESIAN_POINT('',(0.147,0.00205756924742797,0.07525000117298));
#1352=CARTESIAN_POINT('',(0.147378348307073,0.0014940817451781,0.07525000117298));
#1353=CARTESIAN_POINT('',(0.1467783774959,0.00148816349035519,0.07525000117298));
#1354=CARTESIAN_POINT('',(0.1467783774959,0.00148816349035519,0.07525000117298));
#1355=CARTESIAN_POINT('',(0.147342193068371,0.00128295140435884,0.07525000117298));
#1356=CARTESIAN_POINT('',(0.147135186028941,0.000714204237858167,0.07525000117298));
#1357=CARTESIAN_POINT('',(0.14199999882701,0.00148816349035519,0.07525000117298));
#1358=CARTESIAN_POINT('',(0.14199999882701,0.00148816349035519,0.0704716225040933));
#1359=CARTESIAN_POINT('',(0.11900000117298,0.00150000000000096,0.0704716225041003));
#1360=CARTESIAN_POINT('',(0.11900000117298,0.00205756924742798,0.07025));
#1361=CARTESIAN_POINT('',(0.11900000117298,0.00149408174517739,0.0698716516929271));
#1362=CARTESIAN_POINT('',(0.11900000117298,0.00148816349035519,0.0704716225041003));
#1363=CARTESIAN_POINT('',(0.11900000117298,0.00128295140436205,0.0699078069316279));
#1364=CARTESIAN_POINT('',(0.11900000117298,0.000714204237858167,0.0701148139710586));
#1365=CARTESIAN_POINT('',(0.130499999999996,0.00412,0.0867499999999965));
#1366=CARTESIAN_POINT('',(0.11900000117298,0.00412,0.07525000117298));
#1367=CARTESIAN_POINT('',(0.11900000117298,0.00412,0.070249999999993));
#1368=CARTESIAN_POINT('',(0.114,0.00412,0.07525000117298));
#1369=CARTESIAN_POINT('',(0.130499999999995,0.00412,0.07025));
#1370=CARTESIAN_POINT('',(0.14199999882701,0.00412,0.070249999999993));
#1371=CARTESIAN_POINT('',(0.14199999882701,0.00412,0.07525000117298));
#1372=CARTESIAN_POINT('',(0.146999999999997,0.00412,0.07525000117298));
#1373=CARTESIAN_POINT('',(0.147,0.00412,0.086749999999995));
#1374=CARTESIAN_POINT('',(0.147,0.00412,0.09824999882701));
#1375=CARTESIAN_POINT('',(0.14199999882701,0.00412,0.09824999882701));
#1376=CARTESIAN_POINT('',(0.14199999882701,0.00412,0.103249999999997));
#1377=CARTESIAN_POINT('',(0.130499999999995,0.00412,0.10325));
#1378=CARTESIAN_POINT('',(0.11900000117298,0.00412,0.10325));
#1379=CARTESIAN_POINT('',(0.11900000117298,0.00412,0.09824999882701));
#1380=CARTESIAN_POINT('',(0.113999999999993,0.00412,0.09824999882701));
#1381=CARTESIAN_POINT('',(0.114,0.00412,0.086749999999995));
#1382=CARTESIAN_POINT('',(0.114,-2.00000000000027E-6,0.086749999999995));
#1383=CARTESIAN_POINT('',(0.114,-2.00000000000027E-6,0.07525000117298));
#1384=CARTESIAN_POINT('',(0.113999999999993,-2.00000000000027E-6,0.09824999882701));
#1385=CARTESIAN_POINT('',(0.11900000117298,-2.00000000000027E-6,0.09824999882701));
#1386=CARTESIAN_POINT('',(0.11900000117298,-2.00000000000027E-6,0.10325));
#1387=CARTESIAN_POINT('',(0.130499999999995,-2.00000000000027E-6,0.10325));
#1388=CARTESIAN_POINT('',(0.14199999882701,-2.00000000000027E-6,0.103249999999997));
#1389=CARTESIAN_POINT('',(0.14199999882701,-2.00000000000027E-6,0.09824999882701));
#1390=CARTESIAN_POINT('',(0.147,-2.00000000000027E-6,0.09824999882701));
#1391=CARTESIAN_POINT('',(0.147,-2.00000000000027E-6,0.086749999999995));
#1392=CARTESIAN_POINT('',(0.146999999999997,-2.00000000000027E-6,0.07525000117298));
#1393=CARTESIAN_POINT('',(0.14199999882701,-2.00000000000027E-6,0.07525000117298));
#1394=CARTESIAN_POINT('',(0.14199999882701,-2.00000000000027E-6,0.070249999999993));
#1395=CARTESIAN_POINT('',(0.130499999999995,-2.00000000000027E-6,0.07025));
#1396=CARTESIAN_POINT('',(0.11900000117298,-2.00000000000027E-6,0.070249999999993));
#1397=CARTESIAN_POINT('',(0.11900000117298,-2.00000000000027E-6,0.07525000117298));
#1398=MECHANICAL_DESIGN_GEOMETRIC_PRESENTATION_REPRESENTATION('',(#795),
#1399);
#1399=(
GEOMETRIC_REPRESENTATION_CONTEXT(3)
GLOBAL_UNCERTAINTY_ASSIGNED_CONTEXT((#1400))
GLOBAL_UNIT_ASSIGNED_CONTEXT((#1403,#1402,#1401))
REPRESENTATION_CONTEXT('case front','TOP_LEVEL_ASSEMBLY_PART')
);
#1400=UNCERTAINTY_MEASURE_WITH_UNIT(LENGTH_MEASURE(1.E-8),#1403,
'DISTANCE_ACCURACY_VALUE','Maximum Tolerance applied to model');
#1401=(
NAMED_UNIT(*)
SI_UNIT($,.STERADIAN.)
SOLID_ANGLE_UNIT()
);
#1402=(
NAMED_UNIT(*)
PLANE_ANGLE_UNIT()
SI_UNIT($,.RADIAN.)
);
#1403=(
LENGTH_UNIT()
NAMED_UNIT(*)
SI_UNIT($,.METRE.)
);
#1404=PRODUCT_DEFINITION_SHAPE('','',#1405);
#1405=PRODUCT_DEFINITION('','',#1407,#1406);
#1406=PRODUCT_DEFINITION_CONTEXT('',#1413,'design');
#1407=PRODUCT_DEFINITION_FORMATION_WITH_SPECIFIED_SOURCE('','',#1409,
 .NOT_KNOWN.);
#1408=PRODUCT_RELATED_PRODUCT_CATEGORY('','',(#1409));
#1409=PRODUCT('case front','case front','case front',(#1411));
#1410=PRODUCT_CATEGORY('','');
#1411=PRODUCT_CONTEXT('',#1413,'mechanical');
#1412=APPLICATION_PROTOCOL_DEFINITION('international standard',
'ap242_managed_model_based_3d_engineering',2020,#1413);
#1413=APPLICATION_CONTEXT('managed model based 3d engineering');
ENDSEC;
END-ISO-10303-21;
