ISO-10303-21;
HEADER;
/* Generated by software containing ST-Developer
 * from STEP Tools, Inc. (www.steptools.com) 
 */
/* OPTION: using custom renumber hook */

FILE_DESCRIPTION(
/* description */ ('STEP AP242 Edition 2',
'CAx-IF Rec.Pracs.---Representation and Presentation of Product Manufa
cturing Information (PMI)---4.0---2014-10-13',
'CAx-IF Rec.Pracs.---3D Tessellated Geometry---0.4---2014-09-14','2;1',
'CAx-IF Rec.Pracs.---User Defined Attributes---1.5---2016-08-15'),
/* implementation_level */ '2;1');

FILE_NAME(
/* name */ 'Part Studio 1 - light mask',
/* time_stamp */ '2026-09-27T17:21:58Z',
/* author */ (''),
/* organization */ (''),
/* preprocessor_version */ 'ST-DEVELOPER v20',
/* originating_system */ 'ONSHAPE BY PTC INC, 1.221',
/* authorisation */ '  ');

FILE_SCHEMA (('AP242_MANAGED_MODEL_BASED_3D_ENGINEERING_MIM_LF { 1 0 10303 442 3 1 4 }'));
ENDSEC;

DATA;
#10=SHAPE_REPRESENTATION_RELATIONSHIP('','',#605,#11);
#11=ADVANCED_BREP_SHAPE_REPRESENTATION('',(#603),#1001);
#12=CIRCLE('',#609,0.00400000117298699);
#13=CIRCLE('',#610,0.00400000117298699);
#14=CIRCLE('',#613,0.00400000117298699);
#15=CIRCLE('',#614,0.00400000117298699);
#16=CIRCLE('',#617,0.00400000117298699);
#17=CIRCLE('',#618,0.00400000117298699);
#18=CIRCLE('',#622,0.0065);
#19=CIRCLE('',#623,0.0065);
#20=CIRCLE('',#626,0.0065);
#21=CIRCLE('',#627,0.0065);
#22=CIRCLE('',#630,0.01);
#23=CIRCLE('',#631,0.01);
#24=CIRCLE('',#633,0.01);
#25=CIRCLE('',#634,0.01);
#26=CIRCLE('',#637,0.00400000117298699);
#27=CIRCLE('',#638,0.00400000117298699);
#28=CIRCLE('',#640,0.0025);
#29=CIRCLE('',#641,0.0025);
#30=CIRCLE('',#642,0.0025);
#31=CIRCLE('',#645,0.0025);
#32=CIRCLE('',#648,0.0025);
#33=CIRCLE('',#651,0.0025);
#34=CYLINDRICAL_SURFACE('',#608,0.00400000117298699);
#35=CYLINDRICAL_SURFACE('',#612,0.00400000117298699);
#36=CYLINDRICAL_SURFACE('',#616,0.00400000117298699);
#37=CYLINDRICAL_SURFACE('',#621,0.0065);
#38=CYLINDRICAL_SURFACE('',#625,0.0065);
#39=CYLINDRICAL_SURFACE('',#629,0.01);
#40=CYLINDRICAL_SURFACE('',#632,0.01);
#41=CYLINDRICAL_SURFACE('',#636,0.00400000117298699);
#42=CYLINDRICAL_SURFACE('',#644,0.0025);
#43=CYLINDRICAL_SURFACE('',#647,0.0025);
#44=CYLINDRICAL_SURFACE('',#650,0.0025);
#45=ORIENTED_EDGE('',*,*,#201,.F.);
#46=ORIENTED_EDGE('',*,*,#202,.F.);
#47=ORIENTED_EDGE('',*,*,#203,.T.);
#48=ORIENTED_EDGE('',*,*,#204,.T.);
#49=ORIENTED_EDGE('',*,*,#205,.F.);
#50=ORIENTED_EDGE('',*,*,#204,.F.);
#51=ORIENTED_EDGE('',*,*,#206,.T.);
#52=ORIENTED_EDGE('',*,*,#207,.T.);
#53=ORIENTED_EDGE('',*,*,#208,.F.);
#54=ORIENTED_EDGE('',*,*,#207,.F.);
#55=ORIENTED_EDGE('',*,*,#209,.T.);
#56=ORIENTED_EDGE('',*,*,#210,.T.);
#57=ORIENTED_EDGE('',*,*,#211,.F.);
#58=ORIENTED_EDGE('',*,*,#210,.F.);
#59=ORIENTED_EDGE('',*,*,#212,.T.);
#60=ORIENTED_EDGE('',*,*,#213,.T.);
#61=ORIENTED_EDGE('',*,*,#214,.F.);
#62=ORIENTED_EDGE('',*,*,#213,.F.);
#63=ORIENTED_EDGE('',*,*,#215,.T.);
#64=ORIENTED_EDGE('',*,*,#216,.T.);
#65=ORIENTED_EDGE('',*,*,#217,.F.);
#66=ORIENTED_EDGE('',*,*,#216,.F.);
#67=ORIENTED_EDGE('',*,*,#218,.T.);
#68=ORIENTED_EDGE('',*,*,#219,.T.);
#69=ORIENTED_EDGE('',*,*,#220,.F.);
#70=ORIENTED_EDGE('',*,*,#219,.F.);
#71=ORIENTED_EDGE('',*,*,#221,.T.);
#72=ORIENTED_EDGE('',*,*,#222,.T.);
#73=ORIENTED_EDGE('',*,*,#223,.T.);
#74=ORIENTED_EDGE('',*,*,#224,.F.);
#75=ORIENTED_EDGE('',*,*,#225,.F.);
#76=ORIENTED_EDGE('',*,*,#226,.T.);
#77=ORIENTED_EDGE('',*,*,#227,.F.);
#78=ORIENTED_EDGE('',*,*,#226,.F.);
#79=ORIENTED_EDGE('',*,*,#228,.T.);
#80=ORIENTED_EDGE('',*,*,#229,.T.);
#81=ORIENTED_EDGE('',*,*,#230,.F.);
#82=ORIENTED_EDGE('',*,*,#229,.F.);
#83=ORIENTED_EDGE('',*,*,#231,.T.);
#84=ORIENTED_EDGE('',*,*,#232,.T.);
#85=ORIENTED_EDGE('',*,*,#233,.F.);
#86=ORIENTED_EDGE('',*,*,#234,.F.);
#87=ORIENTED_EDGE('',*,*,#235,.T.);
#88=ORIENTED_EDGE('',*,*,#236,.T.);
#89=ORIENTED_EDGE('',*,*,#237,.F.);
#90=ORIENTED_EDGE('',*,*,#236,.F.);
#91=ORIENTED_EDGE('',*,*,#238,.T.);
#92=ORIENTED_EDGE('',*,*,#239,.T.);
#93=ORIENTED_EDGE('',*,*,#240,.T.);
#94=ORIENTED_EDGE('',*,*,#239,.F.);
#95=ORIENTED_EDGE('',*,*,#241,.F.);
#96=ORIENTED_EDGE('',*,*,#242,.T.);
#97=ORIENTED_EDGE('',*,*,#243,.T.);
#98=ORIENTED_EDGE('',*,*,#232,.F.);
#99=ORIENTED_EDGE('',*,*,#244,.F.);
#100=ORIENTED_EDGE('',*,*,#224,.T.);
#101=ORIENTED_EDGE('',*,*,#245,.T.);
#102=ORIENTED_EDGE('',*,*,#242,.F.);
#103=ORIENTED_EDGE('',*,*,#246,.F.);
#104=ORIENTED_EDGE('',*,*,#234,.T.);
#105=ORIENTED_EDGE('',*,*,#247,.F.);
#106=ORIENTED_EDGE('',*,*,#222,.F.);
#107=ORIENTED_EDGE('',*,*,#248,.T.);
#108=ORIENTED_EDGE('',*,*,#202,.T.);
#109=ORIENTED_EDGE('',*,*,#249,.F.);
#110=ORIENTED_EDGE('',*,*,#250,.T.);
#111=ORIENTED_EDGE('',*,*,#251,.T.);
#112=ORIENTED_EDGE('',*,*,#252,.F.);
#113=ORIENTED_EDGE('',*,*,#253,.F.);
#114=ORIENTED_EDGE('',*,*,#254,.T.);
#115=ORIENTED_EDGE('',*,*,#255,.T.);
#116=ORIENTED_EDGE('',*,*,#256,.F.);
#117=ORIENTED_EDGE('',*,*,#257,.T.);
#118=ORIENTED_EDGE('',*,*,#258,.T.);
#119=ORIENTED_EDGE('',*,*,#259,.T.);
#120=ORIENTED_EDGE('',*,*,#235,.F.);
#121=ORIENTED_EDGE('',*,*,#246,.T.);
#122=ORIENTED_EDGE('',*,*,#241,.T.);
#123=ORIENTED_EDGE('',*,*,#238,.F.);
#124=ORIENTED_EDGE('',*,*,#225,.T.);
#125=ORIENTED_EDGE('',*,*,#244,.T.);
#126=ORIENTED_EDGE('',*,*,#231,.F.);
#127=ORIENTED_EDGE('',*,*,#228,.F.);
#128=ORIENTED_EDGE('',*,*,#203,.F.);
#129=ORIENTED_EDGE('',*,*,#248,.F.);
#130=ORIENTED_EDGE('',*,*,#221,.F.);
#131=ORIENTED_EDGE('',*,*,#218,.F.);
#132=ORIENTED_EDGE('',*,*,#215,.F.);
#133=ORIENTED_EDGE('',*,*,#212,.F.);
#134=ORIENTED_EDGE('',*,*,#209,.F.);
#135=ORIENTED_EDGE('',*,*,#206,.F.);
#136=ORIENTED_EDGE('',*,*,#233,.T.);
#137=ORIENTED_EDGE('',*,*,#237,.T.);
#138=ORIENTED_EDGE('',*,*,#240,.F.);
#139=ORIENTED_EDGE('',*,*,#245,.F.);
#140=ORIENTED_EDGE('',*,*,#223,.F.);
#141=ORIENTED_EDGE('',*,*,#227,.T.);
#142=ORIENTED_EDGE('',*,*,#230,.T.);
#143=ORIENTED_EDGE('',*,*,#243,.F.);
#144=ORIENTED_EDGE('',*,*,#201,.T.);
#145=ORIENTED_EDGE('',*,*,#205,.T.);
#146=ORIENTED_EDGE('',*,*,#208,.T.);
#147=ORIENTED_EDGE('',*,*,#211,.T.);
#148=ORIENTED_EDGE('',*,*,#214,.T.);
#149=ORIENTED_EDGE('',*,*,#217,.T.);
#150=ORIENTED_EDGE('',*,*,#220,.T.);
#151=ORIENTED_EDGE('',*,*,#247,.T.);
#152=ORIENTED_EDGE('',*,*,#260,.F.);
#153=ORIENTED_EDGE('',*,*,#259,.F.);
#154=ORIENTED_EDGE('',*,*,#260,.T.);
#155=ORIENTED_EDGE('',*,*,#261,.F.);
#156=ORIENTED_EDGE('',*,*,#258,.F.);
#157=ORIENTED_EDGE('',*,*,#261,.T.);
#158=ORIENTED_EDGE('',*,*,#262,.F.);
#159=ORIENTED_EDGE('',*,*,#257,.F.);
#160=ORIENTED_EDGE('',*,*,#262,.T.);
#161=ORIENTED_EDGE('',*,*,#254,.F.);
#162=ORIENTED_EDGE('',*,*,#263,.F.);
#163=ORIENTED_EDGE('',*,*,#264,.F.);
#164=ORIENTED_EDGE('',*,*,#265,.T.);
#165=ORIENTED_EDGE('',*,*,#263,.T.);
#166=ORIENTED_EDGE('',*,*,#253,.T.);
#167=ORIENTED_EDGE('',*,*,#266,.F.);
#168=ORIENTED_EDGE('',*,*,#267,.T.);
#169=ORIENTED_EDGE('',*,*,#255,.F.);
#170=ORIENTED_EDGE('',*,*,#265,.F.);
#171=ORIENTED_EDGE('',*,*,#268,.F.);
#172=ORIENTED_EDGE('',*,*,#269,.T.);
#173=ORIENTED_EDGE('',*,*,#266,.T.);
#174=ORIENTED_EDGE('',*,*,#256,.T.);
#175=ORIENTED_EDGE('',*,*,#269,.F.);
#176=ORIENTED_EDGE('',*,*,#270,.T.);
#177=ORIENTED_EDGE('',*,*,#270,.F.);
#178=ORIENTED_EDGE('',*,*,#268,.T.);
#179=ORIENTED_EDGE('',*,*,#264,.T.);
#180=ORIENTED_EDGE('',*,*,#267,.F.);
#181=ORIENTED_EDGE('',*,*,#250,.F.);
#182=ORIENTED_EDGE('',*,*,#271,.F.);
#183=ORIENTED_EDGE('',*,*,#272,.F.);
#184=ORIENTED_EDGE('',*,*,#273,.T.);
#185=ORIENTED_EDGE('',*,*,#271,.T.);
#186=ORIENTED_EDGE('',*,*,#249,.T.);
#187=ORIENTED_EDGE('',*,*,#274,.F.);
#188=ORIENTED_EDGE('',*,*,#275,.T.);
#189=ORIENTED_EDGE('',*,*,#251,.F.);
#190=ORIENTED_EDGE('',*,*,#273,.F.);
#191=ORIENTED_EDGE('',*,*,#276,.F.);
#192=ORIENTED_EDGE('',*,*,#277,.T.);
#193=ORIENTED_EDGE('',*,*,#274,.T.);
#194=ORIENTED_EDGE('',*,*,#252,.T.);
#195=ORIENTED_EDGE('',*,*,#277,.F.);
#196=ORIENTED_EDGE('',*,*,#278,.T.);
#197=ORIENTED_EDGE('',*,*,#278,.F.);
#198=ORIENTED_EDGE('',*,*,#276,.T.);
#199=ORIENTED_EDGE('',*,*,#272,.T.);
#200=ORIENTED_EDGE('',*,*,#275,.F.);
#201=EDGE_CURVE('',#279,#280,#333,.T.);
#202=EDGE_CURVE('',#281,#279,#334,.T.);
#203=EDGE_CURVE('',#281,#282,#335,.T.);
#204=EDGE_CURVE('',#282,#280,#336,.T.);
#205=EDGE_CURVE('',#280,#283,#12,.T.);
#206=EDGE_CURVE('',#282,#284,#13,.T.);
#207=EDGE_CURVE('',#284,#283,#337,.T.);
#208=EDGE_CURVE('',#283,#285,#338,.T.);
#209=EDGE_CURVE('',#284,#286,#339,.T.);
#210=EDGE_CURVE('',#286,#285,#340,.T.);
#211=EDGE_CURVE('',#285,#287,#14,.T.);
#212=EDGE_CURVE('',#286,#288,#15,.T.);
#213=EDGE_CURVE('',#288,#287,#341,.T.);
#214=EDGE_CURVE('',#287,#289,#342,.T.);
#215=EDGE_CURVE('',#288,#290,#343,.T.);
#216=EDGE_CURVE('',#290,#289,#344,.T.);
#217=EDGE_CURVE('',#289,#291,#16,.T.);
#218=EDGE_CURVE('',#290,#292,#17,.T.);
#219=EDGE_CURVE('',#292,#291,#345,.T.);
#220=EDGE_CURVE('',#291,#293,#346,.T.);
#221=EDGE_CURVE('',#292,#294,#347,.T.);
#222=EDGE_CURVE('',#294,#293,#348,.T.);
#223=EDGE_CURVE('',#295,#296,#349,.T.);
#224=EDGE_CURVE('',#297,#296,#350,.T.);
#225=EDGE_CURVE('',#298,#297,#351,.T.);
#226=EDGE_CURVE('',#298,#295,#352,.T.);
#227=EDGE_CURVE('',#295,#299,#18,.T.);
#228=EDGE_CURVE('',#298,#300,#19,.T.);
#229=EDGE_CURVE('',#300,#299,#353,.T.);
#230=EDGE_CURVE('',#299,#301,#354,.T.);
#231=EDGE_CURVE('',#300,#302,#355,.T.);
#232=EDGE_CURVE('',#302,#301,#356,.T.);
#233=EDGE_CURVE('',#303,#304,#20,.T.);
#234=EDGE_CURVE('',#305,#303,#357,.T.);
#235=EDGE_CURVE('',#305,#306,#21,.T.);
#236=EDGE_CURVE('',#306,#304,#358,.T.);
#237=EDGE_CURVE('',#304,#307,#359,.T.);
#238=EDGE_CURVE('',#306,#308,#360,.T.);
#239=EDGE_CURVE('',#308,#307,#361,.T.);
#240=EDGE_CURVE('',#309,#307,#22,.T.);
#241=EDGE_CURVE('',#310,#308,#23,.T.);
#242=EDGE_CURVE('',#310,#309,#362,.T.);
#243=EDGE_CURVE('',#296,#301,#24,.T.);
#244=EDGE_CURVE('',#297,#302,#25,.T.);
#245=EDGE_CURVE('',#303,#309,#363,.T.);
#246=EDGE_CURVE('',#305,#310,#364,.T.);
#247=EDGE_CURVE('',#293,#279,#26,.T.);
#248=EDGE_CURVE('',#294,#281,#27,.T.);
#249=EDGE_CURVE('',#311,#312,#365,.T.);
#250=EDGE_CURVE('',#311,#313,#366,.T.);
#251=EDGE_CURVE('',#313,#314,#367,.T.);
#252=EDGE_CURVE('',#312,#314,#368,.T.);
#253=EDGE_CURVE('',#315,#316,#369,.T.);
#254=EDGE_CURVE('',#315,#317,#370,.T.);
#255=EDGE_CURVE('',#317,#318,#371,.T.);
#256=EDGE_CURVE('',#316,#318,#372,.T.);
#257=EDGE_CURVE('',#319,#319,#28,.T.);
#258=EDGE_CURVE('',#320,#320,#29,.T.);
#259=EDGE_CURVE('',#321,#321,#30,.T.);
#260=EDGE_CURVE('',#322,#322,#31,.F.);
#261=EDGE_CURVE('',#323,#323,#32,.F.);
#262=EDGE_CURVE('',#324,#324,#33,.F.);
#263=EDGE_CURVE('',#325,#315,#373,.T.);
#264=EDGE_CURVE('',#326,#325,#374,.T.);
#265=EDGE_CURVE('',#326,#317,#375,.T.);
#266=EDGE_CURVE('',#327,#316,#376,.T.);
#267=EDGE_CURVE('',#327,#325,#377,.T.);
#268=EDGE_CURVE('',#328,#326,#378,.T.);
#269=EDGE_CURVE('',#328,#318,#379,.T.);
#270=EDGE_CURVE('',#328,#327,#380,.T.);
#271=EDGE_CURVE('',#329,#311,#381,.T.);
#272=EDGE_CURVE('',#330,#329,#382,.T.);
#273=EDGE_CURVE('',#330,#313,#383,.T.);
#274=EDGE_CURVE('',#331,#312,#384,.T.);
#275=EDGE_CURVE('',#331,#329,#385,.T.);
#276=EDGE_CURVE('',#332,#330,#386,.T.);
#277=EDGE_CURVE('',#332,#314,#387,.T.);
#278=EDGE_CURVE('',#332,#331,#388,.T.);
#279=VERTEX_POINT('',#836);
#280=VERTEX_POINT('',#837);
#281=VERTEX_POINT('',#839);
#282=VERTEX_POINT('',#841);
#283=VERTEX_POINT('',#845);
#284=VERTEX_POINT('',#847);
#285=VERTEX_POINT('',#851);
#286=VERTEX_POINT('',#853);
#287=VERTEX_POINT('',#857);
#288=VERTEX_POINT('',#859);
#289=VERTEX_POINT('',#863);
#290=VERTEX_POINT('',#865);
#291=VERTEX_POINT('',#869);
#292=VERTEX_POINT('',#871);
#293=VERTEX_POINT('',#875);
#294=VERTEX_POINT('',#877);
#295=VERTEX_POINT('',#881);
#296=VERTEX_POINT('',#882);
#297=VERTEX_POINT('',#884);
#298=VERTEX_POINT('',#886);
#299=VERTEX_POINT('',#890);
#300=VERTEX_POINT('',#892);
#301=VERTEX_POINT('',#896);
#302=VERTEX_POINT('',#898);
#303=VERTEX_POINT('',#902);
#304=VERTEX_POINT('',#903);
#305=VERTEX_POINT('',#905);
#306=VERTEX_POINT('',#907);
#307=VERTEX_POINT('',#911);
#308=VERTEX_POINT('',#913);
#309=VERTEX_POINT('',#917);
#310=VERTEX_POINT('',#919);
#311=VERTEX_POINT('',#932);
#312=VERTEX_POINT('',#933);
#313=VERTEX_POINT('',#935);
#314=VERTEX_POINT('',#937);
#315=VERTEX_POINT('',#940);
#316=VERTEX_POINT('',#941);
#317=VERTEX_POINT('',#943);
#318=VERTEX_POINT('',#945);
#319=VERTEX_POINT('',#948);
#320=VERTEX_POINT('',#950);
#321=VERTEX_POINT('',#952);
#322=VERTEX_POINT('',#956);
#323=VERTEX_POINT('',#960);
#324=VERTEX_POINT('',#964);
#325=VERTEX_POINT('',#968);
#326=VERTEX_POINT('',#970);
#327=VERTEX_POINT('',#974);
#328=VERTEX_POINT('',#978);
#329=VERTEX_POINT('',#985);
#330=VERTEX_POINT('',#987);
#331=VERTEX_POINT('',#991);
#332=VERTEX_POINT('',#995);
#333=LINE('',#835,#389);
#334=LINE('',#838,#390);
#335=LINE('',#840,#391);
#336=LINE('',#842,#392);
#337=LINE('',#848,#393);
#338=LINE('',#850,#394);
#339=LINE('',#852,#395);
#340=LINE('',#854,#396);
#341=LINE('',#860,#397);
#342=LINE('',#862,#398);
#343=LINE('',#864,#399);
#344=LINE('',#866,#400);
#345=LINE('',#872,#401);
#346=LINE('',#874,#402);
#347=LINE('',#876,#403);
#348=LINE('',#878,#404);
#349=LINE('',#880,#405);
#350=LINE('',#883,#406);
#351=LINE('',#885,#407);
#352=LINE('',#887,#408);
#353=LINE('',#893,#409);
#354=LINE('',#895,#410);
#355=LINE('',#897,#411);
#356=LINE('',#899,#412);
#357=LINE('',#904,#413);
#358=LINE('',#908,#414);
#359=LINE('',#910,#415);
#360=LINE('',#912,#416);
#361=LINE('',#914,#417);
#362=LINE('',#920,#418);
#363=LINE('',#925,#419);
#364=LINE('',#926,#420);
#365=LINE('',#931,#421);
#366=LINE('',#934,#422);
#367=LINE('',#936,#423);
#368=LINE('',#938,#424);
#369=LINE('',#939,#425);
#370=LINE('',#942,#426);
#371=LINE('',#944,#427);
#372=LINE('',#946,#428);
#373=LINE('',#967,#429);
#374=LINE('',#969,#430);
#375=LINE('',#971,#431);
#376=LINE('',#973,#432);
#377=LINE('',#975,#433);
#378=LINE('',#977,#434);
#379=LINE('',#979,#435);
#380=LINE('',#981,#436);
#381=LINE('',#984,#437);
#382=LINE('',#986,#438);
#383=LINE('',#988,#439);
#384=LINE('',#990,#440);
#385=LINE('',#992,#441);
#386=LINE('',#994,#442);
#387=LINE('',#996,#443);
#388=LINE('',#998,#444);
#389=VECTOR('',#667,1.);
#390=VECTOR('',#668,1.);
#391=VECTOR('',#669,1.);
#392=VECTOR('',#670,1.);
#393=VECTOR('',#677,1.);
#394=VECTOR('',#680,1.);
#395=VECTOR('',#681,1.);
#396=VECTOR('',#682,1.);
#397=VECTOR('',#689,1.);
#398=VECTOR('',#692,1.);
#399=VECTOR('',#693,1.);
#400=VECTOR('',#694,1.);
#401=VECTOR('',#701,1.);
#402=VECTOR('',#704,1.);
#403=VECTOR('',#705,1.);
#404=VECTOR('',#706,1.);
#405=VECTOR('',#709,1.);
#406=VECTOR('',#710,1.);
#407=VECTOR('',#711,1.);
#408=VECTOR('',#712,1.);
#409=VECTOR('',#719,1.);
#410=VECTOR('',#722,1.);
#411=VECTOR('',#723,1.);
#412=VECTOR('',#724,1.);
#413=VECTOR('',#729,1.);
#414=VECTOR('',#732,1.);
#415=VECTOR('',#735,1.);
#416=VECTOR('',#736,1.);
#417=VECTOR('',#737,1.);
#418=VECTOR('',#744,1.);
#419=VECTOR('',#753,1.);
#420=VECTOR('',#754,1.);
#421=VECTOR('',#763,1.);
#422=VECTOR('',#764,1.);
#423=VECTOR('',#765,1.);
#424=VECTOR('',#766,1.);
#425=VECTOR('',#767,1.);
#426=VECTOR('',#768,1.);
#427=VECTOR('',#769,1.);
#428=VECTOR('',#770,1.);
#429=VECTOR('',#799,1.);
#430=VECTOR('',#800,1.);
#431=VECTOR('',#801,1.);
#432=VECTOR('',#804,1.);
#433=VECTOR('',#805,1.);
#434=VECTOR('',#808,1.);
#435=VECTOR('',#809,1.);
#436=VECTOR('',#812,1.);
#437=VECTOR('',#817,1.);
#438=VECTOR('',#818,1.);
#439=VECTOR('',#819,1.);
#440=VECTOR('',#822,1.);
#441=VECTOR('',#823,1.);
#442=VECTOR('',#826,1.);
#443=VECTOR('',#827,1.);
#444=VECTOR('',#830,1.);
#445=EDGE_LOOP('',(#45,#46,#47,#48));
#446=EDGE_LOOP('',(#49,#50,#51,#52));
#447=EDGE_LOOP('',(#53,#54,#55,#56));
#448=EDGE_LOOP('',(#57,#58,#59,#60));
#449=EDGE_LOOP('',(#61,#62,#63,#64));
#450=EDGE_LOOP('',(#65,#66,#67,#68));
#451=EDGE_LOOP('',(#69,#70,#71,#72));
#452=EDGE_LOOP('',(#73,#74,#75,#76));
#453=EDGE_LOOP('',(#77,#78,#79,#80));
#454=EDGE_LOOP('',(#81,#82,#83,#84));
#455=EDGE_LOOP('',(#85,#86,#87,#88));
#456=EDGE_LOOP('',(#89,#90,#91,#92));
#457=EDGE_LOOP('',(#93,#94,#95,#96));
#458=EDGE_LOOP('',(#97,#98,#99,#100));
#459=EDGE_LOOP('',(#101,#102,#103,#104));
#460=EDGE_LOOP('',(#105,#106,#107,#108));
#461=EDGE_LOOP('',(#109,#110,#111,#112));
#462=EDGE_LOOP('',(#113,#114,#115,#116));
#463=EDGE_LOOP('',(#117));
#464=EDGE_LOOP('',(#118));
#465=EDGE_LOOP('',(#119));
#466=EDGE_LOOP('',(#120,#121,#122,#123));
#467=EDGE_LOOP('',(#124,#125,#126,#127));
#468=EDGE_LOOP('',(#128,#129,#130,#131,#132,#133,#134,#135));
#469=EDGE_LOOP('',(#136,#137,#138,#139));
#470=EDGE_LOOP('',(#140,#141,#142,#143));
#471=EDGE_LOOP('',(#144,#145,#146,#147,#148,#149,#150,#151));
#472=EDGE_LOOP('',(#152));
#473=EDGE_LOOP('',(#153));
#474=EDGE_LOOP('',(#154));
#475=EDGE_LOOP('',(#155));
#476=EDGE_LOOP('',(#156));
#477=EDGE_LOOP('',(#157));
#478=EDGE_LOOP('',(#158));
#479=EDGE_LOOP('',(#159));
#480=EDGE_LOOP('',(#160));
#481=EDGE_LOOP('',(#161,#162,#163,#164));
#482=EDGE_LOOP('',(#165,#166,#167,#168));
#483=EDGE_LOOP('',(#169,#170,#171,#172));
#484=EDGE_LOOP('',(#173,#174,#175,#176));
#485=EDGE_LOOP('',(#177,#178,#179,#180));
#486=EDGE_LOOP('',(#181,#182,#183,#184));
#487=EDGE_LOOP('',(#185,#186,#187,#188));
#488=EDGE_LOOP('',(#189,#190,#191,#192));
#489=EDGE_LOOP('',(#193,#194,#195,#196));
#490=EDGE_LOOP('',(#197,#198,#199,#200));
#491=FACE_BOUND('',#445,.T.);
#492=FACE_BOUND('',#446,.T.);
#493=FACE_BOUND('',#447,.T.);
#494=FACE_BOUND('',#448,.T.);
#495=FACE_BOUND('',#449,.T.);
#496=FACE_BOUND('',#450,.T.);
#497=FACE_BOUND('',#451,.T.);
#498=FACE_BOUND('',#452,.T.);
#499=FACE_BOUND('',#453,.T.);
#500=FACE_BOUND('',#454,.T.);
#501=FACE_BOUND('',#455,.T.);
#502=FACE_BOUND('',#456,.T.);
#503=FACE_BOUND('',#457,.T.);
#504=FACE_BOUND('',#458,.T.);
#505=FACE_BOUND('',#459,.T.);
#506=FACE_BOUND('',#460,.T.);
#507=FACE_BOUND('',#461,.T.);
#508=FACE_BOUND('',#462,.T.);
#509=FACE_BOUND('',#463,.T.);
#510=FACE_BOUND('',#464,.T.);
#511=FACE_BOUND('',#465,.T.);
#512=FACE_BOUND('',#466,.T.);
#513=FACE_BOUND('',#467,.T.);
#514=FACE_BOUND('',#468,.T.);
#515=FACE_BOUND('',#469,.T.);
#516=FACE_BOUND('',#470,.T.);
#517=FACE_BOUND('',#471,.T.);
#518=FACE_BOUND('',#472,.T.);
#519=FACE_BOUND('',#473,.T.);
#520=FACE_BOUND('',#474,.T.);
#521=FACE_BOUND('',#475,.T.);
#522=FACE_BOUND('',#476,.T.);
#523=FACE_BOUND('',#477,.T.);
#524=FACE_BOUND('',#478,.T.);
#525=FACE_BOUND('',#479,.T.);
#526=FACE_BOUND('',#480,.T.);
#527=FACE_BOUND('',#481,.T.);
#528=FACE_BOUND('',#482,.T.);
#529=FACE_BOUND('',#483,.T.);
#530=FACE_BOUND('',#484,.T.);
#531=FACE_BOUND('',#485,.T.);
#532=FACE_BOUND('',#486,.T.);
#533=FACE_BOUND('',#487,.T.);
#534=FACE_BOUND('',#488,.T.);
#535=FACE_BOUND('',#489,.T.);
#536=FACE_BOUND('',#490,.T.);
#537=PLANE('',#607);
#538=PLANE('',#611);
#539=PLANE('',#615);
#540=PLANE('',#619);
#541=PLANE('',#620);
#542=PLANE('',#624);
#543=PLANE('',#628);
#544=PLANE('',#635);
#545=PLANE('',#639);
#546=PLANE('',#643);
#547=PLANE('',#646);
#548=PLANE('',#649);
#549=PLANE('',#652);
#550=PLANE('',#653);
#551=PLANE('',#654);
#552=PLANE('',#655);
#553=PLANE('',#656);
#554=PLANE('',#657);
#555=PLANE('',#658);
#556=PLANE('',#659);
#557=PLANE('',#660);
#558=PLANE('',#661);
#559=PLANE('',#662);
#560=ADVANCED_FACE('',(#491),#537,.T.);
#561=ADVANCED_FACE('',(#492),#34,.T.);
#562=ADVANCED_FACE('',(#493),#538,.T.);
#563=ADVANCED_FACE('',(#494),#35,.T.);
#564=ADVANCED_FACE('',(#495),#539,.T.);
#565=ADVANCED_FACE('',(#496),#36,.T.);
#566=ADVANCED_FACE('',(#497),#540,.T.);
#567=ADVANCED_FACE('',(#498),#541,.F.);
#568=ADVANCED_FACE('',(#499),#37,.T.);
#569=ADVANCED_FACE('',(#500),#542,.T.);
#570=ADVANCED_FACE('',(#501),#38,.T.);
#571=ADVANCED_FACE('',(#502),#543,.T.);
#572=ADVANCED_FACE('',(#503),#39,.F.);
#573=ADVANCED_FACE('',(#504),#40,.F.);
#574=ADVANCED_FACE('',(#505),#544,.F.);
#575=ADVANCED_FACE('',(#506),#41,.T.);
#576=ADVANCED_FACE('',(#507,#508,#509,#510,#511,#512,#513,#514),#545,.F.);
#577=ADVANCED_FACE('',(#515,#516,#517),#546,.T.);
#578=ADVANCED_FACE('',(#518,#519),#42,.T.);
#579=ADVANCED_FACE('',(#520),#547,.F.);
#580=ADVANCED_FACE('',(#521,#522),#43,.T.);
#581=ADVANCED_FACE('',(#523),#548,.F.);
#582=ADVANCED_FACE('',(#524,#525),#44,.T.);
#583=ADVANCED_FACE('',(#526),#549,.F.);
#584=ADVANCED_FACE('',(#527),#550,.T.);
#585=ADVANCED_FACE('',(#528),#551,.F.);
#586=ADVANCED_FACE('',(#529),#552,.T.);
#587=ADVANCED_FACE('',(#530),#553,.F.);
#588=ADVANCED_FACE('',(#531),#554,.F.);
#589=ADVANCED_FACE('',(#532),#555,.T.);
#590=ADVANCED_FACE('',(#533),#556,.F.);
#591=ADVANCED_FACE('',(#534),#557,.T.);
#592=ADVANCED_FACE('',(#535),#558,.F.);
#593=ADVANCED_FACE('',(#536),#559,.F.);
#594=CLOSED_SHELL('',(#560,#561,#562,#563,#564,#565,#566,#567,#568,#569,
#570,#571,#572,#573,#574,#575,#576,#577,#578,#579,#580,#581,#582,#583,#584,
#585,#586,#587,#588,#589,#590,#591,#592,#593));
#595=STYLED_ITEM('',(#596),#603);
#596=PRESENTATION_STYLE_ASSIGNMENT((#597));
#597=SURFACE_STYLE_USAGE(.BOTH.,#598);
#598=SURFACE_SIDE_STYLE('',(#599));
#599=SURFACE_STYLE_FILL_AREA(#600);
#600=FILL_AREA_STYLE('',(#601));
#601=FILL_AREA_STYLE_COLOUR('',#602);
#602=DRAUGHTING_PRE_DEFINED_COLOUR('white');
#603=MANIFOLD_SOLID_BREP('light mask',#594);
#604=SHAPE_DEFINITION_REPRESENTATION(#1006,#605);
#605=SHAPE_REPRESENTATION('light mask',(#606),#1001);
#606=AXIS2_PLACEMENT_3D('',#833,#663,#664);
#607=AXIS2_PLACEMENT_3D('',#834,#665,#666);
#608=AXIS2_PLACEMENT_3D('',#843,#671,#672);
#609=AXIS2_PLACEMENT_3D('',#844,#673,#674);
#610=AXIS2_PLACEMENT_3D('',#846,#675,#676);
#611=AXIS2_PLACEMENT_3D('',#849,#678,#679);
#612=AXIS2_PLACEMENT_3D('',#855,#683,#684);
#613=AXIS2_PLACEMENT_3D('',#856,#685,#686);
#614=AXIS2_PLACEMENT_3D('',#858,#687,#688);
#615=AXIS2_PLACEMENT_3D('',#861,#690,#691);
#616=AXIS2_PLACEMENT_3D('',#867,#695,#696);
#617=AXIS2_PLACEMENT_3D('',#868,#697,#698);
#618=AXIS2_PLACEMENT_3D('',#870,#699,#700);
#619=AXIS2_PLACEMENT_3D('',#873,#702,#703);
#620=AXIS2_PLACEMENT_3D('',#879,#707,#708);
#621=AXIS2_PLACEMENT_3D('',#888,#713,#714);
#622=AXIS2_PLACEMENT_3D('',#889,#715,#716);
#623=AXIS2_PLACEMENT_3D('',#891,#717,#718);
#624=AXIS2_PLACEMENT_3D('',#894,#720,#721);
#625=AXIS2_PLACEMENT_3D('',#900,#725,#726);
#626=AXIS2_PLACEMENT_3D('',#901,#727,#728);
#627=AXIS2_PLACEMENT_3D('',#906,#730,#731);
#628=AXIS2_PLACEMENT_3D('',#909,#733,#734);
#629=AXIS2_PLACEMENT_3D('',#915,#738,#739);
#630=AXIS2_PLACEMENT_3D('',#916,#740,#741);
#631=AXIS2_PLACEMENT_3D('',#918,#742,#743);
#632=AXIS2_PLACEMENT_3D('',#921,#745,#746);
#633=AXIS2_PLACEMENT_3D('',#922,#747,#748);
#634=AXIS2_PLACEMENT_3D('',#923,#749,#750);
#635=AXIS2_PLACEMENT_3D('',#924,#751,#752);
#636=AXIS2_PLACEMENT_3D('',#927,#755,#756);
#637=AXIS2_PLACEMENT_3D('',#928,#757,#758);
#638=AXIS2_PLACEMENT_3D('',#929,#759,#760);
#639=AXIS2_PLACEMENT_3D('',#930,#761,#762);
#640=AXIS2_PLACEMENT_3D('',#947,#771,#772);
#641=AXIS2_PLACEMENT_3D('',#949,#773,#774);
#642=AXIS2_PLACEMENT_3D('',#951,#775,#776);
#643=AXIS2_PLACEMENT_3D('',#953,#777,#778);
#644=AXIS2_PLACEMENT_3D('',#954,#779,#780);
#645=AXIS2_PLACEMENT_3D('',#955,#781,#782);
#646=AXIS2_PLACEMENT_3D('',#957,#783,#784);
#647=AXIS2_PLACEMENT_3D('',#958,#785,#786);
#648=AXIS2_PLACEMENT_3D('',#959,#787,#788);
#649=AXIS2_PLACEMENT_3D('',#961,#789,#790);
#650=AXIS2_PLACEMENT_3D('',#962,#791,#792);
#651=AXIS2_PLACEMENT_3D('',#963,#793,#794);
#652=AXIS2_PLACEMENT_3D('',#965,#795,#796);
#653=AXIS2_PLACEMENT_3D('',#966,#797,#798);
#654=AXIS2_PLACEMENT_3D('',#972,#802,#803);
#655=AXIS2_PLACEMENT_3D('',#976,#806,#807);
#656=AXIS2_PLACEMENT_3D('',#980,#810,#811);
#657=AXIS2_PLACEMENT_3D('',#982,#813,#814);
#658=AXIS2_PLACEMENT_3D('',#983,#815,#816);
#659=AXIS2_PLACEMENT_3D('',#989,#820,#821);
#660=AXIS2_PLACEMENT_3D('',#993,#824,#825);
#661=AXIS2_PLACEMENT_3D('',#997,#828,#829);
#662=AXIS2_PLACEMENT_3D('',#999,#831,#832);
#663=DIRECTION('',(0.,0.,1.));
#664=DIRECTION('',(1.,0.,0.));
#665=DIRECTION('',(0.,0.,-1.));
#666=DIRECTION('',(0.,1.,0.));
#667=DIRECTION('',(-1.,0.,0.));
#668=DIRECTION('',(0.,1.,0.));
#669=DIRECTION('',(-1.,0.,0.));
#670=DIRECTION('',(0.,1.,0.));
#671=DIRECTION('',(0.,1.,0.));
#672=DIRECTION('',(1.,0.,0.));
#673=DIRECTION('',(0.,1.,0.));
#674=DIRECTION('',(0.,0.,-1.));
#675=DIRECTION('',(0.,1.,0.));
#676=DIRECTION('',(0.,0.,-1.));
#677=DIRECTION('',(0.,1.,0.));
#678=DIRECTION('',(-1.,0.,0.));
#679=DIRECTION('',(0.,1.,0.));
#680=DIRECTION('',(0.,0.,1.));
#681=DIRECTION('',(0.,0.,1.));
#682=DIRECTION('',(0.,1.,0.));
#683=DIRECTION('',(0.,1.,0.));
#684=DIRECTION('',(1.,0.,0.));
#685=DIRECTION('',(0.,1.,0.));
#686=DIRECTION('',(-1.,0.,0.));
#687=DIRECTION('',(0.,1.,0.));
#688=DIRECTION('',(-1.,0.,0.));
#689=DIRECTION('',(0.,1.,0.));
#690=DIRECTION('',(0.,0.,1.));
#691=DIRECTION('',(0.,-1.,0.));
#692=DIRECTION('',(1.,0.,0.));
#693=DIRECTION('',(1.,0.,0.));
#694=DIRECTION('',(0.,1.,0.));
#695=DIRECTION('',(0.,1.,0.));
#696=DIRECTION('',(1.,0.,0.));
#697=DIRECTION('',(0.,1.,0.));
#698=DIRECTION('',(0.,0.,1.));
#699=DIRECTION('',(0.,1.,0.));
#700=DIRECTION('',(0.,0.,1.));
#701=DIRECTION('',(0.,1.,0.));
#702=DIRECTION('',(1.,0.,0.));
#703=DIRECTION('',(0.,-1.,0.));
#704=DIRECTION('',(0.,0.,-1.));
#705=DIRECTION('',(0.,0.,-1.));
#706=DIRECTION('',(0.,1.,0.));
#707=DIRECTION('',(0.,0.,-1.));
#708=DIRECTION('',(0.,1.,0.));
#709=DIRECTION('',(-1.,0.,0.));
#710=DIRECTION('',(0.,1.,0.));
#711=DIRECTION('',(-1.,0.,0.));
#712=DIRECTION('',(0.,1.,0.));
#713=DIRECTION('',(0.,1.,0.));
#714=DIRECTION('',(1.,0.,0.));
#715=DIRECTION('',(0.,1.,0.));
#716=DIRECTION('',(-0.97300851082104,0.,0.23076923076923));
#717=DIRECTION('',(0.,1.,0.));
#718=DIRECTION('',(-0.97300851082104,0.,0.23076923076923));
#719=DIRECTION('',(0.,1.,0.));
#720=DIRECTION('',(0.,0.,1.));
#721=DIRECTION('',(0.,-1.,0.));
#722=DIRECTION('',(1.,0.,0.));
#723=DIRECTION('',(1.,0.,0.));
#724=DIRECTION('',(0.,1.,0.));
#725=DIRECTION('',(0.,1.,0.));
#726=DIRECTION('',(1.,0.,0.));
#727=DIRECTION('',(0.,1.,0.));
#728=DIRECTION('',(0.97300851082104,0.,-0.230769230769232));
#729=DIRECTION('',(0.,1.,0.));
#730=DIRECTION('',(0.,1.,0.));
#731=DIRECTION('',(0.97300851082104,0.,-0.230769230769232));
#732=DIRECTION('',(0.,1.,0.));
#733=DIRECTION('',(0.,0.,-1.));
#734=DIRECTION('',(0.,1.,0.));
#735=DIRECTION('',(-1.,0.,0.));
#736=DIRECTION('',(-1.,0.,0.));
#737=DIRECTION('',(0.,1.,0.));
#738=DIRECTION('',(0.,1.,0.));
#739=DIRECTION('',(1.,0.,0.));
#740=DIRECTION('',(0.,1.,0.));
#741=DIRECTION('',(1.,0.,0.));
#742=DIRECTION('',(0.,1.,0.));
#743=DIRECTION('',(1.,0.,0.));
#744=DIRECTION('',(0.,1.,0.));
#745=DIRECTION('',(0.,1.,0.));
#746=DIRECTION('',(1.,0.,0.));
#747=DIRECTION('',(0.,1.,0.));
#748=DIRECTION('',(1.,0.,0.));
#749=DIRECTION('',(0.,1.,0.));
#750=DIRECTION('',(1.,0.,0.));
#751=DIRECTION('',(0.,0.,1.));
#752=DIRECTION('',(0.,-1.,0.));
#753=DIRECTION('',(1.,0.,0.));
#754=DIRECTION('',(1.,0.,0.));
#755=DIRECTION('',(0.,1.,0.));
#756=DIRECTION('',(1.,0.,0.));
#757=DIRECTION('',(0.,1.,0.));
#758=DIRECTION('',(1.,0.,0.));
#759=DIRECTION('',(0.,1.,0.));
#760=DIRECTION('',(1.,0.,0.));
#761=DIRECTION('',(0.,1.,0.));
#762=DIRECTION('',(1.,0.,0.));
#763=DIRECTION('',(1.,0.,0.));
#764=DIRECTION('',(0.,0.,1.));
#765=DIRECTION('',(1.,0.,0.));
#766=DIRECTION('',(0.,0.,1.));
#767=DIRECTION('',(1.,0.,0.));
#768=DIRECTION('',(0.,0.,1.));
#769=DIRECTION('',(1.,0.,0.));
#770=DIRECTION('',(0.,0.,1.));
#771=DIRECTION('',(0.,1.,0.));
#772=DIRECTION('',(1.,0.,0.));
#773=DIRECTION('',(0.,1.,0.));
#774=DIRECTION('',(1.,0.,0.));
#775=DIRECTION('',(0.,1.,0.));
#776=DIRECTION('',(1.,0.,0.));
#777=DIRECTION('',(0.,1.,0.));
#778=DIRECTION('',(1.,0.,0.));
#779=DIRECTION('',(0.,1.,0.));
#780=DIRECTION('',(1.,0.,0.));
#781=DIRECTION('',(0.,1.,0.));
#782=DIRECTION('',(1.,0.,0.));
#783=DIRECTION('',(0.,1.,0.));
#784=DIRECTION('',(1.,0.,0.));
#785=DIRECTION('',(0.,1.,0.));
#786=DIRECTION('',(1.,0.,0.));
#787=DIRECTION('',(0.,1.,0.));
#788=DIRECTION('',(1.,0.,0.));
#789=DIRECTION('',(0.,1.,0.));
#790=DIRECTION('',(1.,0.,0.));
#791=DIRECTION('',(0.,1.,0.));
#792=DIRECTION('',(1.,0.,0.));
#793=DIRECTION('',(0.,1.,0.));
#794=DIRECTION('',(1.,0.,0.));
#795=DIRECTION('',(0.,1.,0.));
#796=DIRECTION('',(1.,0.,0.));
#797=DIRECTION('',(-1.,0.,0.));
#798=DIRECTION('',(0.,1.,0.));
#799=DIRECTION('',(0.,1.,0.));
#800=DIRECTION('',(0.,0.,-1.));
#801=DIRECTION('',(0.,1.,0.));
#802=DIRECTION('',(0.,0.,1.));
#803=DIRECTION('',(0.,-1.,0.));
#804=DIRECTION('',(0.,1.,0.));
#805=DIRECTION('',(-1.,0.,0.));
#806=DIRECTION('',(0.,0.,1.));
#807=DIRECTION('',(0.,-1.,0.));
#808=DIRECTION('',(-1.,0.,0.));
#809=DIRECTION('',(0.,1.,0.));
#810=DIRECTION('',(-1.,0.,0.));
#811=DIRECTION('',(0.,1.,0.));
#812=DIRECTION('',(0.,0.,-1.));
#813=DIRECTION('',(0.,1.,0.));
#814=DIRECTION('',(1.,0.,0.));
#815=DIRECTION('',(-1.,0.,0.));
#816=DIRECTION('',(0.,1.,0.));
#817=DIRECTION('',(0.,1.,0.));
#818=DIRECTION('',(0.,0.,-1.));
#819=DIRECTION('',(0.,1.,0.));
#820=DIRECTION('',(0.,0.,1.));
#821=DIRECTION('',(0.,-1.,0.));
#822=DIRECTION('',(0.,1.,0.));
#823=DIRECTION('',(-1.,0.,0.));
#824=DIRECTION('',(0.,0.,1.));
#825=DIRECTION('',(0.,-1.,0.));
#826=DIRECTION('',(-1.,0.,0.));
#827=DIRECTION('',(0.,1.,0.));
#828=DIRECTION('',(-1.,0.,0.));
#829=DIRECTION('',(0.,1.,0.));
#830=DIRECTION('',(0.,0.,-1.));
#831=DIRECTION('',(0.,1.,0.));
#832=DIRECTION('',(1.,0.,0.));
#833=CARTESIAN_POINT('',(0.,0.,0.));
#834=CARTESIAN_POINT('',(0.130499999999995,0.00352,0.07125));
#835=CARTESIAN_POINT('',(0.130499999999995,0.00412,0.07125));
#836=CARTESIAN_POINT('',(0.14199999882701,0.00412,0.07125));
#837=CARTESIAN_POINT('',(0.11900000117298,0.00412,0.07125));
#838=CARTESIAN_POINT('',(0.14199999882701,0.00352,0.07125));
#839=CARTESIAN_POINT('',(0.14199999882701,0.00352,0.07125));
#840=CARTESIAN_POINT('',(0.130499999999995,0.00352,0.07125));
#841=CARTESIAN_POINT('',(0.11900000117298,0.00352,0.07125));
#842=CARTESIAN_POINT('',(0.11900000117298,0.00352,0.07125));
#843=CARTESIAN_POINT('',(0.11900000117298,0.00352,0.07525000117298));
#844=CARTESIAN_POINT('',(0.11900000117298,0.00412,0.07525000117298));
#845=CARTESIAN_POINT('',(0.115,0.00412,0.07525000117298));
#846=CARTESIAN_POINT('',(0.11900000117298,0.00352,0.07525000117298));
#847=CARTESIAN_POINT('',(0.115,0.00352,0.07525000117298));
#848=CARTESIAN_POINT('',(0.115,0.00352,0.07525000117298));
#849=CARTESIAN_POINT('',(0.115,0.00352,0.086749999999995));
#850=CARTESIAN_POINT('',(0.115,0.00412,0.086749999999995));
#851=CARTESIAN_POINT('',(0.114999999999993,0.00412,0.09824999882701));
#852=CARTESIAN_POINT('',(0.115,0.00352,0.086749999999995));
#853=CARTESIAN_POINT('',(0.114999999999993,0.00352,0.09824999882701));
#854=CARTESIAN_POINT('',(0.114999999999993,0.00352,0.09824999882701));
#855=CARTESIAN_POINT('',(0.11900000117298,0.00352,0.09824999882701));
#856=CARTESIAN_POINT('',(0.11900000117298,0.00412,0.09824999882701));
#857=CARTESIAN_POINT('',(0.11900000117298,0.00412,0.10225));
#858=CARTESIAN_POINT('',(0.11900000117298,0.00352,0.09824999882701));
#859=CARTESIAN_POINT('',(0.11900000117298,0.00352,0.10225));
#860=CARTESIAN_POINT('',(0.11900000117298,0.00352,0.10225));
#861=CARTESIAN_POINT('',(0.130499999999995,0.00352,0.10225));
#862=CARTESIAN_POINT('',(0.130499999999995,0.00412,0.10225));
#863=CARTESIAN_POINT('',(0.14199999882701,0.00412,0.102249999999997));
#864=CARTESIAN_POINT('',(0.130499999999995,0.00352,0.10225));
#865=CARTESIAN_POINT('',(0.14199999882701,0.00352,0.102249999999997));
#866=CARTESIAN_POINT('',(0.14199999882701,0.00352,0.102249999999997));
#867=CARTESIAN_POINT('',(0.14199999882701,0.00352,0.09824999882701));
#868=CARTESIAN_POINT('',(0.14199999882701,0.00412,0.09824999882701));
#869=CARTESIAN_POINT('',(0.146,0.00412,0.09824999882701));
#870=CARTESIAN_POINT('',(0.14199999882701,0.00352,0.09824999882701));
#871=CARTESIAN_POINT('',(0.146,0.00352,0.09824999882701));
#872=CARTESIAN_POINT('',(0.146,0.00352,0.09824999882701));
#873=CARTESIAN_POINT('',(0.146,0.00352,0.086749999999995));
#874=CARTESIAN_POINT('',(0.146,0.00412,0.086749999999995));
#875=CARTESIAN_POINT('',(0.145999999999997,0.00412,0.07525000117298));
#876=CARTESIAN_POINT('',(0.146,0.00352,0.086749999999995));
#877=CARTESIAN_POINT('',(0.145999999999997,0.00352,0.07525000117298));
#878=CARTESIAN_POINT('',(0.145999999999997,0.00352,0.07525000117298));
#879=CARTESIAN_POINT('',(0.12239429235651,0.00352,0.0898291975490948));
#880=CARTESIAN_POINT('',(0.12239429235651,0.00412,0.0898291975490948));
#881=CARTESIAN_POINT('',(0.124175444679663,0.00412,0.0898291975490948));
#882=CARTESIAN_POINT('',(0.120613140033357,0.00412,0.0898291975490948));
#883=CARTESIAN_POINT('',(0.120613140033357,0.00352,0.0898291975490948));
#884=CARTESIAN_POINT('',(0.120613140033357,0.00352,0.0898291975490948));
#885=CARTESIAN_POINT('',(0.12239429235651,0.00352,0.0898291975490948));
#886=CARTESIAN_POINT('',(0.124175444679663,0.00352,0.0898291975490948));
#887=CARTESIAN_POINT('',(0.124175444679663,0.00352,0.0898291975490948));
#888=CARTESIAN_POINT('',(0.1305,0.00352,0.0883291975490948));
#889=CARTESIAN_POINT('',(0.1305,0.00412,0.0883291975490948));
#890=CARTESIAN_POINT('',(0.136824555320337,0.00412,0.0898291975490948));
#891=CARTESIAN_POINT('',(0.1305,0.00352,0.0883291975490948));
#892=CARTESIAN_POINT('',(0.136824555320337,0.00352,0.0898291975490948));
#893=CARTESIAN_POINT('',(0.136824555320337,0.00352,0.0898291975490948));
#894=CARTESIAN_POINT('',(0.138605707643489,0.00352,0.0898291975490948));
#895=CARTESIAN_POINT('',(0.138605707643489,0.00412,0.0898291975490948));
#896=CARTESIAN_POINT('',(0.140386859966642,0.00412,0.0898291975490948));
#897=CARTESIAN_POINT('',(0.138605707643489,0.00352,0.0898291975490948));
#898=CARTESIAN_POINT('',(0.140386859966642,0.00352,0.0898291975490948));
#899=CARTESIAN_POINT('',(0.140386859966642,0.00352,0.0898291975490948));
#900=CARTESIAN_POINT('',(0.1305,0.00352,0.0883291975490948));
#901=CARTESIAN_POINT('',(0.1305,0.00412,0.0883291975490948));
#902=CARTESIAN_POINT('',(0.136824555320337,0.00412,0.0868291975490948));
#903=CARTESIAN_POINT('',(0.124175444679663,0.00412,0.0868291975490948));
#904=CARTESIAN_POINT('',(0.136824555320337,0.00352,0.0868291975490948));
#905=CARTESIAN_POINT('',(0.136824555320337,0.00352,0.0868291975490948));
#906=CARTESIAN_POINT('',(0.1305,0.00352,0.0883291975490948));
#907=CARTESIAN_POINT('',(0.124175444679663,0.00352,0.0868291975490948));
#908=CARTESIAN_POINT('',(0.124175444679663,0.00352,0.0868291975490948));
#909=CARTESIAN_POINT('',(0.12239429235651,0.00352,0.0868291975490948));
#910=CARTESIAN_POINT('',(0.12239429235651,0.00412,0.0868291975490948));
#911=CARTESIAN_POINT('',(0.120613140033357,0.00412,0.0868291975490948));
#912=CARTESIAN_POINT('',(0.12239429235651,0.00352,0.0868291975490948));
#913=CARTESIAN_POINT('',(0.120613140033357,0.00352,0.0868291975490948));
#914=CARTESIAN_POINT('',(0.120613140033357,0.00352,0.0868291975490948));
#915=CARTESIAN_POINT('',(0.1305,0.00352,0.0883291975490948));
#916=CARTESIAN_POINT('',(0.1305,0.00412,0.0883291975490948));
#917=CARTESIAN_POINT('',(0.140386859966642,0.00412,0.0868291975490948));
#918=CARTESIAN_POINT('',(0.1305,0.00352,0.0883291975490948));
#919=CARTESIAN_POINT('',(0.140386859966642,0.00352,0.0868291975490948));
#920=CARTESIAN_POINT('',(0.140386859966642,0.00352,0.0868291975490948));
#921=CARTESIAN_POINT('',(0.1305,0.00352,0.0883291975490948));
#922=CARTESIAN_POINT('',(0.1305,0.00412,0.0883291975490948));
#923=CARTESIAN_POINT('',(0.1305,0.00352,0.0883291975490948));
#924=CARTESIAN_POINT('',(0.138605707643489,0.00352,0.0868291975490948));
#925=CARTESIAN_POINT('',(0.138605707643489,0.00412,0.0868291975490948));
#926=CARTESIAN_POINT('',(0.138605707643489,0.00352,0.0868291975490948));
#927=CARTESIAN_POINT('',(0.14199999882701,0.00352,0.07525000117298));
#928=CARTESIAN_POINT('',(0.14199999882701,0.00412,0.07525000117298));
#929=CARTESIAN_POINT('',(0.14199999882701,0.00352,0.07525000117298));
#930=CARTESIAN_POINT('',(0.130499999999996,0.00352,0.0867499999999965));
#931=CARTESIAN_POINT('',(0.130499999999996,0.00352,0.0831972286105156));
#932=CARTESIAN_POINT('',(0.142355620861053,0.00352,0.0831972286105156));
#933=CARTESIAN_POINT('',(0.143855620861053,0.00352,0.0831972286105156));
#934=CARTESIAN_POINT('',(0.142355620861053,0.00352,0.0867499999999965));
#935=CARTESIAN_POINT('',(0.142355620861053,0.00352,0.0881972286105156));
#936=CARTESIAN_POINT('',(0.130499999999996,0.00352,0.0881972286105156));
#937=CARTESIAN_POINT('',(0.143855620861053,0.00352,0.0881972286105156));
#938=CARTESIAN_POINT('',(0.143855620861053,0.00352,0.0867499999999965));
#939=CARTESIAN_POINT('',(0.130499999999996,0.00352,0.0730294873475436));
#940=CARTESIAN_POINT('',(0.126185631583867,0.00352,0.0730294873475436));
#941=CARTESIAN_POINT('',(0.131185631583867,0.00352,0.0730294873475436));
#942=CARTESIAN_POINT('',(0.126185631583867,0.00352,0.0867499999999965));
#943=CARTESIAN_POINT('',(0.126185631583867,0.00352,0.0745294873475436));
#944=CARTESIAN_POINT('',(0.130499999999996,0.00352,0.0745294873475436));
#945=CARTESIAN_POINT('',(0.131185631583867,0.00352,0.0745294873475436));
#946=CARTESIAN_POINT('',(0.131185631583867,0.00352,0.0867499999999965));
#947=CARTESIAN_POINT('',(0.142089337110519,0.00352,0.0941401720046997));
#948=CARTESIAN_POINT('',(0.144589337110519,0.00352,0.0941401720046997));
#949=CARTESIAN_POINT('',(0.118992775678635,0.00352,0.0954340472817421));
#950=CARTESIAN_POINT('',(0.121492775678635,0.00352,0.0954340472817421));
#951=CARTESIAN_POINT('',(0.119304055150614,0.00352,0.0798323340660001));
#952=CARTESIAN_POINT('',(0.121804055150614,0.00352,0.0798323340660001));
#953=CARTESIAN_POINT('',(0.130499999999996,0.00412,0.0867499999999965));
#954=CARTESIAN_POINT('',(0.119304055150614,0.0015142,0.0798323340660001));
#955=CARTESIAN_POINT('',(0.119304055150614,0.0015162,0.0798323340660001));
#956=CARTESIAN_POINT('',(0.121804055150614,0.0015162,0.0798323340660001));
#957=CARTESIAN_POINT('',(0.,0.0015162,0.));
#958=CARTESIAN_POINT('',(0.118992775678635,0.0015142,0.0954340472817421));
#959=CARTESIAN_POINT('',(0.118992775678635,0.0015162,0.0954340472817421));
#960=CARTESIAN_POINT('',(0.121492775678635,0.0015162,0.0954340472817421));
#961=CARTESIAN_POINT('',(0.,0.0015162,0.));
#962=CARTESIAN_POINT('',(0.142089337110519,0.0015142,0.0941401720046997));
#963=CARTESIAN_POINT('',(0.142089337110519,0.0015162,0.0941401720046997));
#964=CARTESIAN_POINT('',(0.144589337110519,0.0015162,0.0941401720046997));
#965=CARTESIAN_POINT('',(0.,0.0015162,0.));
#966=CARTESIAN_POINT('',(0.126185631583867,0.0015142,0.0737794873475436));
#967=CARTESIAN_POINT('',(0.126185631583867,0.0015142,0.0730294873475436));
#968=CARTESIAN_POINT('',(0.126185631583867,0.0015162,0.0730294873475436));
#969=CARTESIAN_POINT('',(0.126185631583867,0.0015162,0.0737794873475436));
#970=CARTESIAN_POINT('',(0.126185631583867,0.0015162,0.0745294873475436));
#971=CARTESIAN_POINT('',(0.126185631583867,0.0015142,0.0745294873475436));
#972=CARTESIAN_POINT('',(0.128685631583867,0.0015142,0.0730294873475436));
#973=CARTESIAN_POINT('',(0.131185631583867,0.0015142,0.0730294873475436));
#974=CARTESIAN_POINT('',(0.131185631583867,0.0015162,0.0730294873475436));
#975=CARTESIAN_POINT('',(0.128685631583867,0.0015162,0.0730294873475436));
#976=CARTESIAN_POINT('',(0.128685631583867,0.0015142,0.0745294873475436));
#977=CARTESIAN_POINT('',(0.128685631583867,0.0015162,0.0745294873475436));
#978=CARTESIAN_POINT('',(0.131185631583867,0.0015162,0.0745294873475436));
#979=CARTESIAN_POINT('',(0.131185631583867,0.0015142,0.0745294873475436));
#980=CARTESIAN_POINT('',(0.131185631583867,0.0015142,0.0737794873475436));
#981=CARTESIAN_POINT('',(0.131185631583867,0.0015162,0.0737794873475436));
#982=CARTESIAN_POINT('',(0.,0.0015162,0.));
#983=CARTESIAN_POINT('',(0.142355620861053,0.0015142,0.0856972286105156));
#984=CARTESIAN_POINT('',(0.142355620861053,0.0015142,0.0831972286105156));
#985=CARTESIAN_POINT('',(0.142355620861053,0.0015162,0.0831972286105156));
#986=CARTESIAN_POINT('',(0.142355620861053,0.0015162,0.0856972286105156));
#987=CARTESIAN_POINT('',(0.142355620861053,0.0015162,0.0881972286105156));
#988=CARTESIAN_POINT('',(0.142355620861053,0.0015142,0.0881972286105156));
#989=CARTESIAN_POINT('',(0.143105620861053,0.0015142,0.0831972286105156));
#990=CARTESIAN_POINT('',(0.143855620861053,0.0015142,0.0831972286105156));
#991=CARTESIAN_POINT('',(0.143855620861053,0.0015162,0.0831972286105156));
#992=CARTESIAN_POINT('',(0.143105620861053,0.0015162,0.0831972286105156));
#993=CARTESIAN_POINT('',(0.143105620861053,0.0015142,0.0881972286105156));
#994=CARTESIAN_POINT('',(0.143105620861053,0.0015162,0.0881972286105156));
#995=CARTESIAN_POINT('',(0.143855620861053,0.0015162,0.0881972286105156));
#996=CARTESIAN_POINT('',(0.143855620861053,0.0015142,0.0881972286105156));
#997=CARTESIAN_POINT('',(0.143855620861053,0.0015142,0.0856972286105156));
#998=CARTESIAN_POINT('',(0.143855620861053,0.0015162,0.0856972286105156));
#999=CARTESIAN_POINT('',(0.,0.0015162,0.));
#1000=MECHANICAL_DESIGN_GEOMETRIC_PRESENTATION_REPRESENTATION('',(#595),
#1001);
#1001=(
GEOMETRIC_REPRESENTATION_CONTEXT(3)
GLOBAL_UNCERTAINTY_ASSIGNED_CONTEXT((#1002))
GLOBAL_UNIT_ASSIGNED_CONTEXT((#1005,#1004,#1003))
REPRESENTATION_CONTEXT('light mask','TOP_LEVEL_ASSEMBLY_PART')
);
#1002=UNCERTAINTY_MEASURE_WITH_UNIT(LENGTH_MEASURE(1.E-8),#1005,
'DISTANCE_ACCURACY_VALUE','Maximum Tolerance applied to model');
#1003=(
NAMED_UNIT(*)
SI_UNIT($,.STERADIAN.)
SOLID_ANGLE_UNIT()
);
#1004=(
NAMED_UNIT(*)
PLANE_ANGLE_UNIT()
SI_UNIT($,.RADIAN.)
);
#1005=(
LENGTH_UNIT()
NAMED_UNIT(*)
SI_UNIT($,.METRE.)
);
#1006=PRODUCT_DEFINITION_SHAPE('','',#1007);
#1007=PRODUCT_DEFINITION('','',#1009,#1008);
#1008=PRODUCT_DEFINITION_CONTEXT('',#1015,'design');
#1009=PRODUCT_DEFINITION_FORMATION_WITH_SPECIFIED_SOURCE('','',#1011,
 .NOT_KNOWN.);
#1010=PRODUCT_RELATED_PRODUCT_CATEGORY('','',(#1011));
#1011=PRODUCT('light mask','light mask','light mask',(#1013));
#1012=PRODUCT_CATEGORY('','');
#1013=PRODUCT_CONTEXT('',#1015,'mechanical');
#1014=APPLICATION_PROTOCOL_DEFINITION('international standard',
'ap242_managed_model_based_3d_engineering',2020,#1015);
#1015=APPLICATION_CONTEXT('managed model based 3d engineering');
ENDSEC;
END-ISO-10303-21;
