ISO-10303-21;
HEADER;
/* Generated by software containing ST-Developer
 * from STEP Tools, Inc. (www.steptools.com) 
 */
/* OPTION: using custom renumber hook */

FILE_DESCRIPTION(
/* description */ ('STEP AP242 Edition 2',
'CAx-IF Rec.Pracs.---Representation and Presentation of Product Manufa
cturing Information (PMI)---4.0---2014-10-13',
'CAx-IF Rec.Pracs.---3D Tessellated Geometry---0.4---2014-09-14','2;1',
'CAx-IF Rec.Pracs.---User Defined Attributes---1.5---2016-08-15'),
/* implementation_level */ '2;1');

FILE_NAME(
/* name */ 'Part Studio 1 - slide-in hook',
/* time_stamp */ '2026-09-27T17:22:31Z',
/* author */ (''),
/* organization */ (''),
/* preprocessor_version */ 'ST-DEVELOPER v20',
/* originating_system */ 'ONSHAPE BY PTC INC, 1.221',
/* authorisation */ '  ');

FILE_SCHEMA (('AP242_MANAGED_MODEL_BASED_3D_ENGINEERING_MIM_LF { 1 0 10303 442 3 1 4 }'));
ENDSEC;

DATA;
#10=SHAPE_REPRESENTATION_RELATIONSHIP('','',#274,#11);
#11=ADVANCED_BREP_SHAPE_REPRESENTATION('',(#272),#502);
#12=CYLINDRICAL_SURFACE('',#290,0.0025);
#13=B_SPLINE_CURVE_WITH_KNOTS('',3,(#422,#423,#424,#425,#426,#427,#428,
#429,#430,#431,#432,#433,#434,#435,#436,#437),.UNSPECIFIED.,.F.,.F.,(4,
1,1,1,1,1,1,1,1,1,3,4),(0.249071307168517,0.25,0.3125,0.375,0.4375,0.5,
0.5625,0.625,0.75,0.875,0.968155743313958,0.975346587675412),
 .UNSPECIFIED.);
#14=B_SPLINE_CURVE_WITH_KNOTS('',3,(#441,#442,#443,#444,#445,#446,#447,
#448,#449,#450,#451,#452,#453,#454,#455,#456),.UNSPECIFIED.,.F.,.F.,(4,
1,1,1,1,1,1,1,1,1,3,4),(0.249071307168517,0.25,0.3125,0.375,0.4375,0.5,
0.5625,0.625,0.75,0.875,0.968155743313958,0.975346587675412),
 .UNSPECIFIED.);
#15=B_SPLINE_CURVE_WITH_KNOTS('',5,(#480,#481,#482,#483,#484,#485),
 .UNSPECIFIED.,.F.,.F.,(6,6),(0.,0.997022608790177),
 .PIECEWISE_BEZIER_KNOTS.);
#16=B_SPLINE_CURVE_WITH_KNOTS('',5,(#487,#488,#489,#490,#491,#492),
 .UNSPECIFIED.,.F.,.F.,(6,6),(0.,0.997022608790177),
 .PIECEWISE_BEZIER_KNOTS.);
#17=B_SPLINE_SURFACE_WITH_KNOTS('',3,1,((#401,#402),(#403,#404),(#405,#406),
(#407,#408),(#409,#410),(#411,#412),(#413,#414),(#415,#416),(#417,#418)),
 .SURF_OF_LINEAR_EXTRUSION.,.F.,.F.,.F.,(4,1,1,1,1,1,4),(2,2),(0.249071307168517,
0.338956897718193,0.428842488267868,0.518728078817543,0.608613669367218,
0.788384850466569,0.968156031565919),(0.,1.),.UNSPECIFIED.);
#18=B_SPLINE_SURFACE_WITH_KNOTS('',3,1,((#460,#461),(#462,#463),(#464,#465),
(#466,#467),(#468,#469),(#470,#471),(#472,#473),(#474,#475),(#476,#477),
(#478,#479)),.SURF_OF_LINEAR_EXTRUSION.,.F.,.F.,.F.,(4,1,1,1,1,1,1,4),(2,
2),(0.,0.124627648581905,0.24925529716381,0.373882945745715,0.49851059432762,
0.623138242909525,0.74776589149143,0.99702118865524),(0.,1.),
 .UNSPECIFIED.);
#19=ELLIPSE('',#281,0.00266044443118978,0.0025);
#20=ELLIPSE('',#285,0.00266044443118978,0.0025);
#21=ORIENTED_EDGE('',*,*,#91,.F.);
#22=ORIENTED_EDGE('',*,*,#92,.T.);
#23=ORIENTED_EDGE('',*,*,#93,.T.);
#24=ORIENTED_EDGE('',*,*,#94,.T.);
#25=ORIENTED_EDGE('',*,*,#95,.T.);
#26=ORIENTED_EDGE('',*,*,#96,.T.);
#27=ORIENTED_EDGE('',*,*,#97,.F.);
#28=ORIENTED_EDGE('',*,*,#98,.F.);
#29=ORIENTED_EDGE('',*,*,#96,.F.);
#30=ORIENTED_EDGE('',*,*,#99,.F.);
#31=ORIENTED_EDGE('',*,*,#100,.F.);
#32=ORIENTED_EDGE('',*,*,#101,.T.);
#33=ORIENTED_EDGE('',*,*,#102,.T.);
#34=ORIENTED_EDGE('',*,*,#103,.F.);
#35=ORIENTED_EDGE('',*,*,#101,.F.);
#36=ORIENTED_EDGE('',*,*,#104,.F.);
#37=ORIENTED_EDGE('',*,*,#105,.F.);
#38=ORIENTED_EDGE('',*,*,#93,.F.);
#39=ORIENTED_EDGE('',*,*,#106,.T.);
#40=ORIENTED_EDGE('',*,*,#107,.F.);
#41=ORIENTED_EDGE('',*,*,#104,.T.);
#42=ORIENTED_EDGE('',*,*,#100,.T.);
#43=ORIENTED_EDGE('',*,*,#108,.T.);
#44=ORIENTED_EDGE('',*,*,#109,.T.);
#45=ORIENTED_EDGE('',*,*,#107,.T.);
#46=ORIENTED_EDGE('',*,*,#110,.T.);
#47=ORIENTED_EDGE('',*,*,#111,.F.);
#48=ORIENTED_EDGE('',*,*,#105,.T.);
#49=ORIENTED_EDGE('',*,*,#109,.F.);
#50=ORIENTED_EDGE('',*,*,#112,.T.);
#51=ORIENTED_EDGE('',*,*,#94,.F.);
#52=ORIENTED_EDGE('',*,*,#111,.T.);
#53=ORIENTED_EDGE('',*,*,#113,.T.);
#54=ORIENTED_EDGE('',*,*,#91,.T.);
#55=ORIENTED_EDGE('',*,*,#98,.T.);
#56=ORIENTED_EDGE('',*,*,#114,.F.);
#57=ORIENTED_EDGE('',*,*,#102,.F.);
#58=ORIENTED_EDGE('',*,*,#103,.T.);
#59=ORIENTED_EDGE('',*,*,#115,.F.);
#60=ORIENTED_EDGE('',*,*,#116,.T.);
#61=ORIENTED_EDGE('',*,*,#117,.T.);
#62=ORIENTED_EDGE('',*,*,#118,.F.);
#63=ORIENTED_EDGE('',*,*,#95,.F.);
#64=ORIENTED_EDGE('',*,*,#119,.T.);
#65=ORIENTED_EDGE('',*,*,#115,.T.);
#66=ORIENTED_EDGE('',*,*,#120,.F.);
#67=ORIENTED_EDGE('',*,*,#121,.F.);
#68=ORIENTED_EDGE('',*,*,#99,.T.);
#69=ORIENTED_EDGE('',*,*,#122,.T.);
#70=ORIENTED_EDGE('',*,*,#123,.F.);
#71=ORIENTED_EDGE('',*,*,#124,.F.);
#72=ORIENTED_EDGE('',*,*,#123,.T.);
#73=ORIENTED_EDGE('',*,*,#125,.T.);
#74=ORIENTED_EDGE('',*,*,#117,.F.);
#75=ORIENTED_EDGE('',*,*,#118,.T.);
#76=ORIENTED_EDGE('',*,*,#125,.F.);
#77=ORIENTED_EDGE('',*,*,#122,.F.);
#78=ORIENTED_EDGE('',*,*,#114,.T.);
#79=ORIENTED_EDGE('',*,*,#97,.T.);
#80=ORIENTED_EDGE('',*,*,#120,.T.);
#81=ORIENTED_EDGE('',*,*,#116,.F.);
#82=ORIENTED_EDGE('',*,*,#119,.F.);
#83=ORIENTED_EDGE('',*,*,#112,.F.);
#84=ORIENTED_EDGE('',*,*,#108,.F.);
#85=ORIENTED_EDGE('',*,*,#121,.T.);
#86=ORIENTED_EDGE('',*,*,#124,.T.);
#87=ORIENTED_EDGE('',*,*,#110,.F.);
#88=ORIENTED_EDGE('',*,*,#106,.F.);
#89=ORIENTED_EDGE('',*,*,#92,.F.);
#90=ORIENTED_EDGE('',*,*,#113,.F.);
#91=EDGE_CURVE('',#126,#127,#148,.T.);
#92=EDGE_CURVE('',#126,#128,#149,.T.);
#93=EDGE_CURVE('',#128,#129,#150,.T.);
#94=EDGE_CURVE('',#129,#130,#151,.T.);
#95=EDGE_CURVE('',#130,#131,#152,.T.);
#96=EDGE_CURVE('',#131,#127,#153,.T.);
#97=EDGE_CURVE('',#132,#131,#154,.T.);
#98=EDGE_CURVE('',#127,#132,#155,.T.);
#99=EDGE_CURVE('',#133,#134,#156,.T.);
#100=EDGE_CURVE('',#135,#133,#157,.T.);
#101=EDGE_CURVE('',#135,#136,#158,.T.);
#102=EDGE_CURVE('',#136,#134,#159,.T.);
#103=EDGE_CURVE('',#136,#137,#160,.T.);
#104=EDGE_CURVE('',#138,#135,#161,.T.);
#105=EDGE_CURVE('',#137,#138,#162,.T.);
#106=EDGE_CURVE('',#128,#139,#19,.T.);
#107=EDGE_CURVE('',#138,#139,#163,.T.);
#108=EDGE_CURVE('',#133,#140,#164,.T.);
#109=EDGE_CURVE('',#140,#129,#165,.T.);
#110=EDGE_CURVE('',#139,#141,#166,.F.);
#111=EDGE_CURVE('',#137,#141,#167,.T.);
#112=EDGE_CURVE('',#140,#130,#168,.T.);
#113=EDGE_CURVE('',#141,#126,#20,.T.);
#114=EDGE_CURVE('',#134,#132,#169,.T.);
#115=EDGE_CURVE('',#142,#143,#170,.T.);
#116=EDGE_CURVE('',#142,#144,#13,.T.);
#117=EDGE_CURVE('',#144,#145,#171,.T.);
#118=EDGE_CURVE('',#143,#145,#14,.T.);
#119=EDGE_CURVE('',#130,#142,#172,.T.);
#120=EDGE_CURVE('',#131,#143,#173,.T.);
#121=EDGE_CURVE('',#133,#146,#15,.T.);
#122=EDGE_CURVE('',#134,#147,#16,.T.);
#123=EDGE_CURVE('',#146,#147,#174,.T.);
#124=EDGE_CURVE('',#146,#144,#175,.T.);
#125=EDGE_CURVE('',#147,#145,#176,.T.);
#126=VERTEX_POINT('',#355);
#127=VERTEX_POINT('',#356);
#128=VERTEX_POINT('',#358);
#129=VERTEX_POINT('',#360);
#130=VERTEX_POINT('',#362);
#131=VERTEX_POINT('',#364);
#132=VERTEX_POINT('',#368);
#133=VERTEX_POINT('',#372);
#134=VERTEX_POINT('',#373);
#135=VERTEX_POINT('',#375);
#136=VERTEX_POINT('',#377);
#137=VERTEX_POINT('',#381);
#138=VERTEX_POINT('',#383);
#139=VERTEX_POINT('',#387);
#140=VERTEX_POINT('',#390);
#141=VERTEX_POINT('',#394);
#142=VERTEX_POINT('',#420);
#143=VERTEX_POINT('',#421);
#144=VERTEX_POINT('',#438);
#145=VERTEX_POINT('',#440);
#146=VERTEX_POINT('',#486);
#147=VERTEX_POINT('',#493);
#148=LINE('',#354,#177);
#149=LINE('',#357,#178);
#150=LINE('',#359,#179);
#151=LINE('',#361,#180);
#152=LINE('',#363,#181);
#153=LINE('',#365,#182);
#154=LINE('',#367,#183);
#155=LINE('',#369,#184);
#156=LINE('',#371,#185);
#157=LINE('',#374,#186);
#158=LINE('',#376,#187);
#159=LINE('',#378,#188);
#160=LINE('',#380,#189);
#161=LINE('',#382,#190);
#162=LINE('',#384,#191);
#163=LINE('',#388,#192);
#164=LINE('',#389,#193);
#165=LINE('',#391,#194);
#166=LINE('',#393,#195);
#167=LINE('',#395,#196);
#168=LINE('',#397,#197);
#169=LINE('',#400,#198);
#170=LINE('',#419,#199);
#171=LINE('',#439,#200);
#172=LINE('',#458,#201);
#173=LINE('',#459,#202);
#174=LINE('',#494,#203);
#175=LINE('',#496,#204);
#176=LINE('',#497,#205);
#177=VECTOR('',#295,1.);
#178=VECTOR('',#296,1.);
#179=VECTOR('',#297,1.);
#180=VECTOR('',#298,1.);
#181=VECTOR('',#299,1.);
#182=VECTOR('',#300,1.);
#183=VECTOR('',#303,1.);
#184=VECTOR('',#304,1.);
#185=VECTOR('',#307,1.);
#186=VECTOR('',#308,1.);
#187=VECTOR('',#309,1.);
#188=VECTOR('',#310,1.);
#189=VECTOR('',#313,1.);
#190=VECTOR('',#314,1.);
#191=VECTOR('',#315,1.);
#192=VECTOR('',#320,1.);
#193=VECTOR('',#321,1.);
#194=VECTOR('',#322,1.);
#195=VECTOR('',#325,1.);
#196=VECTOR('',#326,1.);
#197=VECTOR('',#329,1.);
#198=VECTOR('',#334,1.);
#199=VECTOR('',#335,1.);
#200=VECTOR('',#336,1.);
#201=VECTOR('',#339,1.);
#202=VECTOR('',#340,1.);
#203=VECTOR('',#341,1.);
#204=VECTOR('',#344,1.);
#205=VECTOR('',#345,1.);
#206=EDGE_LOOP('',(#21,#22,#23,#24,#25,#26));
#207=EDGE_LOOP('',(#27,#28,#29));
#208=EDGE_LOOP('',(#30,#31,#32,#33));
#209=EDGE_LOOP('',(#34,#35,#36,#37));
#210=EDGE_LOOP('',(#38,#39,#40,#41,#42,#43,#44));
#211=EDGE_LOOP('',(#45,#46,#47,#48));
#212=EDGE_LOOP('',(#49,#50,#51));
#213=EDGE_LOOP('',(#52,#53,#54,#55,#56,#57,#58));
#214=EDGE_LOOP('',(#59,#60,#61,#62));
#215=EDGE_LOOP('',(#63,#64,#65,#66));
#216=EDGE_LOOP('',(#67,#68,#69,#70));
#217=EDGE_LOOP('',(#71,#72,#73,#74));
#218=EDGE_LOOP('',(#75,#76,#77,#78,#79,#80));
#219=EDGE_LOOP('',(#81,#82,#83,#84,#85,#86));
#220=EDGE_LOOP('',(#87,#88,#89,#90));
#221=FACE_BOUND('',#206,.T.);
#222=FACE_BOUND('',#207,.T.);
#223=FACE_BOUND('',#208,.T.);
#224=FACE_BOUND('',#209,.T.);
#225=FACE_BOUND('',#210,.T.);
#226=FACE_BOUND('',#211,.T.);
#227=FACE_BOUND('',#212,.T.);
#228=FACE_BOUND('',#213,.T.);
#229=FACE_BOUND('',#214,.T.);
#230=FACE_BOUND('',#215,.T.);
#231=FACE_BOUND('',#216,.T.);
#232=FACE_BOUND('',#217,.T.);
#233=FACE_BOUND('',#218,.T.);
#234=FACE_BOUND('',#219,.T.);
#235=FACE_BOUND('',#220,.T.);
#236=PLANE('',#276);
#237=PLANE('',#277);
#238=PLANE('',#278);
#239=PLANE('',#279);
#240=PLANE('',#280);
#241=PLANE('',#282);
#242=PLANE('',#283);
#243=PLANE('',#284);
#244=PLANE('',#286);
#245=PLANE('',#287);
#246=PLANE('',#288);
#247=PLANE('',#289);
#248=ADVANCED_FACE('',(#221),#236,.F.);
#249=ADVANCED_FACE('',(#222),#237,.F.);
#250=ADVANCED_FACE('',(#223),#238,.F.);
#251=ADVANCED_FACE('',(#224),#239,.F.);
#252=ADVANCED_FACE('',(#225),#240,.F.);
#253=ADVANCED_FACE('',(#226),#241,.F.);
#254=ADVANCED_FACE('',(#227),#242,.F.);
#255=ADVANCED_FACE('',(#228),#243,.F.);
#256=ADVANCED_FACE('',(#229),#17,.T.);
#257=ADVANCED_FACE('',(#230),#244,.T.);
#258=ADVANCED_FACE('',(#231),#18,.F.);
#259=ADVANCED_FACE('',(#232),#245,.F.);
#260=ADVANCED_FACE('',(#233),#246,.F.);
#261=ADVANCED_FACE('',(#234),#247,.T.);
#262=ADVANCED_FACE('',(#235),#12,.F.);
#263=CLOSED_SHELL('',(#248,#249,#250,#251,#252,#253,#254,#255,#256,#257,
#258,#259,#260,#261,#262));
#264=STYLED_ITEM('',(#265),#272);
#265=PRESENTATION_STYLE_ASSIGNMENT((#266));
#266=SURFACE_STYLE_USAGE(.BOTH.,#267);
#267=SURFACE_SIDE_STYLE('',(#268));
#268=SURFACE_STYLE_FILL_AREA(#269);
#269=FILL_AREA_STYLE('',(#270));
#270=FILL_AREA_STYLE_COLOUR('',#271);
#271=COLOUR_RGB('',0.768627450980392,0.886274509803922,0.952941176470588);
#272=MANIFOLD_SOLID_BREP('slide-in hook',#263);
#273=SHAPE_DEFINITION_REPRESENTATION(#507,#274);
#274=SHAPE_REPRESENTATION('slide-in hook',(#275),#502);
#275=AXIS2_PLACEMENT_3D('',#352,#291,#292);
#276=AXIS2_PLACEMENT_3D('',#353,#293,#294);
#277=AXIS2_PLACEMENT_3D('',#366,#301,#302);
#278=AXIS2_PLACEMENT_3D('',#370,#305,#306);
#279=AXIS2_PLACEMENT_3D('',#379,#311,#312);
#280=AXIS2_PLACEMENT_3D('',#385,#316,#317);
#281=AXIS2_PLACEMENT_3D('',#386,#318,#319);
#282=AXIS2_PLACEMENT_3D('',#392,#323,#324);
#283=AXIS2_PLACEMENT_3D('',#396,#327,#328);
#284=AXIS2_PLACEMENT_3D('',#398,#330,#331);
#285=AXIS2_PLACEMENT_3D('',#399,#332,#333);
#286=AXIS2_PLACEMENT_3D('',#457,#337,#338);
#287=AXIS2_PLACEMENT_3D('',#495,#342,#343);
#288=AXIS2_PLACEMENT_3D('',#498,#346,#347);
#289=AXIS2_PLACEMENT_3D('',#499,#348,#349);
#290=AXIS2_PLACEMENT_3D('',#500,#350,#351);
#291=DIRECTION('',(0.,0.,1.));
#292=DIRECTION('',(1.,0.,0.));
#293=DIRECTION('',(-8.9286459378668E-17,-1.,0.));
#294=DIRECTION('',(-1.,8.9286459378668E-17,0.));
#295=DIRECTION('',(0.,0.,-1.));
#296=DIRECTION('',(1.,0.,0.));
#297=DIRECTION('',(0.,0.,-1.));
#298=DIRECTION('',(-1.,8.9286459378668E-17,0.));
#299=DIRECTION('',(-1.,0.,0.));
#300=DIRECTION('',(-1.,8.9286459378668E-17,0.));
#301=DIRECTION('',(0.,0.,1.));
#302=DIRECTION('',(1.,0.,0.));
#303=DIRECTION('',(0.,1.,0.));
#304=DIRECTION('',(0.342020143325667,-0.939692620785909,0.));
#305=DIRECTION('',(2.1575874633419E-16,1.,0.));
#306=DIRECTION('',(1.,-2.1575874633419E-16,0.));
#307=DIRECTION('',(-1.,0.,0.));
#308=DIRECTION('',(0.,0.,-1.));
#309=DIRECTION('',(-1.,2.1575874633419E-16,7.70988211545099E-16));
#310=DIRECTION('',(0.,0.,-1.));
#311=DIRECTION('',(-7.70988211545099E-16,-3.50711471041342E-29,-1.));
#312=DIRECTION('',(-1.,0.,7.70988211545099E-16));
#313=DIRECTION('',(-0.342020143325668,0.939692620785909,2.63693498615022E-16));
#314=DIRECTION('',(-0.342020143325667,-0.939692620785909,2.63693498615088E-16));
#315=DIRECTION('',(1.,-8.9286459378668E-17,-7.70988211545099E-16));
#316=DIRECTION('',(-0.939692620785909,0.342020143325667,0.));
#317=DIRECTION('',(0.342020143325667,0.939692620785909,0.));
#318=DIRECTION('',(-0.939692620785909,0.342020143325667,0.));
#319=DIRECTION('',(0.342020143325667,0.939692620785909,0.));
#320=DIRECTION('',(0.,0.,-1.));
#321=DIRECTION('',(0.,1.05411495302426E-15,-1.));
#322=DIRECTION('',(0.342020143325667,0.939692620785909,0.));
#323=DIRECTION('',(-8.9286459378668E-17,-1.,0.));
#324=DIRECTION('',(-1.,8.9286459378668E-17,0.));
#325=DIRECTION('',(1.,0.,0.));
#326=DIRECTION('',(0.,0.,-1.));
#327=DIRECTION('',(0.,0.,1.));
#328=DIRECTION('',(1.,0.,0.));
#329=DIRECTION('',(0.,1.,0.));
#330=DIRECTION('',(0.939692620785909,0.342020143325667,0.));
#331=DIRECTION('',(0.342020143325668,-0.939692620785909,0.));
#332=DIRECTION('',(0.939692620785909,0.342020143325667,0.));
#333=DIRECTION('',(0.342020143325668,-0.939692620785909,0.));
#334=DIRECTION('',(0.,1.05411495302426E-15,-1.));
#335=DIRECTION('',(-1.,0.,0.));
#336=DIRECTION('',(-1.,0.,0.));
#337=DIRECTION('',(0.,0.209617705760347,-0.977783420513852));
#338=DIRECTION('',(0.,0.977783420513852,0.209617705760347));
#339=DIRECTION('',(0.,-0.977783420513852,-0.209617705760347));
#340=DIRECTION('',(0.,-0.977783420513852,-0.209617705760347));
#341=DIRECTION('',(-1.,0.,0.));
#342=DIRECTION('',(0.,0.,-1.));
#343=DIRECTION('',(0.,1.,0.));
#344=DIRECTION('',(0.,-1.,0.));
#345=DIRECTION('',(0.,-1.,0.));
#346=DIRECTION('',(1.,0.,0.));
#347=DIRECTION('',(0.,0.,-1.));
#348=DIRECTION('',(1.,0.,0.));
#349=DIRECTION('',(0.,0.,-1.));
#350=DIRECTION('',(1.,0.,0.));
#351=DIRECTION('',(0.,-1.,0.));
#352=CARTESIAN_POINT('',(0.,0.,0.));
#353=CARTESIAN_POINT('',(0.130499999999998,-0.0055376,0.09935199882701));
#354=CARTESIAN_POINT('',(0.120785629601348,-0.0055376,0.09935199882701));
#355=CARTESIAN_POINT('',(0.120785629601348,-0.0055376,0.0823935340033749));
#356=CARTESIAN_POINT('',(0.120785629601348,-0.0055376,0.07485));
#357=CARTESIAN_POINT('',(0.120498,-0.0055376,0.0823935340033749));
#358=CARTESIAN_POINT('',(0.140214370398648,-0.0055376,0.0823935340033749));
#359=CARTESIAN_POINT('',(0.140214370398648,-0.0055376,0.09935199882701));
#360=CARTESIAN_POINT('',(0.140214370398648,-0.0055376,0.07485));
#361=CARTESIAN_POINT('',(0.130499999999998,-0.0055376,0.07485));
#362=CARTESIAN_POINT('',(0.138540107321024,-0.0055376,0.07485));
#363=CARTESIAN_POINT('',(0.138542107321024,-0.0055376,0.07485));
#364=CARTESIAN_POINT('',(0.122459892678973,-0.0055376,0.07485));
#365=CARTESIAN_POINT('',(0.130499999999998,-0.0055376,0.07485));
#366=CARTESIAN_POINT('',(0.130499999999998,-0.0078376,0.07485));
#367=CARTESIAN_POINT('',(0.122459892678973,-0.0078376,0.07485));
#368=CARTESIAN_POINT('',(0.122459892678973,-0.0101376,0.07485));
#369=CARTESIAN_POINT('',(0.121622761140161,-0.0078376,0.07485));
#370=CARTESIAN_POINT('',(0.130499999999998,-0.0101376,0.09935199882701));
#371=CARTESIAN_POINT('',(0.138542107321024,-0.0101376,0.0829823225996173));
#372=CARTESIAN_POINT('',(0.138540107321024,-0.0101376,0.0829823225996173));
#373=CARTESIAN_POINT('',(0.122459892678973,-0.0101376,0.0829823225996173));
#374=CARTESIAN_POINT('',(0.138540107321024,-0.0101376,0.09935199882701));
#375=CARTESIAN_POINT('',(0.138540107321024,-0.0101376,0.09934999882701));
#376=CARTESIAN_POINT('',(0.130499999999998,-0.0101376,0.09934999882701));
#377=CARTESIAN_POINT('',(0.122459892678973,-0.0101376,0.09934999882701));
#378=CARTESIAN_POINT('',(0.122459892678973,-0.0101376,0.09935199882701));
#379=CARTESIAN_POINT('',(0.130499999999996,-0.0103376,0.09934999882701));
#380=CARTESIAN_POINT('',(0.121622761140161,-0.0078376,0.09934999882701));
#381=CARTESIAN_POINT('',(0.120785629601348,-0.0055376,0.09934999882701));
#382=CARTESIAN_POINT('',(0.139377238859836,-0.0078376,0.09934999882701));
#383=CARTESIAN_POINT('',(0.140214370398648,-0.0055376,0.09934999882701));
#384=CARTESIAN_POINT('',(0.130499999999998,-0.0055376,0.09934999882701));
#385=CARTESIAN_POINT('',(0.139377238859836,-0.0078376,0.09935199882701));
#386=CARTESIAN_POINT('',(0.140978707890608,-0.0034376,0.08375));
#387=CARTESIAN_POINT('',(0.140214370398648,-0.0055376,0.085106465996625));
#388=CARTESIAN_POINT('',(0.140214370398648,-0.0055376,0.09935199882701));
#389=CARTESIAN_POINT('',(0.138540107321024,-0.0101376,0.0796909861642506));
#390=CARTESIAN_POINT('',(0.138540107321024,-0.0101376,0.07485));
#391=CARTESIAN_POINT('',(0.139377238859836,-0.0078376,0.07485));
#392=CARTESIAN_POINT('',(0.130499999999998,-0.0055376,0.09935199882701));
#393=CARTESIAN_POINT('',(0.120498,-0.0055376,0.085106465996625));
#394=CARTESIAN_POINT('',(0.120785629601348,-0.0055376,0.085106465996625));
#395=CARTESIAN_POINT('',(0.120785629601348,-0.0055376,0.09935199882701));
#396=CARTESIAN_POINT('',(0.130499999999998,-0.0078376,0.07485));
#397=CARTESIAN_POINT('',(0.138540107321024,-0.0078376,0.07485));
#398=CARTESIAN_POINT('',(0.121622761140161,-0.0078376,0.09935199882701));
#399=CARTESIAN_POINT('',(0.120021292109389,-0.0034376,0.08375));
#400=CARTESIAN_POINT('',(0.122459892678973,-0.0101376,0.0796909861642506));
#401=CARTESIAN_POINT('',(0.138540107321024,-0.0156787534905871,0.0726759311233511));
#402=CARTESIAN_POINT('',(0.122459892678973,-0.0156787534905871,0.0726759311233511));
#403=CARTESIAN_POINT('',(0.138540107321024,-0.0170090174498848,0.0723908282036254));
#404=CARTESIAN_POINT('',(0.122459892678973,-0.0170090174498848,0.0723908282036254));
#405=CARTESIAN_POINT('',(0.138540107321024,-0.019716633848634,0.0725101186967128));
#406=CARTESIAN_POINT('',(0.122459892678973,-0.019716633848634,0.0725101186967128));
#407=CARTESIAN_POINT('',(0.138540107321024,-0.0231250141057164,0.0744773500612128));
#408=CARTESIAN_POINT('',(0.122459892678973,-0.0231250141057164,0.0744773500612128));
#409=CARTESIAN_POINT('',(0.138540107321024,-0.0254570446270395,0.0776435854421114));
#410=CARTESIAN_POINT('',(0.122459892678973,-0.0254570446270395,0.0776435854421114));
#411=CARTESIAN_POINT('',(0.138540107321024,-0.0271203889555748,0.0828327497049032));
#412=CARTESIAN_POINT('',(0.122459892678973,-0.0271203889555748,0.0828327497049032));
#413=CARTESIAN_POINT('',(0.138540107321024,-0.026721373401613,0.0904227385297072));
#414=CARTESIAN_POINT('',(0.122459892678973,-0.026721373401613,0.0904227385297072));
#415=CARTESIAN_POINT('',(0.138540107321023,-0.0243036658106553,0.0965556265373779));
#416=CARTESIAN_POINT('',(0.122459892678972,-0.0243036658106553,0.0965556265373779));
#417=CARTESIAN_POINT('',(0.138540107321024,-0.0227314368505499,0.0993500122688914));
#418=CARTESIAN_POINT('',(0.122459892678973,-0.0227314368505499,0.0993500122688914));
#419=CARTESIAN_POINT('',(0.138542107321024,-0.0156787464047472,0.0726759358887209));
#420=CARTESIAN_POINT('',(0.138540107321024,-0.0156787464047472,0.0726759358887209));
#421=CARTESIAN_POINT('',(0.122459892678973,-0.0156787464047472,0.0726759358887209));
#422=CARTESIAN_POINT('',(0.138540107321024,-0.0156787534905871,0.0726759311233511));
#423=CARTESIAN_POINT('',(0.138540107321024,-0.0156924977024839,0.0726729854561294));
#424=CARTESIAN_POINT('',(0.138540107321024,-0.0166313885805313,0.0724742810016176));
#425=CARTESIAN_POINT('',(0.138540107321024,-0.0185180473226615,0.07241633537947));
#426=CARTESIAN_POINT('',(0.138540107321024,-0.0211205258542281,0.0732499923348417));
#427=CARTESIAN_POINT('',(0.138540107321024,-0.0233033725425638,0.0748375657449347));
#428=CARTESIAN_POINT('',(0.138540107321024,-0.0249682281831704,0.076980663705755));
#429=CARTESIAN_POINT('',(0.138540107321024,-0.0261047732111916,0.0795172287844154));
#430=CARTESIAN_POINT('',(0.138540107321024,-0.026949678784266,0.0832723228523565));
#431=CARTESIAN_POINT('',(0.138540107321024,-0.0268307869798214,0.0884525999794688));
#432=CARTESIAN_POINT('',(0.138540107321024,-0.0252262418939944,0.0943383224236008));
#433=CARTESIAN_POINT('',(0.138540107321024,-0.0235461587438867,0.0979019742975394));
#434=CARTESIAN_POINT('',(0.138540107321024,-0.0227314444134654,0.0993499988270178));
#435=CARTESIAN_POINT('',(0.138540107321024,-0.0226685552802709,0.0994617742114721));
#436=CARTESIAN_POINT('',(0.138540107321024,-0.0226056661470764,0.0995735495959265));
#437=CARTESIAN_POINT('',(0.138540107321024,-0.0225427770138819,0.0996853249803808));
#438=CARTESIAN_POINT('',(0.138540107321024,-0.0227314322778397,0.0993500055479507));
#439=CARTESIAN_POINT('',(0.138542107321024,-0.0227314277051294,0.0993500071233259));
#440=CARTESIAN_POINT('',(0.122459892678973,-0.0227314277051294,0.0993500071233259));
#441=CARTESIAN_POINT('',(0.122459892678973,-0.0156787534905871,0.0726759311233511));
#442=CARTESIAN_POINT('',(0.122459892678973,-0.0156924977024839,0.0726729854561294));
#443=CARTESIAN_POINT('',(0.122459892678973,-0.0166313885805313,0.0724742810016176));
#444=CARTESIAN_POINT('',(0.122459892678973,-0.0185180473226615,0.07241633537947));
#445=CARTESIAN_POINT('',(0.122459892678973,-0.0211205258542281,0.0732499923348417));
#446=CARTESIAN_POINT('',(0.122459892678973,-0.0233033725425638,0.0748375657449347));
#447=CARTESIAN_POINT('',(0.122459892678973,-0.0249682281831704,0.076980663705755));
#448=CARTESIAN_POINT('',(0.122459892678973,-0.0261047732111916,0.0795172287844154));
#449=CARTESIAN_POINT('',(0.122459892678973,-0.026949678784266,0.0832723228523565));
#450=CARTESIAN_POINT('',(0.122459892678973,-0.0268307869798214,0.0884525999794688));
#451=CARTESIAN_POINT('',(0.122459892678973,-0.0252262418939944,0.0943383224236008));
#452=CARTESIAN_POINT('',(0.122459892678973,-0.0235461587438867,0.0979019742975394));
#453=CARTESIAN_POINT('',(0.122459892678973,-0.0227314444134654,0.0993499988270178));
#454=CARTESIAN_POINT('',(0.122459892678973,-0.0226685552802709,0.0994617742114721));
#455=CARTESIAN_POINT('',(0.122459892678973,-0.0226056661470764,0.0995735495959265));
#456=CARTESIAN_POINT('',(0.122459892678973,-0.0225427770138819,0.0996853249803808));
#457=CARTESIAN_POINT('',(0.138542107321024,-0.0106081732023736,0.0737629679443605));
#458=CARTESIAN_POINT('',(0.138540107321024,-0.0106081732023736,0.0737629679443605));
#459=CARTESIAN_POINT('',(0.122459892678973,-0.0106081732023736,0.0737629679443605));
#460=CARTESIAN_POINT('',(0.138540107321024,-0.0101376,0.0829823225996173));
#461=CARTESIAN_POINT('',(0.122459892678973,-0.0101376,0.0829823225996173));
#462=CARTESIAN_POINT('',(0.138540107321024,-0.010530555389039,0.080527544528329));
#463=CARTESIAN_POINT('',(0.122459892678973,-0.010530555389039,0.080527544528329));
#464=CARTESIAN_POINT('',(0.138540107321024,-0.0123205618298176,0.0768673786541896));
#465=CARTESIAN_POINT('',(0.122459892678973,-0.0123205618298176,0.0768673786541896));
#466=CARTESIAN_POINT('',(0.138540107321024,-0.0162210998782458,0.0746570514299822));
#467=CARTESIAN_POINT('',(0.122459892678973,-0.0162210998782458,0.0746570514299822));
#468=CARTESIAN_POINT('',(0.138540107321024,-0.0200460056309904,0.0752194636010437));
#469=CARTESIAN_POINT('',(0.122459892678973,-0.0200460056309904,0.0752194636010437));
#470=CARTESIAN_POINT('',(0.138540107321024,-0.0229433929062654,0.0780112919754235));
#471=CARTESIAN_POINT('',(0.122459892678973,-0.0229433929062654,0.0780112919754235));
#472=CARTESIAN_POINT('',(0.138540107321024,-0.0244341303846369,0.0824563713145052));
#473=CARTESIAN_POINT('',(0.122459892678973,-0.0244341303846369,0.0824563713145052));
#474=CARTESIAN_POINT('',(0.138540107321024,-0.0243314388127988,0.0897767119370163));
#475=CARTESIAN_POINT('',(0.122459892678973,-0.0243314388127988,0.0897767119370163));
#476=CARTESIAN_POINT('',(0.138540107321024,-0.02198562486111,0.095889592175897));
#477=CARTESIAN_POINT('',(0.122459892678973,-0.02198562486111,0.095889592175897));
#478=CARTESIAN_POINT('',(0.138540107321024,-0.0198259291354225,0.0993499396813665));
#479=CARTESIAN_POINT('',(0.122459892678973,-0.0198259291354225,0.0993499396813665));
#480=CARTESIAN_POINT('',(0.138540107321024,-0.0101376,0.0829823225996173));
#481=CARTESIAN_POINT('',(0.138540107321024,-0.0120237885540287,0.0711993710740816));
#482=CARTESIAN_POINT('',(0.138540107321024,-0.0236969359422684,0.071399646624465));
#483=CARTESIAN_POINT('',(0.138540107321024,-0.027458912176325,0.0797627848610143));
#484=CARTESIAN_POINT('',(0.138540107321024,-0.0250091849198186,0.0910451699496321));
#485=CARTESIAN_POINT('',(0.138540107321024,-0.0198258922206929,0.0993499988274158));
#486=CARTESIAN_POINT('',(0.138540107321024,-0.0198259546849289,0.0993499840405991));
#487=CARTESIAN_POINT('',(0.122459892678973,-0.0101376,0.0829823225996173));
#488=CARTESIAN_POINT('',(0.122459892678973,-0.0120237885540287,0.0711993710740816));
#489=CARTESIAN_POINT('',(0.122459892678973,-0.0236969359422684,0.071399646624465));
#490=CARTESIAN_POINT('',(0.122459892678973,-0.027458912176325,0.0797627848610143));
#491=CARTESIAN_POINT('',(0.122459892678973,-0.0250091849198186,0.0910451699496321));
#492=CARTESIAN_POINT('',(0.122459892678973,-0.0198258922206929,0.0993499988274158));
#493=CARTESIAN_POINT('',(0.122459892678973,-0.0198259632014311,0.0993499609428765));
#494=CARTESIAN_POINT('',(0.138542107321024,-0.0198259632014311,0.0993499609428765));
#495=CARTESIAN_POINT('',(0.138542107321024,-0.0212788351874186,0.09934999882701));
#496=CARTESIAN_POINT('',(0.138540107321024,-0.0212788351874186,0.09934999882701));
#497=CARTESIAN_POINT('',(0.122459892678973,-0.0212788351874186,0.09934999882701));
#498=CARTESIAN_POINT('',(0.122459892678973,-0.0173069193798781,0.0859858349341985));
#499=CARTESIAN_POINT('',(0.138540107321024,-0.0101376,0.07485));
#500=CARTESIAN_POINT('',(0.120498,-0.0034376,0.08375));
#501=MECHANICAL_DESIGN_GEOMETRIC_PRESENTATION_REPRESENTATION('',(#264),
#502);
#502=(
GEOMETRIC_REPRESENTATION_CONTEXT(3)
GLOBAL_UNCERTAINTY_ASSIGNED_CONTEXT((#503))
GLOBAL_UNIT_ASSIGNED_CONTEXT((#506,#505,#504))
REPRESENTATION_CONTEXT('slide-in hook','TOP_LEVEL_ASSEMBLY_PART')
);
#503=UNCERTAINTY_MEASURE_WITH_UNIT(LENGTH_MEASURE(2.E-5),#506,
'DISTANCE_ACCURACY_VALUE','Maximum Tolerance applied to model');
#504=(
NAMED_UNIT(*)
SI_UNIT($,.STERADIAN.)
SOLID_ANGLE_UNIT()
);
#505=(
NAMED_UNIT(*)
PLANE_ANGLE_UNIT()
SI_UNIT($,.RADIAN.)
);
#506=(
LENGTH_UNIT()
NAMED_UNIT(*)
SI_UNIT($,.METRE.)
);
#507=PRODUCT_DEFINITION_SHAPE('','',#508);
#508=PRODUCT_DEFINITION('','',#510,#509);
#509=PRODUCT_DEFINITION_CONTEXT('',#516,'design');
#510=PRODUCT_DEFINITION_FORMATION_WITH_SPECIFIED_SOURCE('','',#512,
 .NOT_KNOWN.);
#511=PRODUCT_RELATED_PRODUCT_CATEGORY('','',(#512));
#512=PRODUCT('slide-in hook','slide-in hook','slide-in hook',(#514));
#513=PRODUCT_CATEGORY('','');
#514=PRODUCT_CONTEXT('',#516,'mechanical');
#515=APPLICATION_PROTOCOL_DEFINITION('international standard',
'ap242_managed_model_based_3d_engineering',2020,#516);
#516=APPLICATION_CONTEXT('managed model based 3d engineering');
ENDSEC;
END-ISO-10303-21;
