%TF.GenerationSoftware,KiCad,Pcbnew,10.0.5*%
%TF.CreationDate,2026-09-13T22:07:19+01:00*%
%TF.ProjectId,water_timer_revB,77617465-725f-4746-996d-65725f726576,rev?*%
%TF.SameCoordinates,Original*%
%TF.FileFunction,Copper,L3,Inr*%
%TF.FilePolarity,Positive*%
%FSLAX46Y46*%
G04 Gerber Fmt 4.6, Leading zero omitted, Abs format (unit mm)*
G04 Created by KiCad (PCBNEW 10.0.5) date 2026-09-13 22:07:19*
%MOMM*%
%LPD*%
G01*
G04 APERTURE LIST*
%TA.AperFunction,ComponentPad*%
%ADD10O,6.000000X4.500000*%
%TD*%
%TA.AperFunction,ViaPad*%
%ADD11C,0.600000*%
%TD*%
%TA.AperFunction,Conductor*%
%ADD12C,0.200000*%
%TD*%
G04 APERTURE END LIST*
D10*
%TO.N,VBAT*%
%TO.C,P1*%
X127254000Y-97580000D03*
X127254000Y-76080000D03*
%TD*%
D11*
%TO.N,VCC*%
X137922000Y-96774000D03*
%TO.N,3V3*%
X138684000Y-99060000D03*
%TO.N,VCC*%
X140208000Y-93980000D03*
%TO.N,UART2_TX*%
X131318000Y-90170000D03*
X137668000Y-90170000D03*
%TO.N,UART2_RX*%
X134366000Y-93980000D03*
X126746000Y-91440000D03*
%TO.N,SWCLK*%
X143764000Y-94996000D03*
X132588000Y-90932000D03*
%TO.N,SWDIO*%
X131405606Y-88566136D03*
X137414000Y-87630000D03*
%TO.N,NRST*%
X137668000Y-88646000D03*
X124460000Y-90678000D03*
%TO.N,GREEN*%
X121920000Y-86868000D03*
X125984000Y-93726000D03*
%TO.N,VCC*%
X130048000Y-91369000D03*
X134874000Y-96394000D03*
X124714000Y-91440000D03*
X128778000Y-80772000D03*
X141732000Y-73914000D03*
%TO.N,GND*%
X127508000Y-91948000D03*
X119888000Y-93980000D03*
X119888000Y-88392000D03*
X135890000Y-82804000D03*
X127508000Y-85852000D03*
X133604000Y-85852000D03*
X132842000Y-75184000D03*
X137922000Y-73914000D03*
X142748000Y-78994000D03*
X135636000Y-80264000D03*
X132842000Y-80772000D03*
X122428000Y-82296000D03*
%TO.N,VCC*%
X117983000Y-94615000D03*
%TD*%
%TO.N,UART2_TX*%
D12*
X137668000Y-90170000D02*
X131318000Y-90170000D01*
%TO.N,NRST*%
X124460000Y-90678000D02*
X125730000Y-89408000D01*
X125730000Y-89408000D02*
X136906000Y-89408000D01*
X136906000Y-89408000D02*
X137668000Y-88646000D01*
%TO.N,SWDIO*%
X131405606Y-88566136D02*
X131579742Y-88392000D01*
X131579742Y-88392000D02*
X135890000Y-88392000D01*
X135890000Y-88392000D02*
X136652000Y-87630000D01*
X136652000Y-87630000D02*
X137414000Y-87630000D01*
%TO.N,UART2_RX*%
X131810471Y-93980000D02*
X134366000Y-93980000D01*
X129178471Y-91348000D02*
X131810471Y-93980000D01*
X126838000Y-91348000D02*
X129178471Y-91348000D01*
X126746000Y-91440000D02*
X126838000Y-91348000D01*
%TO.N,SWCLK*%
X143002000Y-95758000D02*
X143764000Y-94996000D01*
X137414000Y-95758000D02*
X143002000Y-95758000D01*
X132588000Y-90932000D02*
X137414000Y-95758000D01*
%TO.N,GREEN*%
X121920000Y-86868000D02*
X121920000Y-89662000D01*
X121920000Y-89662000D02*
X125984000Y-93726000D01*
%TD*%
M02*
