%TF.GenerationSoftware,KiCad,Pcbnew,10.0.5*%
%TF.CreationDate,2026-09-13T22:07:19+01:00*%
%TF.ProjectId,water_timer_revB,77617465-725f-4746-996d-65725f726576,rev?*%
%TF.SameCoordinates,Original*%
%TF.FileFunction,Copper,L1,Top*%
%TF.FilePolarity,Positive*%
%FSLAX46Y46*%
G04 Gerber Fmt 4.6, Leading zero omitted, Abs format (unit mm)*
G04 Created by KiCad (PCBNEW 10.0.5) date 2026-09-13 22:07:19*
%MOMM*%
%LPD*%
G01*
G04 APERTURE LIST*
G04 Aperture macros list*
%AMRoundRect*
0 Rectangle with rounded corners*
0 $1 Rounding radius*
0 $2 $3 $4 $5 $6 $7 $8 $9 X,Y pos of 4 corners*
0 Add a 4 corners polygon primitive as box body*
4,1,4,$2,$3,$4,$5,$6,$7,$8,$9,$2,$3,0*
0 Add four circle primitives for the rounded corners*
1,1,$1+$1,$2,$3*
1,1,$1+$1,$4,$5*
1,1,$1+$1,$6,$7*
1,1,$1+$1,$8,$9*
0 Add four rect primitives between the rounded corners*
20,1,$1+$1,$2,$3,$4,$5,0*
20,1,$1+$1,$4,$5,$6,$7,0*
20,1,$1+$1,$6,$7,$8,$9,0*
20,1,$1+$1,$8,$9,$2,$3,0*%
G04 Aperture macros list end*
%TA.AperFunction,SMDPad,CuDef*%
%ADD10RoundRect,0.140000X0.140000X0.170000X-0.140000X0.170000X-0.140000X-0.170000X0.140000X-0.170000X0*%
%TD*%
%TA.AperFunction,SMDPad,CuDef*%
%ADD11RoundRect,0.100000X-0.637500X-0.100000X0.637500X-0.100000X0.637500X0.100000X-0.637500X0.100000X0*%
%TD*%
%TA.AperFunction,SMDPad,CuDef*%
%ADD12RoundRect,0.140000X-0.170000X0.140000X-0.170000X-0.140000X0.170000X-0.140000X0.170000X0.140000X0*%
%TD*%
%TA.AperFunction,SMDPad,CuDef*%
%ADD13C,2.000000*%
%TD*%
%TA.AperFunction,SMDPad,CuDef*%
%ADD14R,1.000000X0.750000*%
%TD*%
%TA.AperFunction,SMDPad,CuDef*%
%ADD15RoundRect,0.135000X-0.135000X-0.185000X0.135000X-0.185000X0.135000X0.185000X-0.135000X0.185000X0*%
%TD*%
%TA.AperFunction,SMDPad,CuDef*%
%ADD16RoundRect,0.225000X-0.375000X0.225000X-0.375000X-0.225000X0.375000X-0.225000X0.375000X0.225000X0*%
%TD*%
%TA.AperFunction,SMDPad,CuDef*%
%ADD17RoundRect,0.140000X-0.140000X-0.170000X0.140000X-0.170000X0.140000X0.170000X-0.140000X0.170000X0*%
%TD*%
%TA.AperFunction,SMDPad,CuDef*%
%ADD18RoundRect,0.135000X0.135000X0.185000X-0.135000X0.185000X-0.135000X-0.185000X0.135000X-0.185000X0*%
%TD*%
%TA.AperFunction,SMDPad,CuDef*%
%ADD19O,1.500000X0.800000*%
%TD*%
%TA.AperFunction,SMDPad,CuDef*%
%ADD20RoundRect,0.243750X-0.243750X-0.456250X0.243750X-0.456250X0.243750X0.456250X-0.243750X0.456250X0*%
%TD*%
%TA.AperFunction,ComponentPad*%
%ADD21O,6.000000X4.500000*%
%TD*%
%TA.AperFunction,ViaPad*%
%ADD22C,0.600000*%
%TD*%
%TA.AperFunction,Conductor*%
%ADD23C,0.500000*%
%TD*%
%TA.AperFunction,Conductor*%
%ADD24C,0.300000*%
%TD*%
%TA.AperFunction,Conductor*%
%ADD25C,0.200000*%
%TD*%
G04 APERTURE END LIST*
D10*
%TO.P,C5,2,~_2*%
%TO.N,GND*%
X120424000Y-92964000D03*
%TO.P,C5,1,~_1*%
%TO.N,VCC*%
X121384000Y-92964000D03*
%TD*%
D11*
%TO.P,U1,20,PA14_20*%
%TO.N,SWCLK*%
X128846500Y-88769000D03*
%TO.P,U1,19,PA13_19*%
%TO.N,SWDIO*%
X128846500Y-89419000D03*
%TO.P,U1,18,PA10_18*%
%TO.N,UART2_RX*%
X128846500Y-90069000D03*
%TO.P,U1,17,PA9_17*%
%TO.N,UART2_TX*%
X128846500Y-90719000D03*
%TO.P,U1,16,VDD_16*%
%TO.N,VCC*%
X128846500Y-91369000D03*
%TO.P,U1,15,VSS_15*%
%TO.N,GND*%
X128846500Y-92019000D03*
%TO.P,U1,14,PB1_14*%
%TO.N,PB1*%
X128846500Y-92669000D03*
%TO.P,U1,13,PA7_13*%
%TO.N,BUTTON_2*%
X128846500Y-93319000D03*
%TO.P,U1,12,PA6_12*%
%TO.N,BUTTON_1*%
X128846500Y-93969000D03*
%TO.P,U1,11,PA5_11*%
%TO.N,GREEN*%
X128846500Y-94619000D03*
%TO.P,U1,10,PA4_10*%
%TO.N,PA4*%
X123121500Y-94619000D03*
%TO.P,U1,9,PA3_9*%
%TO.N,PA3*%
X123121500Y-93969000D03*
%TO.P,U1,8,PA2_8*%
%TO.N,RED*%
X123121500Y-93319000D03*
%TO.P,U1,7,PA1_7*%
%TO.N,Net-(U1-PA1)*%
X123121500Y-92669000D03*
%TO.P,U1,6,PA0_6*%
%TO.N,PA0*%
X123121500Y-92019000D03*
%TO.P,U1,5,VDDA_5*%
%TO.N,VCC*%
X123121500Y-91369000D03*
%TO.P,U1,4,NRST_4*%
%TO.N,NRST*%
X123121500Y-90719000D03*
%TO.P,U1,3,PC15_3*%
%TO.N,PC15*%
X123121500Y-90069000D03*
%TO.P,U1,2,PC14_2*%
%TO.N,PC14*%
X123121500Y-89419000D03*
%TO.P,U1,1,PB9_1*%
%TO.N,PB9{slash}BOOT0*%
X123121500Y-88769000D03*
%TD*%
D12*
%TO.P,C4,2,~_2*%
%TO.N,GND*%
X130524000Y-92106000D03*
%TO.P,C4,1,~_1*%
%TO.N,VCC*%
X130524000Y-91146000D03*
%TD*%
D10*
%TO.P,C3,2,~_2*%
%TO.N,GND*%
X120424000Y-91948000D03*
%TO.P,C3,1,~_1*%
%TO.N,VCC*%
X121384000Y-91948000D03*
%TD*%
D13*
%TO.P,TP11,1,1_1*%
%TO.N,NRST*%
X119126000Y-81534000D03*
%TD*%
%TO.P,TP8,1,1_1*%
%TO.N,PB9{slash}BOOT0*%
X119126000Y-84836000D03*
%TD*%
D14*
%TO.P,SW1,1,1_1*%
%TO.N,BUTTON_1*%
X127591500Y-83072500D03*
X133591500Y-83072500D03*
%TO.P,SW1,2,2_2*%
%TO.N,GND*%
X127591500Y-86822500D03*
X133591500Y-86822500D03*
%TD*%
D15*
%TO.P,R3,1*%
%TO.N,GREEN*%
X122807000Y-85896000D03*
%TO.P,R3,2*%
%TO.N,Net-(D1-A)*%
X123827000Y-85896000D03*
%TD*%
D14*
%TO.P,SW2,1,1_1*%
%TO.N,BUTTON_2*%
X136754000Y-76572500D03*
X142754000Y-76572500D03*
%TO.P,SW2,2,2_2*%
%TO.N,GND*%
X136754000Y-80322500D03*
X142754000Y-80322500D03*
%TD*%
D16*
%TO.P,D4,1,K_1*%
%TO.N,VCC*%
X133604000Y-96394000D03*
%TO.P,D4,2,A_2*%
%TO.N,VBAT*%
X133604000Y-99694000D03*
%TD*%
D17*
%TO.P,C6,1,~_1*%
%TO.N,GND*%
X120424000Y-89916000D03*
%TO.P,C6,2,~_2*%
%TO.N,NRST*%
X121384000Y-89916000D03*
%TD*%
D16*
%TO.P,D5,1,K_1*%
%TO.N,VCC*%
X136144000Y-96394000D03*
%TO.P,D5,2,A_2*%
%TO.N,3V3*%
X136144000Y-99694000D03*
%TD*%
D15*
%TO.P,R6,1*%
%TO.N,GND*%
X120394000Y-88900000D03*
%TO.P,R6,2*%
%TO.N,PB9{slash}BOOT0*%
X121414000Y-88900000D03*
%TD*%
D18*
%TO.P,R7,1*%
%TO.N,NRST*%
X121442000Y-90932000D03*
%TO.P,R7,2*%
%TO.N,VCC*%
X120422000Y-90932000D03*
%TD*%
D19*
%TO.P,J2,1,Pin_1_1*%
%TO.N,NRST*%
X143268000Y-90043000D03*
%TO.P,J2,2,Pin_2_2*%
%TO.N,SWDIO*%
X143268000Y-91313000D03*
%TO.P,J2,3,Pin_3_3*%
%TO.N,SWCLK*%
X143268000Y-92583000D03*
%TO.P,J2,4,Pin_4_4*%
%TO.N,3V3*%
X143268000Y-93853000D03*
%TD*%
D15*
%TO.P,R5,1*%
%TO.N,RED*%
X133246400Y-78479200D03*
%TO.P,R5,2*%
%TO.N,Net-(D3-A)*%
X134266400Y-78479200D03*
%TD*%
%TO.P,R1,1,~_1*%
%TO.N,VCC*%
X129284000Y-81578000D03*
%TO.P,R1,2,~_2*%
%TO.N,BUTTON_1*%
X130304000Y-81578000D03*
%TD*%
D20*
%TO.P,D3,1,K_1*%
%TO.N,GND*%
X132869700Y-76752000D03*
%TO.P,D3,2,A_2*%
%TO.N,Net-(D3-A)*%
X134744700Y-76752000D03*
%TD*%
%TO.P,D1,1,K_1*%
%TO.N,GND*%
X122379500Y-84118000D03*
%TO.P,D1,2,A_2*%
%TO.N,Net-(D1-A)*%
X124254500Y-84118000D03*
%TD*%
D15*
%TO.P,R4,1*%
%TO.N,GREEN*%
X136396000Y-85896000D03*
%TO.P,R4,2*%
%TO.N,Net-(D2-A)*%
X137416000Y-85896000D03*
%TD*%
D20*
%TO.P,D2,1,K_1*%
%TO.N,GND*%
X135943100Y-84118000D03*
%TO.P,D2,2,A_2*%
%TO.N,Net-(D2-A)*%
X137818100Y-84118000D03*
%TD*%
D17*
%TO.P,C1,1,~_1*%
%TO.N,BUTTON_1*%
X131346000Y-81578000D03*
%TO.P,C1,2,~_2*%
%TO.N,GND*%
X132306000Y-81578000D03*
%TD*%
D10*
%TO.P,C2,1,~_1*%
%TO.N,BUTTON_2*%
X139418000Y-74930000D03*
%TO.P,C2,2,~_2*%
%TO.N,GND*%
X138458000Y-74930000D03*
%TD*%
D18*
%TO.P,R2,1,~_1*%
%TO.N,VCC*%
X141480000Y-74930000D03*
%TO.P,R2,2,~_2*%
%TO.N,BUTTON_2*%
X140460000Y-74930000D03*
%TD*%
D21*
%TO.P,P1,1,1_1*%
%TO.N,VBAT*%
X127254000Y-97580000D03*
X127254000Y-76080000D03*
%TD*%
D22*
%TO.N,VCC*%
X137922000Y-96774000D03*
%TO.N,3V3*%
X138684000Y-99060000D03*
%TO.N,VCC*%
X140208000Y-93980000D03*
%TO.N,UART2_TX*%
X131318000Y-90170000D03*
X137668000Y-90170000D03*
%TO.N,UART2_RX*%
X134366000Y-93980000D03*
X126746000Y-91440000D03*
%TO.N,SWCLK*%
X143764000Y-94996000D03*
X132588000Y-90932000D03*
%TO.N,SWDIO*%
X131405606Y-88566136D03*
X137414000Y-87630000D03*
%TO.N,NRST*%
X137668000Y-88646000D03*
X124460000Y-90678000D03*
%TO.N,GREEN*%
X121920000Y-86868000D03*
X125984000Y-93726000D03*
%TO.N,VCC*%
X130048000Y-91369000D03*
X134874000Y-96394000D03*
X124714000Y-91440000D03*
X128778000Y-80772000D03*
X141732000Y-73914000D03*
%TO.N,GND*%
X127508000Y-91948000D03*
X119888000Y-93980000D03*
X119888000Y-88392000D03*
X135890000Y-82804000D03*
X127508000Y-85852000D03*
X133604000Y-85852000D03*
X132842000Y-75184000D03*
X137922000Y-73914000D03*
X142748000Y-78994000D03*
X135636000Y-80264000D03*
X132842000Y-80772000D03*
X122428000Y-82296000D03*
%TO.N,VCC*%
X117983000Y-94615000D03*
%TD*%
%TO.N,VCC*%
D23*
X137542000Y-96394000D02*
X137922000Y-96774000D01*
X136144000Y-96394000D02*
X137542000Y-96394000D01*
%TO.N,GND*%
D24*
X128846500Y-92019000D02*
X130437000Y-92019000D01*
X130437000Y-92019000D02*
X130524000Y-92106000D01*
%TO.N,VCC*%
D25*
X121384000Y-91948000D02*
X121384000Y-92964000D01*
%TO.N,GND*%
D24*
X120424000Y-92936000D02*
X120424000Y-91948000D01*
X119888000Y-93980000D02*
X119888000Y-93472000D01*
X119888000Y-93472000D02*
X120424000Y-92936000D01*
%TO.N,UART2_TX*%
D25*
X130302000Y-90170000D02*
X131318000Y-90170000D01*
%TO.N,SWDIO*%
X131405606Y-88566136D02*
X130381864Y-88566136D01*
X130381864Y-88566136D02*
X129529000Y-89419000D01*
X129529000Y-89419000D02*
X128846500Y-89419000D01*
%TO.N,SWCLK*%
X128846500Y-88769000D02*
X129731500Y-87884000D01*
X129731500Y-87884000D02*
X131572000Y-87884000D01*
X131572000Y-87884000D02*
X132588000Y-88900000D01*
X132588000Y-88900000D02*
X132588000Y-90932000D01*
%TO.N,UART2_TX*%
X129753000Y-90719000D02*
X130302000Y-90170000D01*
X128846500Y-90719000D02*
X129753000Y-90719000D01*
%TO.N,UART2_RX*%
X126746000Y-91186000D02*
X126746000Y-91440000D01*
X127863000Y-90069000D02*
X126746000Y-91186000D01*
X128846500Y-90069000D02*
X127863000Y-90069000D01*
%TO.N,SWCLK*%
X143268000Y-92583000D02*
X143618000Y-92583000D01*
X143618000Y-92583000D02*
X144318000Y-93283000D01*
X144318000Y-93283000D02*
X144318000Y-94442000D01*
X144318000Y-94442000D02*
X143764000Y-94996000D01*
%TO.N,SWDIO*%
X142194949Y-87630000D02*
X137414000Y-87630000D01*
X144318000Y-89753051D02*
X142194949Y-87630000D01*
X144318000Y-90332949D02*
X144318000Y-89753051D01*
X143337949Y-91313000D02*
X144318000Y-90332949D01*
X143268000Y-91313000D02*
X143337949Y-91313000D01*
%TO.N,NRST*%
X143268000Y-90043000D02*
X143268000Y-89443000D01*
X143268000Y-89443000D02*
X142471000Y-88646000D01*
X142471000Y-88646000D02*
X137668000Y-88646000D01*
X124419000Y-90719000D02*
X124460000Y-90678000D01*
X123121500Y-90719000D02*
X124419000Y-90719000D01*
%TO.N,GND*%
D24*
X120394000Y-88900000D02*
X120394000Y-89886000D01*
X120394000Y-89886000D02*
X120424000Y-89916000D01*
%TO.N,GREEN*%
D25*
X136396000Y-85896000D02*
X136396000Y-88893242D01*
X136396000Y-88893242D02*
X130670242Y-94619000D01*
X130670242Y-94619000D02*
X128846500Y-94619000D01*
%TO.N,Net-(D2-A)*%
D24*
X137818100Y-84118000D02*
X137818100Y-85493900D01*
X137818100Y-85493900D02*
X137416000Y-85896000D01*
%TO.N,GREEN*%
D25*
X122807000Y-85981000D02*
X121920000Y-86868000D01*
X122807000Y-85896000D02*
X122807000Y-85981000D01*
%TO.N,NRST*%
X119126000Y-81534000D02*
X120904000Y-83312000D01*
X120904000Y-83312000D02*
X120904000Y-87320314D01*
X120904000Y-87320314D02*
X121721686Y-88138000D01*
X121721686Y-88138000D02*
X123796456Y-88138000D01*
X123927456Y-88269000D02*
X124159000Y-88500544D01*
X123858999Y-90719000D02*
X123121500Y-90719000D01*
X123796456Y-88138000D02*
X123927456Y-88269000D01*
X124159000Y-88500544D02*
X124159000Y-89037456D01*
X124159000Y-89037456D02*
X124159000Y-90418999D01*
X124159000Y-90418999D02*
X123858999Y-90719000D01*
%TO.N,PB9{slash}BOOT0*%
X119126000Y-84836000D02*
X120142000Y-85852000D01*
X120142000Y-85852000D02*
X120142000Y-87124000D01*
X120142000Y-87124000D02*
X121414000Y-88396000D01*
X121414000Y-88396000D02*
X121414000Y-88900000D01*
%TO.N,GREEN*%
D24*
X126877000Y-94619000D02*
X125984000Y-93726000D01*
X128846500Y-94619000D02*
X126877000Y-94619000D01*
%TO.N,RED*%
X123121500Y-93319000D02*
X123848168Y-93319000D01*
X125364000Y-82408000D02*
X129292800Y-78479200D01*
X123848168Y-93319000D02*
X125364000Y-91803168D01*
X125364000Y-91803168D02*
X125364000Y-82408000D01*
X129292800Y-78479200D02*
X133246400Y-78479200D01*
%TO.N,BUTTON_2*%
X128846500Y-93319000D02*
X131333846Y-93319000D01*
X131333846Y-93319000D02*
X134874000Y-89778846D01*
X134874000Y-89778846D02*
X134874000Y-78994000D01*
X134874000Y-78994000D02*
X136754000Y-77114000D01*
X136754000Y-77114000D02*
X136754000Y-76572500D01*
%TO.N,BUTTON_1*%
X125984000Y-84328000D02*
X125984000Y-92456000D01*
X127591500Y-83072500D02*
X127239500Y-83072500D01*
X127239500Y-83072500D02*
X125984000Y-84328000D01*
X125984000Y-92456000D02*
X127497000Y-93969000D01*
X127497000Y-93969000D02*
X128846500Y-93969000D01*
X133591500Y-83072500D02*
X132791500Y-83072500D01*
X132791500Y-83072500D02*
X131346000Y-81627000D01*
X131346000Y-81627000D02*
X131346000Y-81578000D01*
X127591500Y-83072500D02*
X128809500Y-83072500D01*
X128809500Y-83072500D02*
X130304000Y-81578000D01*
%TO.N,3V3*%
D25*
X143268000Y-93853000D02*
X143268000Y-94453000D01*
X143268000Y-94453000D02*
X138027000Y-99694000D01*
X138027000Y-99694000D02*
X136144000Y-99694000D01*
%TO.N,VCC*%
X130048000Y-91369000D02*
X130301000Y-91369000D01*
D23*
X134874000Y-96394000D02*
X136144000Y-96394000D01*
X133604000Y-96394000D02*
X134874000Y-96394000D01*
%TO.N,VBAT*%
X133604000Y-99694000D02*
X129368000Y-99694000D01*
X129368000Y-99694000D02*
X127254000Y-97580000D01*
%TO.N,PB9{slash}BOOT0*%
D25*
X123121500Y-88769000D02*
X121545000Y-88769000D01*
X121545000Y-88769000D02*
X121414000Y-88900000D01*
%TO.N,VCC*%
X128846500Y-91369000D02*
X130048000Y-91369000D01*
X130301000Y-91369000D02*
X130524000Y-91146000D01*
X123121500Y-91369000D02*
X124643000Y-91369000D01*
X121384000Y-91948000D02*
X121963000Y-91369000D01*
X121963000Y-91369000D02*
X123121500Y-91369000D01*
X121384000Y-91948000D02*
X121384000Y-91894000D01*
X121384000Y-91894000D02*
X120422000Y-90932000D01*
%TO.N,NRST*%
X121442000Y-90932000D02*
X121442000Y-89974000D01*
X121442000Y-89974000D02*
X121384000Y-89916000D01*
X123121500Y-90719000D02*
X121655000Y-90719000D01*
X121655000Y-90719000D02*
X121442000Y-90932000D01*
%TO.N,Net-(D1-A)*%
D24*
X124254500Y-84118000D02*
X124254500Y-85468500D01*
X124254500Y-85468500D02*
X123827000Y-85896000D01*
%TO.N,Net-(D3-A)*%
X134744700Y-76752000D02*
X134744700Y-78000900D01*
X134744700Y-78000900D02*
X134266400Y-78479200D01*
%TO.N,VCC*%
X129284000Y-81278000D02*
X128778000Y-80772000D01*
X129284000Y-81578000D02*
X129284000Y-81278000D01*
%TO.N,BUTTON_1*%
X130304000Y-81578000D02*
X131346000Y-81578000D01*
%TO.N,BUTTON_2*%
X140460000Y-74930000D02*
X142102500Y-76572500D01*
X142102500Y-76572500D02*
X142754000Y-76572500D01*
X136754000Y-76572500D02*
X138085499Y-76572500D01*
X138085499Y-76572500D02*
X139418000Y-75239999D01*
X139418000Y-75239999D02*
X139418000Y-74930000D01*
%TO.N,VCC*%
X141480000Y-74166000D02*
X141732000Y-73914000D01*
X141480000Y-74930000D02*
X141480000Y-74166000D01*
%TO.N,BUTTON_2*%
X139418000Y-74930000D02*
X140460000Y-74930000D01*
%TO.N,GND*%
X127579000Y-92019000D02*
X127508000Y-91948000D01*
X128846500Y-92019000D02*
X127579000Y-92019000D01*
X119888000Y-88394000D02*
X119888000Y-88392000D01*
X120394000Y-88900000D02*
X119888000Y-88394000D01*
X120424000Y-88930000D02*
X120394000Y-88900000D01*
X135943100Y-84118000D02*
X135943100Y-82857100D01*
X127591500Y-85935500D02*
X127508000Y-85852000D01*
X127591500Y-86822500D02*
X127591500Y-85935500D01*
X133591500Y-86822500D02*
X133591500Y-85864500D01*
X132869700Y-75211700D02*
X132842000Y-75184000D01*
X132869700Y-76752000D02*
X132869700Y-75211700D01*
X138458000Y-74450000D02*
X137922000Y-73914000D01*
X138458000Y-74930000D02*
X138458000Y-74450000D01*
X142754000Y-80322500D02*
X142754000Y-79000000D01*
X135694500Y-80322500D02*
X135636000Y-80264000D01*
X136754000Y-80322500D02*
X135694500Y-80322500D01*
X132306000Y-81308000D02*
X132842000Y-80772000D01*
X132306000Y-81578000D02*
X132306000Y-81308000D01*
X122379500Y-84118000D02*
X122379500Y-82344500D01*
%TD*%
M02*
