M48
; DRILL file KiCad 10.0.5 date 2026-09-13T22:07:19
; FORMAT={-:-/ absolute / inch / decimal}
; #@! TF.CreationDate,2026-09-13T22:07:19+01:00
; #@! TF.GenerationSoftware,Kicad,Pcbnew,10.0.5
; #@! TF.FileFunction,Plated,1,4,PTH
FMAT,2
INCH
; #@! TA.AperFunction,Plated,PTH,ViaDrill
T1C0.0118
; #@! TA.AperFunction,Plated,PTH,ComponentDrill
T2C0.0591
%
G90
G05
T1
X4.645Y-3.725
X4.72Y-3.48
X4.72Y-3.7
X4.8Y-3.42
X4.82Y-3.24
X4.9Y-3.57
X4.91Y-3.6
X4.96Y-3.69
X4.99Y-3.6
X5.02Y-3.38
X5.02Y-3.62
X5.07Y-3.18
X5.12Y-3.5972
X5.17Y-3.55
X5.1734Y-3.4869
X5.22Y-3.58
X5.23Y-2.96
X5.23Y-3.18
X5.26Y-3.38
X5.29Y-3.7
X5.31Y-3.795
X5.34Y-3.16
X5.35Y-3.26
X5.41Y-3.45
X5.42Y-3.49
X5.42Y-3.55
X5.43Y-2.91
X5.43Y-3.81
X5.46Y-3.9
X5.52Y-3.7
X5.58Y-2.91
X5.62Y-3.11
X5.66Y-3.74
T2
G00X4.9608Y-2.9953
M15
G01X5.0592Y-2.9953
M16
G05
G00X4.9608Y-3.8417
M15
G01X5.0592Y-3.8417
M16
G05
M30
