%TF.GenerationSoftware,KiCad,Pcbnew,10.0.5*%
%TF.CreationDate,2026-09-13T22:07:19+01:00*%
%TF.ProjectId,water_timer_revB,77617465-725f-4746-996d-65725f726576,rev?*%
%TF.SameCoordinates,Original*%
%TF.FileFunction,Soldermask,Top*%
%TF.FilePolarity,Negative*%
%FSLAX46Y46*%
G04 Gerber Fmt 4.6, Leading zero omitted, Abs format (unit mm)*
G04 Created by KiCad (PCBNEW 10.0.5) date 2026-09-13 22:07:19*
%MOMM*%
%LPD*%
G01*
G04 APERTURE LIST*
G04 Aperture macros list*
%AMRoundRect*
0 Rectangle with rounded corners*
0 $1 Rounding radius*
0 $2 $3 $4 $5 $6 $7 $8 $9 X,Y pos of 4 corners*
0 Add a 4 corners polygon primitive as box body*
4,1,4,$2,$3,$4,$5,$6,$7,$8,$9,$2,$3,0*
0 Add four circle primitives for the rounded corners*
1,1,$1+$1,$2,$3*
1,1,$1+$1,$4,$5*
1,1,$1+$1,$6,$7*
1,1,$1+$1,$8,$9*
0 Add four rect primitives between the rounded corners*
20,1,$1+$1,$2,$3,$4,$5,0*
20,1,$1+$1,$4,$5,$6,$7,0*
20,1,$1+$1,$6,$7,$8,$9,0*
20,1,$1+$1,$8,$9,$2,$3,0*%
G04 Aperture macros list end*
%ADD10RoundRect,0.140000X0.140000X0.170000X-0.140000X0.170000X-0.140000X-0.170000X0.140000X-0.170000X0*%
%ADD11RoundRect,0.100000X-0.637500X-0.100000X0.637500X-0.100000X0.637500X0.100000X-0.637500X0.100000X0*%
%ADD12RoundRect,0.140000X-0.170000X0.140000X-0.170000X-0.140000X0.170000X-0.140000X0.170000X0.140000X0*%
%ADD13C,2.000000*%
%ADD14R,1.000000X0.750000*%
%ADD15RoundRect,0.135000X-0.135000X-0.185000X0.135000X-0.185000X0.135000X0.185000X-0.135000X0.185000X0*%
%ADD16RoundRect,0.225000X-0.375000X0.225000X-0.375000X-0.225000X0.375000X-0.225000X0.375000X0.225000X0*%
%ADD17RoundRect,0.140000X-0.140000X-0.170000X0.140000X-0.170000X0.140000X0.170000X-0.140000X0.170000X0*%
%ADD18RoundRect,0.135000X0.135000X0.185000X-0.135000X0.185000X-0.135000X-0.185000X0.135000X-0.185000X0*%
%ADD19O,1.500000X0.800000*%
%ADD20RoundRect,0.243750X-0.243750X-0.456250X0.243750X-0.456250X0.243750X0.456250X-0.243750X0.456250X0*%
%ADD21O,6.000000X4.500000*%
G04 APERTURE END LIST*
D10*
%TO.C,C5*%
X120424000Y-92964000D03*
X121384000Y-92964000D03*
%TD*%
D11*
%TO.C,U1*%
X128846500Y-88769000D03*
X128846500Y-89419000D03*
X128846500Y-90069000D03*
X128846500Y-90719000D03*
X128846500Y-91369000D03*
X128846500Y-92019000D03*
X128846500Y-92669000D03*
X128846500Y-93319000D03*
X128846500Y-93969000D03*
X128846500Y-94619000D03*
X123121500Y-94619000D03*
X123121500Y-93969000D03*
X123121500Y-93319000D03*
X123121500Y-92669000D03*
X123121500Y-92019000D03*
X123121500Y-91369000D03*
X123121500Y-90719000D03*
X123121500Y-90069000D03*
X123121500Y-89419000D03*
X123121500Y-88769000D03*
%TD*%
D12*
%TO.C,C4*%
X130524000Y-92106000D03*
X130524000Y-91146000D03*
%TD*%
D10*
%TO.C,C3*%
X120424000Y-91948000D03*
X121384000Y-91948000D03*
%TD*%
D13*
%TO.C,TP11*%
X119126000Y-81534000D03*
%TD*%
%TO.C,TP8*%
X119126000Y-84836000D03*
%TD*%
D14*
%TO.C,SW1*%
X127591500Y-83072500D03*
X133591500Y-83072500D03*
X127591500Y-86822500D03*
X133591500Y-86822500D03*
%TD*%
D15*
%TO.C,R3*%
X122807000Y-85896000D03*
X123827000Y-85896000D03*
%TD*%
D14*
%TO.C,SW2*%
X136754000Y-76572500D03*
X142754000Y-76572500D03*
X136754000Y-80322500D03*
X142754000Y-80322500D03*
%TD*%
D16*
%TO.C,D4*%
X133604000Y-96394000D03*
X133604000Y-99694000D03*
%TD*%
D17*
%TO.C,C6*%
X120424000Y-89916000D03*
X121384000Y-89916000D03*
%TD*%
D16*
%TO.C,D5*%
X136144000Y-96394000D03*
X136144000Y-99694000D03*
%TD*%
D15*
%TO.C,R6*%
X120394000Y-88900000D03*
X121414000Y-88900000D03*
%TD*%
D18*
%TO.C,R7*%
X121442000Y-90932000D03*
X120422000Y-90932000D03*
%TD*%
D19*
%TO.C,J2*%
X143268000Y-90043000D03*
X143268000Y-91313000D03*
X143268000Y-92583000D03*
X143268000Y-93853000D03*
%TD*%
D15*
%TO.C,R5*%
X133246400Y-78479200D03*
X134266400Y-78479200D03*
%TD*%
%TO.C,R1*%
X129284000Y-81578000D03*
X130304000Y-81578000D03*
%TD*%
D20*
%TO.C,D3*%
X132869700Y-76752000D03*
X134744700Y-76752000D03*
%TD*%
%TO.C,D1*%
X122379500Y-84118000D03*
X124254500Y-84118000D03*
%TD*%
D15*
%TO.C,R4*%
X136396000Y-85896000D03*
X137416000Y-85896000D03*
%TD*%
D20*
%TO.C,D2*%
X135943100Y-84118000D03*
X137818100Y-84118000D03*
%TD*%
D17*
%TO.C,C1*%
X131346000Y-81578000D03*
X132306000Y-81578000D03*
%TD*%
D10*
%TO.C,C2*%
X139418000Y-74930000D03*
X138458000Y-74930000D03*
%TD*%
D18*
%TO.C,R2*%
X141480000Y-74930000D03*
X140460000Y-74930000D03*
%TD*%
D21*
%TO.C,P1*%
X127254000Y-97580000D03*
X127254000Y-76080000D03*
%TD*%
M02*
