%TF.GenerationSoftware,KiCad,Pcbnew,10.0.5*%
%TF.CreationDate,2026-09-13T22:07:19+01:00*%
%TF.ProjectId,water_timer_revB,77617465-725f-4746-996d-65725f726576,rev?*%
%TF.SameCoordinates,Original*%
%TF.FileFunction,Copper,L2,Inr*%
%TF.FilePolarity,Positive*%
%FSLAX46Y46*%
G04 Gerber Fmt 4.6, Leading zero omitted, Abs format (unit mm)*
G04 Created by KiCad (PCBNEW 10.0.5) date 2026-09-13 22:07:19*
%MOMM*%
%LPD*%
G01*
G04 APERTURE LIST*
%TA.AperFunction,ComponentPad*%
%ADD10O,6.000000X4.500000*%
%TD*%
%TA.AperFunction,ViaPad*%
%ADD11C,0.600000*%
%TD*%
G04 APERTURE END LIST*
D10*
%TO.N,VBAT*%
%TO.C,P1*%
X127254000Y-97580000D03*
X127254000Y-76080000D03*
%TD*%
D11*
%TO.N,VCC*%
X137922000Y-96774000D03*
%TO.N,3V3*%
X138684000Y-99060000D03*
%TO.N,VCC*%
X140208000Y-93980000D03*
%TO.N,UART2_TX*%
X131318000Y-90170000D03*
X137668000Y-90170000D03*
%TO.N,UART2_RX*%
X134366000Y-93980000D03*
X126746000Y-91440000D03*
%TO.N,SWCLK*%
X143764000Y-94996000D03*
X132588000Y-90932000D03*
%TO.N,SWDIO*%
X131405606Y-88566136D03*
X137414000Y-87630000D03*
%TO.N,NRST*%
X137668000Y-88646000D03*
X124460000Y-90678000D03*
%TO.N,GREEN*%
X121920000Y-86868000D03*
X125984000Y-93726000D03*
%TO.N,VCC*%
X130048000Y-91369000D03*
X134874000Y-96394000D03*
X124714000Y-91440000D03*
X128778000Y-80772000D03*
X141732000Y-73914000D03*
%TO.N,GND*%
X127508000Y-91948000D03*
X119888000Y-93980000D03*
X119888000Y-88392000D03*
X135890000Y-82804000D03*
X127508000Y-85852000D03*
X133604000Y-85852000D03*
X132842000Y-75184000D03*
X137922000Y-73914000D03*
X142748000Y-78994000D03*
X135636000Y-80264000D03*
X132842000Y-80772000D03*
X122428000Y-82296000D03*
%TO.N,VCC*%
X117983000Y-94615000D03*
%TD*%
%TA.AperFunction,Conductor*%
%TO.N,VCC*%
G36*
X142003736Y-72750726D02*
G01*
X142293796Y-72768271D01*
X142308659Y-72770076D01*
X142590797Y-72821780D01*
X142605334Y-72825363D01*
X142879182Y-72910698D01*
X142893163Y-72916000D01*
X143154734Y-73033724D01*
X143167987Y-73040680D01*
X143413458Y-73189071D01*
X143425776Y-73197573D01*
X143651573Y-73374474D01*
X143662781Y-73384404D01*
X143865595Y-73587218D01*
X143875525Y-73598426D01*
X144052422Y-73824217D01*
X144060928Y-73836541D01*
X144209319Y-74082012D01*
X144216277Y-74095269D01*
X144305352Y-74293185D01*
X144333994Y-74356823D01*
X144339304Y-74370825D01*
X144424635Y-74644664D01*
X144428219Y-74659202D01*
X144479923Y-74941340D01*
X144481728Y-74956205D01*
X144499274Y-75246263D01*
X144499500Y-75253750D01*
X144499500Y-94300059D01*
X144479815Y-94367098D01*
X144427011Y-94412853D01*
X144357853Y-94422797D01*
X144294297Y-94393772D01*
X144287819Y-94387740D01*
X144274292Y-94374213D01*
X144274288Y-94374210D01*
X144143185Y-94286609D01*
X144143172Y-94286602D01*
X143997501Y-94226264D01*
X143997489Y-94226261D01*
X143842845Y-94195500D01*
X143842842Y-94195500D01*
X143685158Y-94195500D01*
X143685155Y-94195500D01*
X143530510Y-94226261D01*
X143530498Y-94226264D01*
X143384827Y-94286602D01*
X143384814Y-94286609D01*
X143253711Y-94374210D01*
X143253707Y-94374213D01*
X143142213Y-94485707D01*
X143142210Y-94485711D01*
X143054609Y-94616814D01*
X143054602Y-94616827D01*
X142994264Y-94762498D01*
X142994261Y-94762510D01*
X142963500Y-94917153D01*
X142963500Y-95074846D01*
X142994261Y-95229489D01*
X142994264Y-95229501D01*
X143054602Y-95375172D01*
X143054609Y-95375185D01*
X143142210Y-95506288D01*
X143142213Y-95506292D01*
X143253707Y-95617786D01*
X143253711Y-95617789D01*
X143384814Y-95705390D01*
X143384827Y-95705397D01*
X143530498Y-95765735D01*
X143530503Y-95765737D01*
X143685153Y-95796499D01*
X143685156Y-95796500D01*
X143685158Y-95796500D01*
X143842844Y-95796500D01*
X143842845Y-95796499D01*
X143997497Y-95765737D01*
X144143179Y-95705394D01*
X144274289Y-95617789D01*
X144274447Y-95617631D01*
X144287819Y-95604260D01*
X144349142Y-95570775D01*
X144418834Y-95575759D01*
X144474767Y-95617631D01*
X144499184Y-95683095D01*
X144499500Y-95691941D01*
X144499500Y-98246249D01*
X144499274Y-98253736D01*
X144481728Y-98543794D01*
X144479923Y-98558659D01*
X144428219Y-98840797D01*
X144424635Y-98855335D01*
X144339304Y-99129174D01*
X144333994Y-99143176D01*
X144216277Y-99404730D01*
X144209319Y-99417987D01*
X144060928Y-99663458D01*
X144052422Y-99675782D01*
X143875525Y-99901573D01*
X143865595Y-99912781D01*
X143662781Y-100115595D01*
X143651573Y-100125525D01*
X143425782Y-100302422D01*
X143413458Y-100310928D01*
X143167987Y-100459319D01*
X143154730Y-100466277D01*
X142893176Y-100583994D01*
X142879174Y-100589304D01*
X142605335Y-100674635D01*
X142590797Y-100678219D01*
X142308659Y-100729923D01*
X142293794Y-100731728D01*
X142003736Y-100749274D01*
X141996249Y-100749500D01*
X119003751Y-100749500D01*
X118996264Y-100749274D01*
X118706205Y-100731728D01*
X118691340Y-100729923D01*
X118409202Y-100678219D01*
X118394664Y-100674635D01*
X118120825Y-100589304D01*
X118106827Y-100583995D01*
X117954096Y-100515256D01*
X117845269Y-100466277D01*
X117832012Y-100459319D01*
X117586541Y-100310928D01*
X117574217Y-100302422D01*
X117565906Y-100295911D01*
X117348426Y-100125525D01*
X117337218Y-100115595D01*
X117134404Y-99912781D01*
X117124474Y-99901573D01*
X117092295Y-99860500D01*
X116947573Y-99675776D01*
X116939071Y-99663458D01*
X116790680Y-99417987D01*
X116783722Y-99404730D01*
X116666000Y-99143163D01*
X116660698Y-99129182D01*
X116575363Y-98855334D01*
X116571780Y-98840797D01*
X116520076Y-98558659D01*
X116518271Y-98543794D01*
X116511884Y-98438210D01*
X116500726Y-98253736D01*
X116500500Y-98246249D01*
X116500500Y-97425528D01*
X123753500Y-97425528D01*
X123753500Y-97734471D01*
X123788086Y-98041437D01*
X123788089Y-98041455D01*
X123856831Y-98342635D01*
X123856835Y-98342647D01*
X123958862Y-98634222D01*
X123958868Y-98634236D01*
X124092903Y-98912562D01*
X124092905Y-98912565D01*
X124257265Y-99174143D01*
X124449880Y-99415674D01*
X124668326Y-99634120D01*
X124909857Y-99826735D01*
X125171435Y-99991095D01*
X125449771Y-100125135D01*
X125449777Y-100125137D01*
X125741352Y-100227164D01*
X125741364Y-100227168D01*
X126042548Y-100295911D01*
X126042554Y-100295911D01*
X126042562Y-100295913D01*
X126247206Y-100318970D01*
X126349529Y-100330499D01*
X126349532Y-100330500D01*
X126349535Y-100330500D01*
X128158468Y-100330500D01*
X128158469Y-100330499D01*
X128332172Y-100310928D01*
X128465437Y-100295913D01*
X128465442Y-100295912D01*
X128465452Y-100295911D01*
X128766636Y-100227168D01*
X129058229Y-100125135D01*
X129336565Y-99991095D01*
X129598143Y-99826735D01*
X129839674Y-99634120D01*
X130058120Y-99415674D01*
X130250735Y-99174143D01*
X130371998Y-98981153D01*
X137883500Y-98981153D01*
X137883500Y-99138846D01*
X137914261Y-99293489D01*
X137914264Y-99293501D01*
X137974602Y-99439172D01*
X137974609Y-99439185D01*
X138062210Y-99570288D01*
X138062213Y-99570292D01*
X138173707Y-99681786D01*
X138173711Y-99681789D01*
X138304814Y-99769390D01*
X138304827Y-99769397D01*
X138443255Y-99826735D01*
X138450503Y-99829737D01*
X138605153Y-99860499D01*
X138605156Y-99860500D01*
X138605158Y-99860500D01*
X138762844Y-99860500D01*
X138762845Y-99860499D01*
X138917497Y-99829737D01*
X139063179Y-99769394D01*
X139194289Y-99681789D01*
X139305789Y-99570289D01*
X139393394Y-99439179D01*
X139453737Y-99293497D01*
X139484500Y-99138842D01*
X139484500Y-98981158D01*
X139484500Y-98981155D01*
X139484499Y-98981153D01*
X139459472Y-98855335D01*
X139453737Y-98826503D01*
X139427951Y-98764250D01*
X139393397Y-98680827D01*
X139393390Y-98680814D01*
X139305789Y-98549711D01*
X139305786Y-98549707D01*
X139194292Y-98438213D01*
X139194288Y-98438210D01*
X139063185Y-98350609D01*
X139063172Y-98350602D01*
X138917502Y-98290264D01*
X138917489Y-98290261D01*
X138762845Y-98259500D01*
X138762842Y-98259500D01*
X138605158Y-98259500D01*
X138605155Y-98259500D01*
X138450510Y-98290261D01*
X138450498Y-98290264D01*
X138304827Y-98350602D01*
X138304814Y-98350609D01*
X138173711Y-98438210D01*
X138173707Y-98438213D01*
X138062213Y-98549707D01*
X138062210Y-98549711D01*
X137974609Y-98680814D01*
X137974602Y-98680827D01*
X137914264Y-98826498D01*
X137914261Y-98826510D01*
X137883500Y-98981153D01*
X130371998Y-98981153D01*
X130415095Y-98912565D01*
X130549135Y-98634229D01*
X130651168Y-98342636D01*
X130688311Y-98179902D01*
X140485500Y-98179902D01*
X140485500Y-98416097D01*
X140522446Y-98649368D01*
X140595433Y-98873996D01*
X140702657Y-99084433D01*
X140841483Y-99275510D01*
X141008490Y-99442517D01*
X141199567Y-99581343D01*
X141298991Y-99632002D01*
X141410003Y-99688566D01*
X141410005Y-99688566D01*
X141410008Y-99688568D01*
X141530412Y-99727689D01*
X141634631Y-99761553D01*
X141867903Y-99798500D01*
X141867908Y-99798500D01*
X142104097Y-99798500D01*
X142337368Y-99761553D01*
X142561992Y-99688568D01*
X142772433Y-99581343D01*
X142963510Y-99442517D01*
X143130517Y-99275510D01*
X143269343Y-99084433D01*
X143376568Y-98873992D01*
X143449553Y-98649368D01*
X143463920Y-98558659D01*
X143486500Y-98416097D01*
X143486500Y-98179902D01*
X143449553Y-97946631D01*
X143380616Y-97734467D01*
X143376568Y-97722008D01*
X143376566Y-97722005D01*
X143376566Y-97722003D01*
X143269342Y-97511566D01*
X143130517Y-97320490D01*
X142963510Y-97153483D01*
X142772433Y-97014657D01*
X142561996Y-96907433D01*
X142337368Y-96834446D01*
X142104097Y-96797500D01*
X142104092Y-96797500D01*
X141867908Y-96797500D01*
X141867903Y-96797500D01*
X141634631Y-96834446D01*
X141410003Y-96907433D01*
X141199566Y-97014657D01*
X141090550Y-97093862D01*
X141008490Y-97153483D01*
X141008488Y-97153485D01*
X141008487Y-97153485D01*
X140841485Y-97320487D01*
X140841485Y-97320488D01*
X140841483Y-97320490D01*
X140781862Y-97402550D01*
X140702657Y-97511566D01*
X140595433Y-97722003D01*
X140522446Y-97946631D01*
X140485500Y-98179902D01*
X130688311Y-98179902D01*
X130719911Y-98041452D01*
X130754500Y-97734465D01*
X130754500Y-97425535D01*
X130742664Y-97320487D01*
X130719913Y-97118562D01*
X130719910Y-97118544D01*
X130651168Y-96817364D01*
X130651164Y-96817352D01*
X130549137Y-96525777D01*
X130549135Y-96525771D01*
X130415095Y-96247435D01*
X130250735Y-95985857D01*
X130058120Y-95744326D01*
X129839674Y-95525880D01*
X129815111Y-95506292D01*
X129778334Y-95476963D01*
X129598143Y-95333265D01*
X129336565Y-95168905D01*
X129336562Y-95168903D01*
X129058236Y-95034868D01*
X129058222Y-95034862D01*
X128766647Y-94932835D01*
X128766635Y-94932831D01*
X128465455Y-94864089D01*
X128465437Y-94864086D01*
X128158471Y-94829500D01*
X128158465Y-94829500D01*
X126349535Y-94829500D01*
X126349528Y-94829500D01*
X126042562Y-94864086D01*
X126042544Y-94864089D01*
X125741364Y-94932831D01*
X125741352Y-94932835D01*
X125449777Y-95034862D01*
X125449763Y-95034868D01*
X125171437Y-95168903D01*
X124909858Y-95333264D01*
X124668326Y-95525879D01*
X124449879Y-95744326D01*
X124257264Y-95985858D01*
X124092903Y-96247437D01*
X123958868Y-96525763D01*
X123958862Y-96525777D01*
X123856835Y-96817352D01*
X123856831Y-96817364D01*
X123788089Y-97118544D01*
X123788086Y-97118562D01*
X123753500Y-97425528D01*
X116500500Y-97425528D01*
X116500500Y-93901153D01*
X119087500Y-93901153D01*
X119087500Y-94058846D01*
X119118261Y-94213489D01*
X119118264Y-94213501D01*
X119178602Y-94359172D01*
X119178609Y-94359185D01*
X119266210Y-94490288D01*
X119266213Y-94490292D01*
X119377707Y-94601786D01*
X119377711Y-94601789D01*
X119508814Y-94689390D01*
X119508827Y-94689397D01*
X119654498Y-94749735D01*
X119654503Y-94749737D01*
X119809153Y-94780499D01*
X119809156Y-94780500D01*
X119809158Y-94780500D01*
X119966844Y-94780500D01*
X119966845Y-94780499D01*
X120121497Y-94749737D01*
X120267179Y-94689394D01*
X120398289Y-94601789D01*
X120509789Y-94490289D01*
X120597394Y-94359179D01*
X120657737Y-94213497D01*
X120688500Y-94058842D01*
X120688500Y-93901158D01*
X120688500Y-93901155D01*
X120688499Y-93901153D01*
X120663918Y-93777577D01*
X120657737Y-93746503D01*
X120616585Y-93647153D01*
X125183500Y-93647153D01*
X125183500Y-93804846D01*
X125214261Y-93959489D01*
X125214264Y-93959501D01*
X125274602Y-94105172D01*
X125274609Y-94105185D01*
X125362210Y-94236288D01*
X125362213Y-94236292D01*
X125473707Y-94347786D01*
X125473711Y-94347789D01*
X125604814Y-94435390D01*
X125604827Y-94435397D01*
X125750498Y-94495735D01*
X125750503Y-94495737D01*
X125905153Y-94526499D01*
X125905156Y-94526500D01*
X125905158Y-94526500D01*
X126062844Y-94526500D01*
X126062845Y-94526499D01*
X126217497Y-94495737D01*
X126363179Y-94435394D01*
X126494289Y-94347789D01*
X126605789Y-94236289D01*
X126693394Y-94105179D01*
X126753737Y-93959497D01*
X126759918Y-93928423D01*
X126765343Y-93901153D01*
X133565500Y-93901153D01*
X133565500Y-94058846D01*
X133596261Y-94213489D01*
X133596264Y-94213501D01*
X133656602Y-94359172D01*
X133656609Y-94359185D01*
X133744210Y-94490288D01*
X133744213Y-94490292D01*
X133855707Y-94601786D01*
X133855711Y-94601789D01*
X133986814Y-94689390D01*
X133986827Y-94689397D01*
X134132498Y-94749735D01*
X134132503Y-94749737D01*
X134287153Y-94780499D01*
X134287156Y-94780500D01*
X134287158Y-94780500D01*
X134444844Y-94780500D01*
X134444845Y-94780499D01*
X134599497Y-94749737D01*
X134745179Y-94689394D01*
X134876289Y-94601789D01*
X134987789Y-94490289D01*
X135075394Y-94359179D01*
X135135737Y-94213497D01*
X135166500Y-94058842D01*
X135166500Y-93901158D01*
X135166500Y-93901155D01*
X135166499Y-93901153D01*
X135141918Y-93777577D01*
X135135737Y-93746503D01*
X135115861Y-93698518D01*
X135075397Y-93600827D01*
X135075390Y-93600814D01*
X134987789Y-93469711D01*
X134987786Y-93469707D01*
X134876292Y-93358213D01*
X134876288Y-93358210D01*
X134745185Y-93270609D01*
X134745172Y-93270602D01*
X134599501Y-93210264D01*
X134599489Y-93210261D01*
X134444845Y-93179500D01*
X134444842Y-93179500D01*
X134287158Y-93179500D01*
X134287155Y-93179500D01*
X134132510Y-93210261D01*
X134132498Y-93210264D01*
X133986827Y-93270602D01*
X133986814Y-93270609D01*
X133855711Y-93358210D01*
X133855707Y-93358213D01*
X133744213Y-93469707D01*
X133744210Y-93469711D01*
X133656609Y-93600814D01*
X133656602Y-93600827D01*
X133596264Y-93746498D01*
X133596261Y-93746510D01*
X133565500Y-93901153D01*
X126765343Y-93901153D01*
X126771366Y-93870874D01*
X126771366Y-93870873D01*
X126784499Y-93804846D01*
X126784500Y-93804844D01*
X126784500Y-93647155D01*
X126784499Y-93647153D01*
X126775283Y-93600821D01*
X126753737Y-93492503D01*
X126736045Y-93449790D01*
X126693397Y-93346827D01*
X126693390Y-93346814D01*
X126605789Y-93215711D01*
X126605786Y-93215707D01*
X126494292Y-93104213D01*
X126494288Y-93104210D01*
X126363185Y-93016609D01*
X126363172Y-93016602D01*
X126217501Y-92956264D01*
X126217489Y-92956261D01*
X126062845Y-92925500D01*
X126062842Y-92925500D01*
X125905158Y-92925500D01*
X125905155Y-92925500D01*
X125750510Y-92956261D01*
X125750498Y-92956264D01*
X125604827Y-93016602D01*
X125604814Y-93016609D01*
X125473711Y-93104210D01*
X125473707Y-93104213D01*
X125362213Y-93215707D01*
X125362210Y-93215711D01*
X125274609Y-93346814D01*
X125274602Y-93346827D01*
X125214264Y-93492498D01*
X125214261Y-93492510D01*
X125183500Y-93647153D01*
X120616585Y-93647153D01*
X120597397Y-93600826D01*
X120597390Y-93600814D01*
X120509789Y-93469711D01*
X120509786Y-93469707D01*
X120398292Y-93358213D01*
X120398288Y-93358210D01*
X120267185Y-93270609D01*
X120267172Y-93270602D01*
X120121501Y-93210264D01*
X120121489Y-93210261D01*
X119966845Y-93179500D01*
X119966842Y-93179500D01*
X119809158Y-93179500D01*
X119809155Y-93179500D01*
X119654510Y-93210261D01*
X119654498Y-93210264D01*
X119508827Y-93270602D01*
X119508814Y-93270609D01*
X119377711Y-93358210D01*
X119377707Y-93358213D01*
X119266213Y-93469707D01*
X119266210Y-93469711D01*
X119178609Y-93600814D01*
X119178602Y-93600827D01*
X119118264Y-93746498D01*
X119118261Y-93746510D01*
X119087500Y-93901153D01*
X116500500Y-93901153D01*
X116500500Y-90599153D01*
X123659500Y-90599153D01*
X123659500Y-90756846D01*
X123690261Y-90911489D01*
X123690264Y-90911501D01*
X123750602Y-91057172D01*
X123750609Y-91057185D01*
X123838210Y-91188288D01*
X123838213Y-91188292D01*
X123949707Y-91299786D01*
X123949711Y-91299789D01*
X124080814Y-91387390D01*
X124080827Y-91387397D01*
X124226498Y-91447735D01*
X124226503Y-91447737D01*
X124381153Y-91478499D01*
X124381156Y-91478500D01*
X124381158Y-91478500D01*
X124538844Y-91478500D01*
X124538845Y-91478499D01*
X124693497Y-91447737D01*
X124839179Y-91387394D01*
X124878451Y-91361153D01*
X125945500Y-91361153D01*
X125945500Y-91518846D01*
X125976261Y-91673489D01*
X125976264Y-91673501D01*
X126036602Y-91819172D01*
X126036609Y-91819185D01*
X126124210Y-91950288D01*
X126124213Y-91950292D01*
X126235707Y-92061786D01*
X126235711Y-92061789D01*
X126366814Y-92149390D01*
X126366827Y-92149397D01*
X126512498Y-92209735D01*
X126512503Y-92209737D01*
X126667153Y-92240499D01*
X126667156Y-92240500D01*
X126667158Y-92240500D01*
X126679849Y-92240500D01*
X126746888Y-92260185D01*
X126792643Y-92312989D01*
X126794389Y-92317000D01*
X126798606Y-92327179D01*
X126798608Y-92327182D01*
X126798609Y-92327184D01*
X126886210Y-92458288D01*
X126886213Y-92458292D01*
X126997707Y-92569786D01*
X126997711Y-92569789D01*
X127128814Y-92657390D01*
X127128827Y-92657397D01*
X127208476Y-92690388D01*
X127274503Y-92717737D01*
X127429153Y-92748499D01*
X127429156Y-92748500D01*
X127429158Y-92748500D01*
X127586844Y-92748500D01*
X127586845Y-92748499D01*
X127741497Y-92717737D01*
X127887179Y-92657394D01*
X128018289Y-92569789D01*
X128129789Y-92458289D01*
X128217394Y-92327179D01*
X128221728Y-92316717D01*
X128266039Y-92209738D01*
X128277737Y-92181497D01*
X128308500Y-92026842D01*
X128308500Y-91869158D01*
X128308500Y-91869155D01*
X128308499Y-91869153D01*
X128281317Y-91732500D01*
X128277737Y-91714503D01*
X128247456Y-91641397D01*
X128217397Y-91568827D01*
X128217390Y-91568814D01*
X128129789Y-91437711D01*
X128129786Y-91437707D01*
X128018292Y-91326213D01*
X128018288Y-91326210D01*
X127887185Y-91238609D01*
X127887172Y-91238602D01*
X127741501Y-91178264D01*
X127741489Y-91178261D01*
X127586845Y-91147500D01*
X127586842Y-91147500D01*
X127574151Y-91147500D01*
X127507112Y-91127815D01*
X127461357Y-91075011D01*
X127459610Y-91070999D01*
X127455394Y-91060821D01*
X127452964Y-91057185D01*
X127367789Y-90929711D01*
X127367786Y-90929707D01*
X127256292Y-90818213D01*
X127256288Y-90818210D01*
X127125185Y-90730609D01*
X127125172Y-90730602D01*
X126979501Y-90670264D01*
X126979489Y-90670261D01*
X126824845Y-90639500D01*
X126824842Y-90639500D01*
X126667158Y-90639500D01*
X126667155Y-90639500D01*
X126512510Y-90670261D01*
X126512498Y-90670264D01*
X126366827Y-90730602D01*
X126366814Y-90730609D01*
X126235711Y-90818210D01*
X126235707Y-90818213D01*
X126124213Y-90929707D01*
X126124210Y-90929711D01*
X126036609Y-91060814D01*
X126036602Y-91060827D01*
X125976264Y-91206498D01*
X125976261Y-91206510D01*
X125945500Y-91361153D01*
X124878451Y-91361153D01*
X124970289Y-91299789D01*
X124970292Y-91299786D01*
X125002694Y-91267385D01*
X125081786Y-91188292D01*
X125081789Y-91188289D01*
X125169394Y-91057179D01*
X125173728Y-91046717D01*
X125218039Y-90939738D01*
X125229737Y-90911497D01*
X125260500Y-90756842D01*
X125260500Y-90599158D01*
X125260500Y-90599155D01*
X125260499Y-90599153D01*
X125251283Y-90552821D01*
X125229737Y-90444503D01*
X125174112Y-90310211D01*
X125169397Y-90298827D01*
X125169390Y-90298814D01*
X125101282Y-90196884D01*
X125081789Y-90167711D01*
X125081784Y-90167706D01*
X125081781Y-90167702D01*
X125005232Y-90091153D01*
X130517500Y-90091153D01*
X130517500Y-90248846D01*
X130548261Y-90403489D01*
X130548264Y-90403501D01*
X130608602Y-90549172D01*
X130608609Y-90549185D01*
X130696210Y-90680288D01*
X130696213Y-90680292D01*
X130807707Y-90791786D01*
X130807711Y-90791789D01*
X130938814Y-90879390D01*
X130938827Y-90879397D01*
X131060288Y-90929707D01*
X131084503Y-90939737D01*
X131239153Y-90970499D01*
X131239156Y-90970500D01*
X131239158Y-90970500D01*
X131396844Y-90970500D01*
X131396845Y-90970499D01*
X131551497Y-90939737D01*
X131617053Y-90912582D01*
X131686522Y-90905114D01*
X131749001Y-90936389D01*
X131784653Y-90996478D01*
X131786135Y-91004903D01*
X131786311Y-91004868D01*
X131818261Y-91165489D01*
X131818264Y-91165501D01*
X131878602Y-91311172D01*
X131878609Y-91311185D01*
X131966210Y-91442288D01*
X131966213Y-91442292D01*
X132077707Y-91553786D01*
X132077711Y-91553789D01*
X132208814Y-91641390D01*
X132208827Y-91641397D01*
X132354498Y-91701735D01*
X132354503Y-91701737D01*
X132509153Y-91732499D01*
X132509156Y-91732500D01*
X132509158Y-91732500D01*
X132666844Y-91732500D01*
X132666845Y-91732499D01*
X132821497Y-91701737D01*
X132967179Y-91641394D01*
X133098289Y-91553789D01*
X133209789Y-91442289D01*
X133297394Y-91311179D01*
X133357737Y-91165497D01*
X133388500Y-91010842D01*
X133388500Y-90853158D01*
X133388500Y-90853155D01*
X133388499Y-90853153D01*
X133381549Y-90818213D01*
X133357737Y-90698503D01*
X133346039Y-90670261D01*
X133297397Y-90552827D01*
X133297390Y-90552814D01*
X133209789Y-90421711D01*
X133209786Y-90421707D01*
X133098292Y-90310213D01*
X133098288Y-90310210D01*
X132967185Y-90222609D01*
X132967172Y-90222602D01*
X132821501Y-90162264D01*
X132821489Y-90162261D01*
X132666845Y-90131500D01*
X132666842Y-90131500D01*
X132509158Y-90131500D01*
X132509155Y-90131500D01*
X132354510Y-90162261D01*
X132354502Y-90162263D01*
X132288945Y-90189417D01*
X132219475Y-90196884D01*
X132156997Y-90165609D01*
X132121345Y-90105519D01*
X132119865Y-90097096D01*
X132119689Y-90097132D01*
X132087738Y-89936510D01*
X132087737Y-89936503D01*
X132067861Y-89888518D01*
X132027397Y-89790827D01*
X132027390Y-89790814D01*
X131939789Y-89659711D01*
X131939786Y-89659707D01*
X131828292Y-89548213D01*
X131828288Y-89548210D01*
X131752607Y-89497641D01*
X131707802Y-89444028D01*
X131699095Y-89374703D01*
X131729250Y-89311676D01*
X131774048Y-89279977D01*
X131784785Y-89275530D01*
X131915895Y-89187925D01*
X132027395Y-89076425D01*
X132115000Y-88945315D01*
X132175343Y-88799633D01*
X132206106Y-88644978D01*
X132206106Y-88487294D01*
X132206106Y-88487291D01*
X132206105Y-88487289D01*
X132202833Y-88470842D01*
X132175343Y-88332639D01*
X132160890Y-88297745D01*
X132115003Y-88186963D01*
X132114996Y-88186950D01*
X132027395Y-88055847D01*
X132027392Y-88055843D01*
X131915898Y-87944349D01*
X131915894Y-87944346D01*
X131784791Y-87856745D01*
X131784778Y-87856738D01*
X131639107Y-87796400D01*
X131639095Y-87796397D01*
X131484451Y-87765636D01*
X131484448Y-87765636D01*
X131326764Y-87765636D01*
X131326761Y-87765636D01*
X131172116Y-87796397D01*
X131172104Y-87796400D01*
X131026433Y-87856738D01*
X131026420Y-87856745D01*
X130895317Y-87944346D01*
X130895313Y-87944349D01*
X130783819Y-88055843D01*
X130783816Y-88055847D01*
X130696215Y-88186950D01*
X130696208Y-88186963D01*
X130635870Y-88332634D01*
X130635867Y-88332646D01*
X130605106Y-88487289D01*
X130605106Y-88644982D01*
X130635867Y-88799625D01*
X130635870Y-88799637D01*
X130696208Y-88945308D01*
X130696215Y-88945321D01*
X130783816Y-89076424D01*
X130783819Y-89076428D01*
X130895313Y-89187922D01*
X130895317Y-89187925D01*
X130970998Y-89238494D01*
X131015803Y-89292106D01*
X131024510Y-89361431D01*
X130994355Y-89424459D01*
X130949563Y-89456156D01*
X130938823Y-89460604D01*
X130938814Y-89460609D01*
X130807711Y-89548210D01*
X130807707Y-89548213D01*
X130696213Y-89659707D01*
X130696210Y-89659711D01*
X130608609Y-89790814D01*
X130608602Y-89790827D01*
X130548264Y-89936498D01*
X130548261Y-89936510D01*
X130517500Y-90091153D01*
X125005232Y-90091153D01*
X124970292Y-90056213D01*
X124970288Y-90056210D01*
X124839185Y-89968609D01*
X124839172Y-89968602D01*
X124693501Y-89908264D01*
X124693489Y-89908261D01*
X124538845Y-89877500D01*
X124538842Y-89877500D01*
X124381158Y-89877500D01*
X124381155Y-89877500D01*
X124226510Y-89908261D01*
X124226498Y-89908264D01*
X124080827Y-89968602D01*
X124080814Y-89968609D01*
X123949711Y-90056210D01*
X123949707Y-90056213D01*
X123838213Y-90167707D01*
X123838210Y-90167711D01*
X123750609Y-90298814D01*
X123750602Y-90298827D01*
X123690264Y-90444498D01*
X123690261Y-90444510D01*
X123659500Y-90599153D01*
X116500500Y-90599153D01*
X116500500Y-88313153D01*
X119087500Y-88313153D01*
X119087500Y-88470846D01*
X119118261Y-88625489D01*
X119118264Y-88625501D01*
X119178602Y-88771172D01*
X119178609Y-88771185D01*
X119266210Y-88902288D01*
X119266213Y-88902292D01*
X119377707Y-89013786D01*
X119377711Y-89013789D01*
X119508814Y-89101390D01*
X119508827Y-89101397D01*
X119654498Y-89161735D01*
X119654503Y-89161737D01*
X119786143Y-89187922D01*
X119809153Y-89192499D01*
X119809156Y-89192500D01*
X119809158Y-89192500D01*
X119966844Y-89192500D01*
X119966845Y-89192499D01*
X120121497Y-89161737D01*
X120267179Y-89101394D01*
X120398289Y-89013789D01*
X120509789Y-88902289D01*
X120597394Y-88771179D01*
X120657737Y-88625497D01*
X120688500Y-88470842D01*
X120688500Y-88313158D01*
X120688500Y-88313155D01*
X120688499Y-88313153D01*
X120685434Y-88297745D01*
X120657737Y-88158503D01*
X120615216Y-88055847D01*
X120597397Y-88012827D01*
X120597390Y-88012814D01*
X120509789Y-87881711D01*
X120509786Y-87881707D01*
X120398292Y-87770213D01*
X120398288Y-87770210D01*
X120267185Y-87682609D01*
X120267172Y-87682602D01*
X120121501Y-87622264D01*
X120121489Y-87622261D01*
X119966845Y-87591500D01*
X119966842Y-87591500D01*
X119809158Y-87591500D01*
X119809155Y-87591500D01*
X119654510Y-87622261D01*
X119654498Y-87622264D01*
X119508827Y-87682602D01*
X119508814Y-87682609D01*
X119377711Y-87770210D01*
X119377707Y-87770213D01*
X119266213Y-87881707D01*
X119266210Y-87881711D01*
X119178609Y-88012814D01*
X119178602Y-88012827D01*
X119118264Y-88158498D01*
X119118261Y-88158510D01*
X119087500Y-88313153D01*
X116500500Y-88313153D01*
X116500500Y-86789153D01*
X121119500Y-86789153D01*
X121119500Y-86946846D01*
X121150261Y-87101489D01*
X121150264Y-87101501D01*
X121210602Y-87247172D01*
X121210609Y-87247185D01*
X121298210Y-87378288D01*
X121298213Y-87378292D01*
X121409707Y-87489786D01*
X121409711Y-87489789D01*
X121540814Y-87577390D01*
X121540827Y-87577397D01*
X121686498Y-87637735D01*
X121686503Y-87637737D01*
X121841153Y-87668499D01*
X121841156Y-87668500D01*
X121841158Y-87668500D01*
X121998844Y-87668500D01*
X121998845Y-87668499D01*
X122153497Y-87637737D01*
X122299179Y-87577394D01*
X122338451Y-87551153D01*
X136613500Y-87551153D01*
X136613500Y-87708846D01*
X136644261Y-87863489D01*
X136644264Y-87863501D01*
X136704602Y-88009172D01*
X136704609Y-88009185D01*
X136792210Y-88140288D01*
X136792213Y-88140292D01*
X136888343Y-88236422D01*
X136921828Y-88297745D01*
X136916844Y-88367437D01*
X136915224Y-88371553D01*
X136898263Y-88412501D01*
X136898260Y-88412511D01*
X136867500Y-88567153D01*
X136867500Y-88724846D01*
X136898261Y-88879489D01*
X136898264Y-88879501D01*
X136958602Y-89025172D01*
X136958609Y-89025185D01*
X137046210Y-89156288D01*
X137046213Y-89156292D01*
X137157707Y-89267786D01*
X137157710Y-89267788D01*
X137157711Y-89267789D01*
X137169296Y-89275530D01*
X137213248Y-89304898D01*
X137258052Y-89358511D01*
X137266759Y-89427836D01*
X137236604Y-89490863D01*
X137213248Y-89511102D01*
X137157707Y-89548213D01*
X137046213Y-89659707D01*
X137046210Y-89659711D01*
X136958609Y-89790814D01*
X136958602Y-89790827D01*
X136898264Y-89936498D01*
X136898261Y-89936510D01*
X136867500Y-90091153D01*
X136867500Y-90248846D01*
X136898261Y-90403489D01*
X136898264Y-90403501D01*
X136958602Y-90549172D01*
X136958609Y-90549185D01*
X137046210Y-90680288D01*
X137046213Y-90680292D01*
X137157707Y-90791786D01*
X137157711Y-90791789D01*
X137288814Y-90879390D01*
X137288827Y-90879397D01*
X137410288Y-90929707D01*
X137434503Y-90939737D01*
X137589153Y-90970499D01*
X137589156Y-90970500D01*
X137589158Y-90970500D01*
X137746844Y-90970500D01*
X137746845Y-90970499D01*
X137901497Y-90939737D01*
X138047179Y-90879394D01*
X138178289Y-90791789D01*
X138289789Y-90680289D01*
X138377394Y-90549179D01*
X138437737Y-90403497D01*
X138468500Y-90248842D01*
X138468500Y-90091158D01*
X138468500Y-90091155D01*
X138468499Y-90091153D01*
X138461549Y-90056213D01*
X138437737Y-89936503D01*
X138417861Y-89888518D01*
X138377397Y-89790827D01*
X138377390Y-89790814D01*
X138289789Y-89659711D01*
X138289786Y-89659707D01*
X138178292Y-89548213D01*
X138178288Y-89548210D01*
X138122752Y-89511102D01*
X138104986Y-89489844D01*
X138084776Y-89470893D01*
X138082894Y-89463410D01*
X138077947Y-89457490D01*
X138074494Y-89429999D01*
X138067739Y-89403132D01*
X138070201Y-89395820D01*
X138069240Y-89388165D01*
X138081197Y-89363170D01*
X138090040Y-89336917D01*
X138097032Y-89330072D01*
X138097572Y-89328943D01*
X141512500Y-89328943D01*
X141512500Y-89487056D01*
X141553423Y-89639783D01*
X141553426Y-89639790D01*
X141632475Y-89776709D01*
X141632479Y-89776714D01*
X141632480Y-89776716D01*
X141744284Y-89888520D01*
X141744285Y-89888521D01*
X141744287Y-89888522D01*
X141825851Y-89935613D01*
X141874067Y-89986180D01*
X141887290Y-90054787D01*
X141861322Y-90119652D01*
X141825851Y-90150387D01*
X141744287Y-90197477D01*
X141744282Y-90197481D01*
X141632481Y-90309282D01*
X141632475Y-90309290D01*
X141553426Y-90446209D01*
X141553423Y-90446216D01*
X141512500Y-90598943D01*
X141512500Y-90757057D01*
X141538250Y-90853155D01*
X141553423Y-90909783D01*
X141553426Y-90909790D01*
X141632475Y-91046709D01*
X141632479Y-91046714D01*
X141632480Y-91046716D01*
X141744284Y-91158520D01*
X141744285Y-91158521D01*
X141744287Y-91158522D01*
X141825851Y-91205613D01*
X141874067Y-91256180D01*
X141887290Y-91324787D01*
X141861322Y-91389652D01*
X141825851Y-91420387D01*
X141744287Y-91467477D01*
X141744282Y-91467481D01*
X141632481Y-91579282D01*
X141632475Y-91579290D01*
X141553426Y-91716209D01*
X141553423Y-91716216D01*
X141512500Y-91868943D01*
X141512500Y-92027057D01*
X141521807Y-92061789D01*
X141553423Y-92179783D01*
X141553426Y-92179790D01*
X141632475Y-92316709D01*
X141632479Y-92316714D01*
X141632480Y-92316716D01*
X141744284Y-92428520D01*
X141744285Y-92428521D01*
X141744287Y-92428522D01*
X141825851Y-92475613D01*
X141874067Y-92526180D01*
X141887290Y-92594787D01*
X141861322Y-92659652D01*
X141825851Y-92690387D01*
X141744287Y-92737477D01*
X141744282Y-92737481D01*
X141632481Y-92849282D01*
X141632475Y-92849290D01*
X141553426Y-92986209D01*
X141553423Y-92986216D01*
X141512500Y-93138943D01*
X141512500Y-93297057D01*
X141525833Y-93346814D01*
X141553423Y-93449783D01*
X141553426Y-93449790D01*
X141632475Y-93586709D01*
X141632479Y-93586714D01*
X141632480Y-93586716D01*
X141744284Y-93698520D01*
X141744285Y-93698521D01*
X141744287Y-93698522D01*
X141825851Y-93745613D01*
X141874067Y-93796180D01*
X141887290Y-93864787D01*
X141861322Y-93929652D01*
X141825851Y-93960387D01*
X141744287Y-94007477D01*
X141744282Y-94007481D01*
X141632481Y-94119282D01*
X141632475Y-94119290D01*
X141553426Y-94256209D01*
X141553423Y-94256216D01*
X141512500Y-94408943D01*
X141512500Y-94567057D01*
X141525833Y-94616814D01*
X141553423Y-94719783D01*
X141553426Y-94719790D01*
X141632475Y-94856709D01*
X141632479Y-94856714D01*
X141632480Y-94856716D01*
X141744284Y-94968520D01*
X141744286Y-94968521D01*
X141744290Y-94968524D01*
X141859193Y-95034862D01*
X141881216Y-95047577D01*
X142033943Y-95088500D01*
X142033945Y-95088500D01*
X142192055Y-95088500D01*
X142192057Y-95088500D01*
X142344784Y-95047577D01*
X142481716Y-94968520D01*
X142593520Y-94856716D01*
X142672577Y-94719784D01*
X142713500Y-94567057D01*
X142713500Y-94408943D01*
X142672577Y-94256216D01*
X142661072Y-94236288D01*
X142593524Y-94119290D01*
X142593518Y-94119282D01*
X142481717Y-94007481D01*
X142481716Y-94007480D01*
X142400148Y-93960387D01*
X142351933Y-93909821D01*
X142338709Y-93841214D01*
X142364677Y-93776349D01*
X142400147Y-93745612D01*
X142481716Y-93698520D01*
X142593520Y-93586716D01*
X142672577Y-93449784D01*
X142713500Y-93297057D01*
X142713500Y-93138943D01*
X142672577Y-92986216D01*
X142672573Y-92986209D01*
X142593524Y-92849290D01*
X142593518Y-92849282D01*
X142481717Y-92737481D01*
X142481716Y-92737480D01*
X142400148Y-92690387D01*
X142351933Y-92639821D01*
X142338709Y-92571214D01*
X142364677Y-92506349D01*
X142400147Y-92475612D01*
X142481716Y-92428520D01*
X142593520Y-92316716D01*
X142672577Y-92179784D01*
X142713500Y-92027057D01*
X142713500Y-91868943D01*
X142672577Y-91716216D01*
X142664218Y-91701737D01*
X142593524Y-91579290D01*
X142593518Y-91579282D01*
X142481717Y-91467481D01*
X142481716Y-91467480D01*
X142400148Y-91420387D01*
X142351933Y-91369821D01*
X142338709Y-91301214D01*
X142364677Y-91236349D01*
X142400147Y-91205612D01*
X142481716Y-91158520D01*
X142593520Y-91046716D01*
X142672577Y-90909784D01*
X142713500Y-90757057D01*
X142713500Y-90598943D01*
X142672577Y-90446216D01*
X142647916Y-90403501D01*
X142593524Y-90309290D01*
X142593518Y-90309282D01*
X142481717Y-90197481D01*
X142481716Y-90197480D01*
X142400148Y-90150387D01*
X142351933Y-90099821D01*
X142338709Y-90031214D01*
X142364677Y-89966349D01*
X142400147Y-89935612D01*
X142481716Y-89888520D01*
X142593520Y-89776716D01*
X142672577Y-89639784D01*
X142713500Y-89487057D01*
X142713500Y-89328943D01*
X142672577Y-89176216D01*
X142664218Y-89161737D01*
X142593524Y-89039290D01*
X142593518Y-89039282D01*
X142481717Y-88927481D01*
X142481709Y-88927475D01*
X142344790Y-88848426D01*
X142344786Y-88848424D01*
X142344784Y-88848423D01*
X142192057Y-88807500D01*
X142033943Y-88807500D01*
X141881216Y-88848423D01*
X141881209Y-88848426D01*
X141744290Y-88927475D01*
X141744282Y-88927481D01*
X141632481Y-89039282D01*
X141632475Y-89039290D01*
X141553426Y-89176209D01*
X141553423Y-89176216D01*
X141512500Y-89328943D01*
X138097572Y-89328943D01*
X138099394Y-89325137D01*
X138114182Y-89311172D01*
X138118339Y-89307846D01*
X138178289Y-89267789D01*
X138289789Y-89156289D01*
X138377394Y-89025179D01*
X138437737Y-88879497D01*
X138468500Y-88724842D01*
X138468500Y-88567158D01*
X138468500Y-88567155D01*
X138468499Y-88567153D01*
X138449341Y-88470842D01*
X138437737Y-88412503D01*
X138419070Y-88367437D01*
X138377397Y-88266827D01*
X138377390Y-88266814D01*
X138289789Y-88135711D01*
X138289786Y-88135707D01*
X138193656Y-88039577D01*
X138160171Y-87978254D01*
X138165155Y-87908562D01*
X138166762Y-87904476D01*
X138183737Y-87863497D01*
X138214500Y-87708842D01*
X138214500Y-87551158D01*
X138214500Y-87551155D01*
X138214499Y-87551153D01*
X138183738Y-87396510D01*
X138183737Y-87396503D01*
X138176192Y-87378288D01*
X138123397Y-87250827D01*
X138123390Y-87250814D01*
X138035789Y-87119711D01*
X138035786Y-87119707D01*
X137924292Y-87008213D01*
X137924288Y-87008210D01*
X137793185Y-86920609D01*
X137793172Y-86920602D01*
X137647501Y-86860264D01*
X137647489Y-86860261D01*
X137492845Y-86829500D01*
X137492842Y-86829500D01*
X137335158Y-86829500D01*
X137335155Y-86829500D01*
X137180510Y-86860261D01*
X137180498Y-86860264D01*
X137034827Y-86920602D01*
X137034814Y-86920609D01*
X136903711Y-87008210D01*
X136903707Y-87008213D01*
X136792213Y-87119707D01*
X136792210Y-87119711D01*
X136704609Y-87250814D01*
X136704602Y-87250827D01*
X136644264Y-87396498D01*
X136644261Y-87396510D01*
X136613500Y-87551153D01*
X122338451Y-87551153D01*
X122430289Y-87489789D01*
X122430292Y-87489786D01*
X122462694Y-87457385D01*
X122541786Y-87378292D01*
X122541789Y-87378289D01*
X122629394Y-87247179D01*
X122689737Y-87101497D01*
X122720500Y-86946842D01*
X122720500Y-86789158D01*
X122720500Y-86789155D01*
X122720499Y-86789153D01*
X122693317Y-86652500D01*
X122689737Y-86634503D01*
X122659456Y-86561397D01*
X122629397Y-86488827D01*
X122629390Y-86488814D01*
X122541789Y-86357711D01*
X122541786Y-86357707D01*
X122430292Y-86246213D01*
X122430288Y-86246210D01*
X122299185Y-86158609D01*
X122299172Y-86158602D01*
X122153501Y-86098264D01*
X122153489Y-86098261D01*
X121998845Y-86067500D01*
X121998842Y-86067500D01*
X121841158Y-86067500D01*
X121841155Y-86067500D01*
X121686510Y-86098261D01*
X121686498Y-86098264D01*
X121540827Y-86158602D01*
X121540814Y-86158609D01*
X121409711Y-86246210D01*
X121409707Y-86246213D01*
X121298213Y-86357707D01*
X121298210Y-86357711D01*
X121210609Y-86488814D01*
X121210602Y-86488827D01*
X121150264Y-86634498D01*
X121150261Y-86634510D01*
X121119500Y-86789153D01*
X116500500Y-86789153D01*
X116500500Y-85773153D01*
X126707500Y-85773153D01*
X126707500Y-85930846D01*
X126738261Y-86085489D01*
X126738264Y-86085501D01*
X126798602Y-86231172D01*
X126798609Y-86231185D01*
X126886210Y-86362288D01*
X126886213Y-86362292D01*
X126997707Y-86473786D01*
X126997711Y-86473789D01*
X127128814Y-86561390D01*
X127128827Y-86561397D01*
X127274498Y-86621735D01*
X127274503Y-86621737D01*
X127429153Y-86652499D01*
X127429156Y-86652500D01*
X127429158Y-86652500D01*
X127586844Y-86652500D01*
X127586845Y-86652499D01*
X127741497Y-86621737D01*
X127887179Y-86561394D01*
X128018289Y-86473789D01*
X128129789Y-86362289D01*
X128217394Y-86231179D01*
X128277737Y-86085497D01*
X128308500Y-85930842D01*
X128308500Y-85773158D01*
X128308500Y-85773155D01*
X128308499Y-85773153D01*
X132803500Y-85773153D01*
X132803500Y-85930846D01*
X132834261Y-86085489D01*
X132834264Y-86085501D01*
X132894602Y-86231172D01*
X132894609Y-86231185D01*
X132982210Y-86362288D01*
X132982213Y-86362292D01*
X133093707Y-86473786D01*
X133093711Y-86473789D01*
X133224814Y-86561390D01*
X133224827Y-86561397D01*
X133370498Y-86621735D01*
X133370503Y-86621737D01*
X133525153Y-86652499D01*
X133525156Y-86652500D01*
X133525158Y-86652500D01*
X133682844Y-86652500D01*
X133682845Y-86652499D01*
X133837497Y-86621737D01*
X133983179Y-86561394D01*
X134114289Y-86473789D01*
X134225789Y-86362289D01*
X134313394Y-86231179D01*
X134373737Y-86085497D01*
X134404500Y-85930842D01*
X134404500Y-85773158D01*
X134404500Y-85773155D01*
X134404499Y-85773153D01*
X134373738Y-85618510D01*
X134373737Y-85618503D01*
X134373735Y-85618498D01*
X134313397Y-85472827D01*
X134313390Y-85472814D01*
X134225789Y-85341711D01*
X134225786Y-85341707D01*
X134114292Y-85230213D01*
X134114288Y-85230210D01*
X133983185Y-85142609D01*
X133983172Y-85142602D01*
X133837501Y-85082264D01*
X133837489Y-85082261D01*
X133682845Y-85051500D01*
X133682842Y-85051500D01*
X133525158Y-85051500D01*
X133525155Y-85051500D01*
X133370510Y-85082261D01*
X133370498Y-85082264D01*
X133224827Y-85142602D01*
X133224814Y-85142609D01*
X133093711Y-85230210D01*
X133093707Y-85230213D01*
X132982213Y-85341707D01*
X132982210Y-85341711D01*
X132894609Y-85472814D01*
X132894602Y-85472827D01*
X132834264Y-85618498D01*
X132834261Y-85618510D01*
X132803500Y-85773153D01*
X128308499Y-85773153D01*
X128277738Y-85618510D01*
X128277737Y-85618503D01*
X128277735Y-85618498D01*
X128217397Y-85472827D01*
X128217390Y-85472814D01*
X128129789Y-85341711D01*
X128129786Y-85341707D01*
X128018292Y-85230213D01*
X128018288Y-85230210D01*
X127887185Y-85142609D01*
X127887172Y-85142602D01*
X127741501Y-85082264D01*
X127741489Y-85082261D01*
X127586845Y-85051500D01*
X127586842Y-85051500D01*
X127429158Y-85051500D01*
X127429155Y-85051500D01*
X127274510Y-85082261D01*
X127274498Y-85082264D01*
X127128827Y-85142602D01*
X127128814Y-85142609D01*
X126997711Y-85230210D01*
X126997707Y-85230213D01*
X126886213Y-85341707D01*
X126886210Y-85341711D01*
X126798609Y-85472814D01*
X126798602Y-85472827D01*
X126738264Y-85618498D01*
X126738261Y-85618510D01*
X126707500Y-85773153D01*
X116500500Y-85773153D01*
X116500500Y-82217153D01*
X121627500Y-82217153D01*
X121627500Y-82374846D01*
X121658261Y-82529489D01*
X121658264Y-82529501D01*
X121718602Y-82675172D01*
X121718609Y-82675185D01*
X121806210Y-82806288D01*
X121806213Y-82806292D01*
X121917707Y-82917786D01*
X121917711Y-82917789D01*
X122048814Y-83005390D01*
X122048827Y-83005397D01*
X122194498Y-83065735D01*
X122194503Y-83065737D01*
X122349153Y-83096499D01*
X122349156Y-83096500D01*
X122349158Y-83096500D01*
X122506844Y-83096500D01*
X122506845Y-83096499D01*
X122661497Y-83065737D01*
X122807179Y-83005394D01*
X122938289Y-82917789D01*
X123049789Y-82806289D01*
X123104002Y-82725153D01*
X135089500Y-82725153D01*
X135089500Y-82882846D01*
X135120261Y-83037489D01*
X135120264Y-83037501D01*
X135180602Y-83183172D01*
X135180609Y-83183185D01*
X135268210Y-83314288D01*
X135268213Y-83314292D01*
X135379707Y-83425786D01*
X135379711Y-83425789D01*
X135510814Y-83513390D01*
X135510827Y-83513397D01*
X135656498Y-83573735D01*
X135656503Y-83573737D01*
X135811153Y-83604499D01*
X135811156Y-83604500D01*
X135811158Y-83604500D01*
X135968844Y-83604500D01*
X135968845Y-83604499D01*
X136123497Y-83573737D01*
X136269179Y-83513394D01*
X136400289Y-83425789D01*
X136511789Y-83314289D01*
X136599394Y-83183179D01*
X136659737Y-83037497D01*
X136690500Y-82882842D01*
X136690500Y-82725158D01*
X136690500Y-82725155D01*
X136690499Y-82725153D01*
X136679850Y-82671616D01*
X136659737Y-82570503D01*
X136642749Y-82529489D01*
X136599397Y-82424827D01*
X136599390Y-82424814D01*
X136511789Y-82293711D01*
X136511786Y-82293707D01*
X136400292Y-82182213D01*
X136400288Y-82182210D01*
X136269185Y-82094609D01*
X136269172Y-82094602D01*
X136123501Y-82034264D01*
X136123489Y-82034261D01*
X135968845Y-82003500D01*
X135968842Y-82003500D01*
X135811158Y-82003500D01*
X135811155Y-82003500D01*
X135656510Y-82034261D01*
X135656498Y-82034264D01*
X135510827Y-82094602D01*
X135510814Y-82094609D01*
X135379711Y-82182210D01*
X135379707Y-82182213D01*
X135268213Y-82293707D01*
X135268210Y-82293711D01*
X135180609Y-82424814D01*
X135180602Y-82424827D01*
X135120264Y-82570498D01*
X135120261Y-82570510D01*
X135089500Y-82725153D01*
X123104002Y-82725153D01*
X123137394Y-82675179D01*
X123197737Y-82529497D01*
X123228500Y-82374842D01*
X123228500Y-82217158D01*
X123228500Y-82217155D01*
X123228499Y-82217153D01*
X123221549Y-82182213D01*
X123197737Y-82062503D01*
X123186039Y-82034261D01*
X123137397Y-81916827D01*
X123137390Y-81916814D01*
X123049789Y-81785711D01*
X123049786Y-81785707D01*
X122938292Y-81674213D01*
X122938288Y-81674210D01*
X122807185Y-81586609D01*
X122807172Y-81586602D01*
X122661501Y-81526264D01*
X122661489Y-81526261D01*
X122506845Y-81495500D01*
X122506842Y-81495500D01*
X122349158Y-81495500D01*
X122349155Y-81495500D01*
X122194510Y-81526261D01*
X122194498Y-81526264D01*
X122048827Y-81586602D01*
X122048814Y-81586609D01*
X121917711Y-81674210D01*
X121917707Y-81674213D01*
X121806213Y-81785707D01*
X121806210Y-81785711D01*
X121718609Y-81916814D01*
X121718602Y-81916827D01*
X121658264Y-82062498D01*
X121658261Y-82062510D01*
X121627500Y-82217153D01*
X116500500Y-82217153D01*
X116500500Y-80693153D01*
X132041500Y-80693153D01*
X132041500Y-80850846D01*
X132072261Y-81005489D01*
X132072264Y-81005501D01*
X132132602Y-81151172D01*
X132132609Y-81151185D01*
X132220210Y-81282288D01*
X132220213Y-81282292D01*
X132331707Y-81393786D01*
X132331711Y-81393789D01*
X132462814Y-81481390D01*
X132462827Y-81481397D01*
X132608498Y-81541735D01*
X132608503Y-81541737D01*
X132763153Y-81572499D01*
X132763156Y-81572500D01*
X132763158Y-81572500D01*
X132920844Y-81572500D01*
X132920845Y-81572499D01*
X133075497Y-81541737D01*
X133221179Y-81481394D01*
X133352289Y-81393789D01*
X133463789Y-81282289D01*
X133551394Y-81151179D01*
X133611737Y-81005497D01*
X133642500Y-80850842D01*
X133642500Y-80693158D01*
X133642500Y-80693155D01*
X133642499Y-80693153D01*
X133611738Y-80538510D01*
X133611737Y-80538503D01*
X133594749Y-80497489D01*
X133551397Y-80392827D01*
X133551390Y-80392814D01*
X133463792Y-80261716D01*
X133463789Y-80261711D01*
X133463784Y-80261706D01*
X133463781Y-80261702D01*
X133387232Y-80185153D01*
X134835500Y-80185153D01*
X134835500Y-80342846D01*
X134866261Y-80497489D01*
X134866264Y-80497501D01*
X134926602Y-80643172D01*
X134926609Y-80643185D01*
X135014210Y-80774288D01*
X135014213Y-80774292D01*
X135125707Y-80885786D01*
X135125711Y-80885789D01*
X135256814Y-80973390D01*
X135256827Y-80973397D01*
X135402498Y-81033735D01*
X135402503Y-81033737D01*
X135557153Y-81064499D01*
X135557156Y-81064500D01*
X135557158Y-81064500D01*
X135714844Y-81064500D01*
X135714845Y-81064499D01*
X135869497Y-81033737D01*
X136015179Y-80973394D01*
X136146289Y-80885789D01*
X136257789Y-80774289D01*
X136345394Y-80643179D01*
X136405737Y-80497497D01*
X136436500Y-80342842D01*
X136436500Y-80185158D01*
X136436500Y-80185155D01*
X136436499Y-80185153D01*
X136429549Y-80150213D01*
X136405737Y-80030503D01*
X136394039Y-80002261D01*
X136345397Y-79884827D01*
X136345390Y-79884814D01*
X136257789Y-79753711D01*
X136257786Y-79753707D01*
X136146292Y-79642213D01*
X136146288Y-79642210D01*
X136015185Y-79554609D01*
X136015172Y-79554602D01*
X135869501Y-79494264D01*
X135869489Y-79494261D01*
X135714845Y-79463500D01*
X135714842Y-79463500D01*
X135557158Y-79463500D01*
X135557155Y-79463500D01*
X135402510Y-79494261D01*
X135402498Y-79494264D01*
X135256827Y-79554602D01*
X135256814Y-79554609D01*
X135125711Y-79642210D01*
X135125707Y-79642213D01*
X135014213Y-79753707D01*
X135014210Y-79753711D01*
X134926609Y-79884814D01*
X134926602Y-79884827D01*
X134866264Y-80030498D01*
X134866261Y-80030510D01*
X134835500Y-80185153D01*
X133387232Y-80185153D01*
X133352292Y-80150213D01*
X133352288Y-80150210D01*
X133221185Y-80062609D01*
X133221172Y-80062602D01*
X133075501Y-80002264D01*
X133075489Y-80002261D01*
X132920845Y-79971500D01*
X132920842Y-79971500D01*
X132763158Y-79971500D01*
X132763155Y-79971500D01*
X132608510Y-80002261D01*
X132608498Y-80002264D01*
X132462827Y-80062602D01*
X132462814Y-80062609D01*
X132331711Y-80150210D01*
X132331707Y-80150213D01*
X132220213Y-80261707D01*
X132220210Y-80261711D01*
X132132609Y-80392814D01*
X132132602Y-80392827D01*
X132072264Y-80538498D01*
X132072261Y-80538510D01*
X132041500Y-80693153D01*
X116500500Y-80693153D01*
X116500500Y-78915153D01*
X141947500Y-78915153D01*
X141947500Y-79072846D01*
X141978261Y-79227489D01*
X141978264Y-79227501D01*
X142038602Y-79373172D01*
X142038609Y-79373185D01*
X142126210Y-79504288D01*
X142126213Y-79504292D01*
X142237707Y-79615786D01*
X142237711Y-79615789D01*
X142368814Y-79703390D01*
X142368827Y-79703397D01*
X142490288Y-79753707D01*
X142514503Y-79763737D01*
X142669153Y-79794499D01*
X142669156Y-79794500D01*
X142669158Y-79794500D01*
X142826844Y-79794500D01*
X142826845Y-79794499D01*
X142981497Y-79763737D01*
X143127179Y-79703394D01*
X143258289Y-79615789D01*
X143369789Y-79504289D01*
X143457394Y-79373179D01*
X143517737Y-79227497D01*
X143548500Y-79072842D01*
X143548500Y-78915158D01*
X143548500Y-78915155D01*
X143548499Y-78915153D01*
X143531660Y-78830499D01*
X143517737Y-78760503D01*
X143461667Y-78625137D01*
X143457397Y-78614827D01*
X143457390Y-78614814D01*
X143369789Y-78483711D01*
X143369786Y-78483707D01*
X143258292Y-78372213D01*
X143258288Y-78372210D01*
X143127185Y-78284609D01*
X143127172Y-78284602D01*
X142981501Y-78224264D01*
X142981489Y-78224261D01*
X142826845Y-78193500D01*
X142826842Y-78193500D01*
X142669158Y-78193500D01*
X142669155Y-78193500D01*
X142514510Y-78224261D01*
X142514498Y-78224264D01*
X142368827Y-78284602D01*
X142368814Y-78284609D01*
X142237711Y-78372210D01*
X142237707Y-78372213D01*
X142126213Y-78483707D01*
X142126210Y-78483711D01*
X142038609Y-78614814D01*
X142038602Y-78614827D01*
X141978264Y-78760498D01*
X141978261Y-78760510D01*
X141947500Y-78915153D01*
X116500500Y-78915153D01*
X116500500Y-75253750D01*
X116500726Y-75246263D01*
X116511636Y-75065902D01*
X117625500Y-75065902D01*
X117625500Y-75302097D01*
X117662446Y-75535368D01*
X117735433Y-75759996D01*
X117803405Y-75893397D01*
X117842657Y-75970433D01*
X117981483Y-76161510D01*
X118148490Y-76328517D01*
X118339567Y-76467343D01*
X118438991Y-76518002D01*
X118550003Y-76574566D01*
X118550005Y-76574566D01*
X118550008Y-76574568D01*
X118670412Y-76613689D01*
X118774631Y-76647553D01*
X119007903Y-76684500D01*
X119007908Y-76684500D01*
X119244097Y-76684500D01*
X119477368Y-76647553D01*
X119701992Y-76574568D01*
X119912433Y-76467343D01*
X120103510Y-76328517D01*
X120270517Y-76161510D01*
X120409343Y-75970433D01*
X120432223Y-75925528D01*
X123753500Y-75925528D01*
X123753500Y-76234471D01*
X123788086Y-76541437D01*
X123788089Y-76541455D01*
X123856831Y-76842635D01*
X123856835Y-76842647D01*
X123958862Y-77134222D01*
X123958868Y-77134236D01*
X124092903Y-77412562D01*
X124092905Y-77412565D01*
X124257265Y-77674143D01*
X124449880Y-77915674D01*
X124668326Y-78134120D01*
X124909857Y-78326735D01*
X125171435Y-78491095D01*
X125449771Y-78625135D01*
X125449777Y-78625137D01*
X125741352Y-78727164D01*
X125741364Y-78727168D01*
X126042548Y-78795911D01*
X126042554Y-78795911D01*
X126042562Y-78795913D01*
X126247206Y-78818970D01*
X126349529Y-78830499D01*
X126349532Y-78830500D01*
X126349535Y-78830500D01*
X128158468Y-78830500D01*
X128158469Y-78830499D01*
X128315356Y-78812822D01*
X128465437Y-78795913D01*
X128465442Y-78795912D01*
X128465452Y-78795911D01*
X128766636Y-78727168D01*
X129058229Y-78625135D01*
X129336565Y-78491095D01*
X129598143Y-78326735D01*
X129839674Y-78134120D01*
X130058120Y-77915674D01*
X130250735Y-77674143D01*
X130415095Y-77412565D01*
X130549135Y-77134229D01*
X130651168Y-76842636D01*
X130719911Y-76541452D01*
X130754500Y-76234465D01*
X130754500Y-75925535D01*
X130735848Y-75759992D01*
X130719913Y-75618562D01*
X130719910Y-75618544D01*
X130674023Y-75417501D01*
X130651168Y-75317364D01*
X130576912Y-75105153D01*
X132041500Y-75105153D01*
X132041500Y-75262846D01*
X132072261Y-75417489D01*
X132072264Y-75417501D01*
X132132602Y-75563172D01*
X132132609Y-75563185D01*
X132220210Y-75694288D01*
X132220213Y-75694292D01*
X132331707Y-75805786D01*
X132331711Y-75805789D01*
X132462814Y-75893390D01*
X132462827Y-75893397D01*
X132608498Y-75953735D01*
X132608503Y-75953737D01*
X132763153Y-75984499D01*
X132763156Y-75984500D01*
X132763158Y-75984500D01*
X132920844Y-75984500D01*
X132920845Y-75984499D01*
X133075497Y-75953737D01*
X133221179Y-75893394D01*
X133352289Y-75805789D01*
X133463789Y-75694289D01*
X133551394Y-75563179D01*
X133611737Y-75417497D01*
X133642500Y-75262842D01*
X133642500Y-75105158D01*
X133642500Y-75105155D01*
X133642499Y-75105153D01*
X133611738Y-74950510D01*
X133611737Y-74950503D01*
X133562914Y-74832632D01*
X133551397Y-74804827D01*
X133551390Y-74804814D01*
X133463789Y-74673711D01*
X133463786Y-74673707D01*
X133352292Y-74562213D01*
X133352288Y-74562210D01*
X133221185Y-74474609D01*
X133221172Y-74474602D01*
X133075501Y-74414264D01*
X133075489Y-74414261D01*
X132920845Y-74383500D01*
X132920842Y-74383500D01*
X132763158Y-74383500D01*
X132763155Y-74383500D01*
X132608510Y-74414261D01*
X132608498Y-74414264D01*
X132462827Y-74474602D01*
X132462814Y-74474609D01*
X132331711Y-74562210D01*
X132331707Y-74562213D01*
X132220213Y-74673707D01*
X132220210Y-74673711D01*
X132132609Y-74804814D01*
X132132602Y-74804827D01*
X132072264Y-74950498D01*
X132072261Y-74950510D01*
X132041500Y-75105153D01*
X130576912Y-75105153D01*
X130549135Y-75025771D01*
X130512885Y-74950498D01*
X130415096Y-74747437D01*
X130407753Y-74735750D01*
X130250735Y-74485857D01*
X130058120Y-74244326D01*
X129839674Y-74025880D01*
X129600510Y-73835153D01*
X137121500Y-73835153D01*
X137121500Y-73992846D01*
X137152261Y-74147489D01*
X137152264Y-74147501D01*
X137212602Y-74293172D01*
X137212609Y-74293185D01*
X137300210Y-74424288D01*
X137300213Y-74424292D01*
X137411707Y-74535786D01*
X137411711Y-74535789D01*
X137542814Y-74623390D01*
X137542827Y-74623397D01*
X137664288Y-74673707D01*
X137688503Y-74683737D01*
X137843153Y-74714499D01*
X137843156Y-74714500D01*
X137843158Y-74714500D01*
X138000844Y-74714500D01*
X138000845Y-74714499D01*
X138155497Y-74683737D01*
X138301179Y-74623394D01*
X138432289Y-74535789D01*
X138543789Y-74424289D01*
X138631394Y-74293179D01*
X138691737Y-74147497D01*
X138722500Y-73992842D01*
X138722500Y-73835158D01*
X138722500Y-73835155D01*
X138722499Y-73835153D01*
X138691738Y-73680510D01*
X138691737Y-73680503D01*
X138655296Y-73592525D01*
X138631397Y-73534827D01*
X138631390Y-73534814D01*
X138543789Y-73403711D01*
X138543786Y-73403707D01*
X138432292Y-73292213D01*
X138432288Y-73292210D01*
X138301185Y-73204609D01*
X138301172Y-73204602D01*
X138155501Y-73144264D01*
X138155489Y-73144261D01*
X138000845Y-73113500D01*
X138000842Y-73113500D01*
X137843158Y-73113500D01*
X137843155Y-73113500D01*
X137688510Y-73144261D01*
X137688498Y-73144264D01*
X137542827Y-73204602D01*
X137542814Y-73204609D01*
X137411711Y-73292210D01*
X137411707Y-73292213D01*
X137300213Y-73403707D01*
X137300210Y-73403711D01*
X137212609Y-73534814D01*
X137212602Y-73534827D01*
X137152264Y-73680498D01*
X137152261Y-73680510D01*
X137121500Y-73835153D01*
X129600510Y-73835153D01*
X129598143Y-73833265D01*
X129336565Y-73668905D01*
X129336562Y-73668903D01*
X129058236Y-73534868D01*
X129058222Y-73534862D01*
X128766647Y-73432835D01*
X128766635Y-73432831D01*
X128465455Y-73364089D01*
X128465437Y-73364086D01*
X128158471Y-73329500D01*
X128158465Y-73329500D01*
X126349535Y-73329500D01*
X126349528Y-73329500D01*
X126042562Y-73364086D01*
X126042544Y-73364089D01*
X125741364Y-73432831D01*
X125741352Y-73432835D01*
X125449777Y-73534862D01*
X125449763Y-73534868D01*
X125171437Y-73668903D01*
X124909858Y-73833264D01*
X124668326Y-74025879D01*
X124449879Y-74244326D01*
X124257264Y-74485858D01*
X124092903Y-74747437D01*
X123958868Y-75025763D01*
X123958862Y-75025777D01*
X123856835Y-75317352D01*
X123856831Y-75317364D01*
X123788089Y-75618544D01*
X123788086Y-75618562D01*
X123753500Y-75925528D01*
X120432223Y-75925528D01*
X120516568Y-75759992D01*
X120589553Y-75535368D01*
X120626500Y-75302097D01*
X120626500Y-75065902D01*
X120589553Y-74832631D01*
X120516566Y-74608003D01*
X120422960Y-74424292D01*
X120409343Y-74397567D01*
X120270517Y-74206490D01*
X120103510Y-74039483D01*
X119912433Y-73900657D01*
X119701996Y-73793433D01*
X119477368Y-73720446D01*
X119244097Y-73683500D01*
X119244092Y-73683500D01*
X119007908Y-73683500D01*
X119007903Y-73683500D01*
X118774631Y-73720446D01*
X118550003Y-73793433D01*
X118339566Y-73900657D01*
X118230550Y-73979862D01*
X118148490Y-74039483D01*
X118148488Y-74039485D01*
X118148487Y-74039485D01*
X117981485Y-74206487D01*
X117981485Y-74206488D01*
X117981483Y-74206490D01*
X117921862Y-74288550D01*
X117842657Y-74397566D01*
X117735433Y-74608003D01*
X117662446Y-74832631D01*
X117625500Y-75065902D01*
X116511636Y-75065902D01*
X116512383Y-75053549D01*
X116518271Y-74956205D01*
X116520076Y-74941340D01*
X116545096Y-74804814D01*
X116571780Y-74659198D01*
X116575364Y-74644664D01*
X116581992Y-74623394D01*
X116660699Y-74370812D01*
X116665997Y-74356842D01*
X116783727Y-74095258D01*
X116790680Y-74082012D01*
X116844582Y-73992846D01*
X116939075Y-73836534D01*
X116947567Y-73824230D01*
X117124481Y-73598417D01*
X117134396Y-73587226D01*
X117337226Y-73384396D01*
X117348417Y-73374481D01*
X117574230Y-73197567D01*
X117586534Y-73189075D01*
X117832012Y-73040680D01*
X117845258Y-73033727D01*
X118106842Y-72915997D01*
X118120812Y-72910699D01*
X118394668Y-72825362D01*
X118409198Y-72821780D01*
X118691344Y-72770075D01*
X118706201Y-72768271D01*
X118996264Y-72750726D01*
X119003751Y-72750500D01*
X119065892Y-72750500D01*
X141934108Y-72750500D01*
X141996249Y-72750500D01*
X142003736Y-72750726D01*
G37*
%TD.AperFunction*%
%TD*%
M02*
