%TF.GenerationSoftware,KiCad,Pcbnew,10.0.5*%
%TF.CreationDate,2026-09-13T22:07:19+01:00*%
%TF.ProjectId,water_timer_revB,77617465-725f-4746-996d-65725f726576,rev?*%
%TF.SameCoordinates,Original*%
%TF.FileFunction,Copper,L4,Bot*%
%TF.FilePolarity,Positive*%
%FSLAX46Y46*%
G04 Gerber Fmt 4.6, Leading zero omitted, Abs format (unit mm)*
G04 Created by KiCad (PCBNEW 10.0.5) date 2026-09-13 22:07:19*
%MOMM*%
%LPD*%
G01*
G04 APERTURE LIST*
G04 Aperture macros list*
%AMFreePoly0*
4,1,23,0.500000,-0.750000,0.000000,-0.750000,0.000000,-0.745722,-0.065263,-0.745722,-0.191342,-0.711940,-0.304381,-0.646677,-0.396677,-0.554381,-0.461940,-0.441342,-0.495722,-0.315263,-0.495722,-0.250000,-0.500000,-0.250000,-0.500000,0.250000,-0.495722,0.250000,-0.495722,0.315263,-0.461940,0.441342,-0.396677,0.554381,-0.304381,0.646677,-0.191342,0.711940,-0.065263,0.745722,0.000000,0.745722,
0.000000,0.750000,0.500000,0.750000,0.500000,-0.750000,0.500000,-0.750000,$1*%
%AMFreePoly1*
4,1,23,0.000000,0.745722,0.065263,0.745722,0.191342,0.711940,0.304381,0.646677,0.396677,0.554381,0.461940,0.441342,0.495722,0.315263,0.495722,0.250000,0.500000,0.250000,0.500000,-0.250000,0.495722,-0.250000,0.495722,-0.315263,0.461940,-0.441342,0.396677,-0.554381,0.304381,-0.646677,0.191342,-0.711940,0.065263,-0.745722,0.000000,-0.745722,0.000000,-0.750000,-0.500000,-0.750000,
-0.500000,0.750000,0.000000,0.750000,0.000000,0.745722,0.000000,0.745722,$1*%
G04 Aperture macros list end*
%TA.AperFunction,SMDPad,CuDef*%
%ADD10FreePoly0,90.000000*%
%TD*%
%TA.AperFunction,SMDPad,CuDef*%
%ADD11FreePoly1,90.000000*%
%TD*%
%TA.AperFunction,SMDPad,CuDef*%
%ADD12O,1.500000X0.800000*%
%TD*%
%TA.AperFunction,SMDPad,CuDef*%
%ADD13FreePoly0,132.000000*%
%TD*%
%TA.AperFunction,SMDPad,CuDef*%
%ADD14FreePoly1,132.000000*%
%TD*%
%TA.AperFunction,ComponentPad*%
%ADD15O,6.000000X4.500000*%
%TD*%
%TA.AperFunction,SMDPad,CuDef*%
%ADD16C,8.000000*%
%TD*%
%TA.AperFunction,ViaPad*%
%ADD17C,0.600000*%
%TD*%
%TA.AperFunction,Conductor*%
%ADD18C,0.200000*%
%TD*%
%TA.AperFunction,Conductor*%
%ADD19C,1.000000*%
%TD*%
%TA.AperFunction,Conductor*%
%ADD20C,1.500000*%
%TD*%
G04 APERTURE END LIST*
D10*
%TO.P,JP2,1,A_1*%
%TO.N,3V3*%
X137922000Y-98186000D03*
D11*
%TO.P,JP2,2,B_2*%
%TO.N,VCC*%
X137922000Y-96886000D03*
%TD*%
D12*
%TO.P,J2,5,Pin_5_5*%
%TO.N,VCC*%
X143268000Y-93853000D03*
%TO.P,J2,6,Pin_6_6*%
%TO.N,UART2_RX*%
X143268000Y-92583000D03*
%TO.P,J2,7,Pin_7_7*%
%TO.N,GND*%
X143268000Y-91313000D03*
%TO.P,J2,8,Pin_8_8*%
%TO.N,UART2_TX*%
X143268000Y-90043000D03*
%TD*%
D13*
%TO.P,JP1,1,A_1*%
%TO.N,VBAT*%
X119487870Y-96216088D03*
D14*
%TO.P,JP1,2,B_2*%
%TO.N,VCC*%
X118618000Y-95250000D03*
%TD*%
D15*
%TO.P,P1,1,1_1*%
%TO.N,VBAT*%
X127254000Y-97580000D03*
X127254000Y-76080000D03*
D16*
%TO.P,P1,2,2_2*%
%TO.N,GND*%
X127254000Y-86830000D03*
%TD*%
D17*
%TO.N,VCC*%
X137922000Y-96774000D03*
%TO.N,3V3*%
X138684000Y-99060000D03*
%TO.N,VCC*%
X140208000Y-93980000D03*
%TO.N,UART2_TX*%
X131318000Y-90170000D03*
X137668000Y-90170000D03*
%TO.N,UART2_RX*%
X134366000Y-93980000D03*
X126746000Y-91440000D03*
%TO.N,SWCLK*%
X143764000Y-94996000D03*
X132588000Y-90932000D03*
%TO.N,SWDIO*%
X131405606Y-88566136D03*
X137414000Y-87630000D03*
%TO.N,NRST*%
X137668000Y-88646000D03*
X124460000Y-90678000D03*
%TO.N,GREEN*%
X121920000Y-86868000D03*
X125984000Y-93726000D03*
%TO.N,VCC*%
X130048000Y-91369000D03*
X134874000Y-96394000D03*
X124714000Y-91440000D03*
X128778000Y-80772000D03*
X141732000Y-73914000D03*
%TO.N,GND*%
X127508000Y-91948000D03*
X119888000Y-93980000D03*
X119888000Y-88392000D03*
X135890000Y-82804000D03*
X127508000Y-85852000D03*
X133604000Y-85852000D03*
X132842000Y-75184000D03*
X137922000Y-73914000D03*
X142748000Y-78994000D03*
X135636000Y-80264000D03*
X132842000Y-80772000D03*
X122428000Y-82296000D03*
%TO.N,VCC*%
X117983000Y-94615000D03*
%TD*%
%TO.N,3V3*%
D18*
X137922000Y-98186000D02*
X138684000Y-98948000D01*
%TO.N,GND*%
X143268000Y-91313000D02*
X143618000Y-91313000D01*
X143618000Y-91313000D02*
X144318000Y-90613000D01*
X144318000Y-90613000D02*
X144318000Y-86914000D01*
X144318000Y-86914000D02*
X140208000Y-82804000D01*
X140208000Y-82804000D02*
X135890000Y-82804000D01*
%TO.N,VCC*%
D19*
X117983000Y-94615000D02*
X118618000Y-95250000D01*
D18*
X141416000Y-95188000D02*
X140208000Y-93980000D01*
X142402949Y-95188000D02*
X141416000Y-95188000D01*
X143268000Y-94322949D02*
X142402949Y-95188000D01*
X143268000Y-93853000D02*
X143268000Y-94322949D01*
%TO.N,UART2_TX*%
X139638000Y-88708000D02*
X142402949Y-88708000D01*
X138176000Y-90170000D02*
X139638000Y-88708000D01*
X137668000Y-90170000D02*
X138176000Y-90170000D01*
X142402949Y-88708000D02*
X143268000Y-89573051D01*
X143268000Y-89573051D02*
X143268000Y-90043000D01*
%TO.N,UART2_RX*%
X143268000Y-92583000D02*
X143765000Y-92583000D01*
X143765000Y-92583000D02*
X144364000Y-93182000D01*
X144364000Y-93182000D02*
X144364000Y-95244529D01*
X144364000Y-95244529D02*
X144012529Y-95596000D01*
X144012529Y-95596000D02*
X135982000Y-95596000D01*
X135982000Y-95596000D02*
X134366000Y-93980000D01*
%TO.N,VBAT*%
D20*
X127254000Y-76080000D02*
X125850000Y-76080000D01*
X125850000Y-76080000D02*
X118618000Y-83312000D01*
X118618000Y-83312000D02*
X118618000Y-88944000D01*
X118618000Y-88944000D02*
X127254000Y-97580000D01*
D19*
X119487870Y-96216088D02*
X125890088Y-96216088D01*
X125890088Y-96216088D02*
X127254000Y-97580000D01*
%TD*%
%TA.AperFunction,Conductor*%
%TO.N,GND*%
G36*
X142003736Y-72750726D02*
G01*
X142293796Y-72768271D01*
X142308659Y-72770076D01*
X142590797Y-72821780D01*
X142605334Y-72825363D01*
X142879182Y-72910698D01*
X142893163Y-72916000D01*
X143154734Y-73033724D01*
X143167987Y-73040680D01*
X143413458Y-73189071D01*
X143425776Y-73197573D01*
X143651573Y-73374474D01*
X143662781Y-73384404D01*
X143865595Y-73587218D01*
X143875525Y-73598426D01*
X144052422Y-73824217D01*
X144060928Y-73836541D01*
X144209319Y-74082012D01*
X144216277Y-74095269D01*
X144305352Y-74293185D01*
X144333994Y-74356823D01*
X144339304Y-74370825D01*
X144424635Y-74644664D01*
X144428219Y-74659202D01*
X144479923Y-74941340D01*
X144481728Y-74956205D01*
X144499274Y-75246263D01*
X144499500Y-75253750D01*
X144499500Y-89351638D01*
X144479815Y-89418677D01*
X144427011Y-89464432D01*
X144357853Y-89474376D01*
X144294297Y-89445351D01*
X144287819Y-89439319D01*
X144192038Y-89343538D01*
X144192034Y-89343535D01*
X144044553Y-89244990D01*
X144044540Y-89244983D01*
X143880667Y-89177106D01*
X143880658Y-89177103D01*
X143718609Y-89144870D01*
X143656698Y-89112485D01*
X143655117Y-89110932D01*
X143632397Y-89088211D01*
X143632374Y-89088190D01*
X142890539Y-88346355D01*
X142890537Y-88346352D01*
X142771666Y-88227481D01*
X142771665Y-88227480D01*
X142684853Y-88177360D01*
X142684853Y-88177359D01*
X142684849Y-88177358D01*
X142634734Y-88148423D01*
X142482006Y-88107499D01*
X142323892Y-88107499D01*
X142316296Y-88107499D01*
X142316280Y-88107500D01*
X139717057Y-88107500D01*
X139558942Y-88107500D01*
X139406215Y-88148423D01*
X139406214Y-88148423D01*
X139406212Y-88148424D01*
X139406209Y-88148425D01*
X139356096Y-88177359D01*
X139356095Y-88177360D01*
X139339462Y-88186963D01*
X139269285Y-88227479D01*
X139269282Y-88227481D01*
X138680181Y-88816583D01*
X138618858Y-88850068D01*
X138549166Y-88845084D01*
X138493233Y-88803212D01*
X138468816Y-88737748D01*
X138468500Y-88728902D01*
X138468500Y-88567155D01*
X138468499Y-88567153D01*
X138440427Y-88426026D01*
X138437737Y-88412503D01*
X138437735Y-88412498D01*
X138377397Y-88266827D01*
X138377390Y-88266814D01*
X138289789Y-88135711D01*
X138289786Y-88135707D01*
X138193656Y-88039577D01*
X138160171Y-87978254D01*
X138165155Y-87908562D01*
X138166762Y-87904476D01*
X138183737Y-87863497D01*
X138214500Y-87708842D01*
X138214500Y-87551158D01*
X138214500Y-87551155D01*
X138214499Y-87551153D01*
X138202292Y-87489786D01*
X138183737Y-87396503D01*
X138176194Y-87378292D01*
X138123397Y-87250827D01*
X138123390Y-87250814D01*
X138035789Y-87119711D01*
X138035786Y-87119707D01*
X137924292Y-87008213D01*
X137924288Y-87008210D01*
X137793185Y-86920609D01*
X137793172Y-86920602D01*
X137647501Y-86860264D01*
X137647489Y-86860261D01*
X137492845Y-86829500D01*
X137492842Y-86829500D01*
X137335158Y-86829500D01*
X137335155Y-86829500D01*
X137180510Y-86860261D01*
X137180498Y-86860264D01*
X137034827Y-86920602D01*
X137034814Y-86920609D01*
X136903711Y-87008210D01*
X136903707Y-87008213D01*
X136792213Y-87119707D01*
X136792210Y-87119711D01*
X136704609Y-87250814D01*
X136704602Y-87250827D01*
X136644264Y-87396498D01*
X136644261Y-87396510D01*
X136613500Y-87551153D01*
X136613500Y-87708846D01*
X136644261Y-87863489D01*
X136644264Y-87863501D01*
X136704602Y-88009172D01*
X136704609Y-88009185D01*
X136792210Y-88140288D01*
X136792213Y-88140292D01*
X136888343Y-88236422D01*
X136921828Y-88297745D01*
X136916844Y-88367437D01*
X136915224Y-88371553D01*
X136898263Y-88412501D01*
X136898260Y-88412511D01*
X136867500Y-88567153D01*
X136867500Y-88724846D01*
X136898261Y-88879489D01*
X136898264Y-88879501D01*
X136958602Y-89025172D01*
X136958609Y-89025185D01*
X137046210Y-89156288D01*
X137046213Y-89156292D01*
X137157707Y-89267786D01*
X137157710Y-89267788D01*
X137157711Y-89267789D01*
X137169296Y-89275530D01*
X137213248Y-89304898D01*
X137258052Y-89358511D01*
X137266759Y-89427836D01*
X137236604Y-89490863D01*
X137213248Y-89511102D01*
X137157707Y-89548213D01*
X137046213Y-89659707D01*
X137046210Y-89659711D01*
X136958609Y-89790814D01*
X136958602Y-89790827D01*
X136898264Y-89936498D01*
X136898261Y-89936510D01*
X136867500Y-90091153D01*
X136867500Y-90248846D01*
X136898261Y-90403489D01*
X136898264Y-90403501D01*
X136958602Y-90549172D01*
X136958609Y-90549185D01*
X137046210Y-90680288D01*
X137046213Y-90680292D01*
X137157707Y-90791786D01*
X137157711Y-90791789D01*
X137288814Y-90879390D01*
X137288827Y-90879397D01*
X137410298Y-90929711D01*
X137434503Y-90939737D01*
X137589153Y-90970499D01*
X137589156Y-90970500D01*
X137589158Y-90970500D01*
X137746844Y-90970500D01*
X137746845Y-90970499D01*
X137901497Y-90939737D01*
X138014166Y-90893067D01*
X138047172Y-90879397D01*
X138047172Y-90879396D01*
X138047179Y-90879394D01*
X138086444Y-90853158D01*
X138178873Y-90791399D01*
X138245550Y-90770521D01*
X138247764Y-90770501D01*
X138255054Y-90770501D01*
X138255057Y-90770501D01*
X138407785Y-90729577D01*
X138461606Y-90698503D01*
X138544716Y-90650520D01*
X138656520Y-90538716D01*
X138656520Y-90538714D01*
X138666724Y-90528511D01*
X138666727Y-90528506D01*
X139850416Y-89344819D01*
X139911739Y-89311334D01*
X139938097Y-89308500D01*
X141388500Y-89308500D01*
X141455539Y-89328185D01*
X141501294Y-89380989D01*
X141512500Y-89432500D01*
X141512500Y-89487057D01*
X141547172Y-89616453D01*
X141553423Y-89639783D01*
X141553426Y-89639790D01*
X141632475Y-89776709D01*
X141632479Y-89776714D01*
X141632480Y-89776716D01*
X141744284Y-89888520D01*
X141744285Y-89888521D01*
X141744287Y-89888522D01*
X141825851Y-89935613D01*
X141874067Y-89986180D01*
X141887290Y-90054787D01*
X141861322Y-90119652D01*
X141825851Y-90150387D01*
X141744287Y-90197477D01*
X141744282Y-90197481D01*
X141632481Y-90309282D01*
X141632475Y-90309290D01*
X141553426Y-90446209D01*
X141553423Y-90446216D01*
X141512500Y-90598943D01*
X141512500Y-90757057D01*
X141538250Y-90853155D01*
X141553423Y-90909783D01*
X141553426Y-90909790D01*
X141632475Y-91046709D01*
X141632479Y-91046714D01*
X141632480Y-91046716D01*
X141744284Y-91158520D01*
X141744285Y-91158521D01*
X141744287Y-91158522D01*
X141825851Y-91205613D01*
X141874067Y-91256180D01*
X141887290Y-91324787D01*
X141861322Y-91389652D01*
X141825851Y-91420387D01*
X141744287Y-91467477D01*
X141744282Y-91467481D01*
X141632481Y-91579282D01*
X141632475Y-91579290D01*
X141553426Y-91716209D01*
X141553423Y-91716216D01*
X141512500Y-91868943D01*
X141512500Y-92027057D01*
X141550668Y-92169500D01*
X141553423Y-92179783D01*
X141553426Y-92179790D01*
X141632475Y-92316709D01*
X141632479Y-92316714D01*
X141632480Y-92316716D01*
X141744284Y-92428520D01*
X141744285Y-92428521D01*
X141744287Y-92428522D01*
X141825851Y-92475613D01*
X141874067Y-92526180D01*
X141887290Y-92594787D01*
X141861322Y-92659652D01*
X141825851Y-92690387D01*
X141744287Y-92737477D01*
X141744282Y-92737481D01*
X141632481Y-92849282D01*
X141632475Y-92849290D01*
X141553426Y-92986209D01*
X141553423Y-92986216D01*
X141512500Y-93138943D01*
X141512500Y-93297057D01*
X141525833Y-93346814D01*
X141553423Y-93449783D01*
X141553426Y-93449790D01*
X141632475Y-93586709D01*
X141632479Y-93586714D01*
X141632480Y-93586716D01*
X141744284Y-93698520D01*
X141744285Y-93698521D01*
X141744287Y-93698522D01*
X141825851Y-93745613D01*
X141874067Y-93796180D01*
X141887290Y-93864787D01*
X141861322Y-93929652D01*
X141825851Y-93960387D01*
X141744287Y-94007477D01*
X141744282Y-94007481D01*
X141632481Y-94119282D01*
X141632477Y-94119287D01*
X141553707Y-94255723D01*
X141503140Y-94303938D01*
X141434533Y-94317162D01*
X141369669Y-94291194D01*
X141358639Y-94281404D01*
X141042574Y-93965339D01*
X141009089Y-93904016D01*
X141008638Y-93901849D01*
X140977738Y-93746510D01*
X140977737Y-93746503D01*
X140938985Y-93652947D01*
X140917397Y-93600827D01*
X140917390Y-93600814D01*
X140829789Y-93469711D01*
X140829786Y-93469707D01*
X140718292Y-93358213D01*
X140718288Y-93358210D01*
X140587185Y-93270609D01*
X140587172Y-93270602D01*
X140441501Y-93210264D01*
X140441489Y-93210261D01*
X140286845Y-93179500D01*
X140286842Y-93179500D01*
X140129158Y-93179500D01*
X140129155Y-93179500D01*
X139974510Y-93210261D01*
X139974498Y-93210264D01*
X139828827Y-93270602D01*
X139828814Y-93270609D01*
X139697711Y-93358210D01*
X139697707Y-93358213D01*
X139586213Y-93469707D01*
X139586210Y-93469711D01*
X139498609Y-93600814D01*
X139498602Y-93600827D01*
X139438264Y-93746498D01*
X139438261Y-93746510D01*
X139407500Y-93901153D01*
X139407500Y-94058846D01*
X139438261Y-94213489D01*
X139438264Y-94213501D01*
X139498602Y-94359172D01*
X139498609Y-94359185D01*
X139586210Y-94490288D01*
X139586213Y-94490292D01*
X139697707Y-94601786D01*
X139697711Y-94601789D01*
X139828814Y-94689390D01*
X139828827Y-94689397D01*
X139974498Y-94749735D01*
X139974503Y-94749737D01*
X139974505Y-94749737D01*
X139974507Y-94749738D01*
X139975236Y-94749883D01*
X139975582Y-94750064D01*
X139980335Y-94751506D01*
X139980061Y-94752407D01*
X140037146Y-94782269D01*
X140071720Y-94842985D01*
X140067979Y-94912754D01*
X140027112Y-94969426D01*
X139962094Y-94995007D01*
X139951043Y-94995500D01*
X136282097Y-94995500D01*
X136215058Y-94975815D01*
X136194416Y-94959181D01*
X135200574Y-93965339D01*
X135167089Y-93904016D01*
X135166638Y-93901849D01*
X135135738Y-93746510D01*
X135135737Y-93746503D01*
X135096985Y-93652947D01*
X135075397Y-93600827D01*
X135075390Y-93600814D01*
X134987789Y-93469711D01*
X134987786Y-93469707D01*
X134876292Y-93358213D01*
X134876288Y-93358210D01*
X134745185Y-93270609D01*
X134745172Y-93270602D01*
X134599501Y-93210264D01*
X134599489Y-93210261D01*
X134444845Y-93179500D01*
X134444842Y-93179500D01*
X134287158Y-93179500D01*
X134287155Y-93179500D01*
X134132510Y-93210261D01*
X134132498Y-93210264D01*
X133986827Y-93270602D01*
X133986814Y-93270609D01*
X133855711Y-93358210D01*
X133855707Y-93358213D01*
X133744213Y-93469707D01*
X133744210Y-93469711D01*
X133656609Y-93600814D01*
X133656602Y-93600827D01*
X133596264Y-93746498D01*
X133596261Y-93746510D01*
X133565500Y-93901153D01*
X133565500Y-94058846D01*
X133596261Y-94213489D01*
X133596264Y-94213501D01*
X133656602Y-94359172D01*
X133656609Y-94359185D01*
X133744210Y-94490288D01*
X133744213Y-94490292D01*
X133855707Y-94601786D01*
X133855711Y-94601789D01*
X133986814Y-94689390D01*
X133986827Y-94689397D01*
X134132498Y-94749735D01*
X134132503Y-94749737D01*
X134197147Y-94762595D01*
X134287849Y-94780638D01*
X134349760Y-94813023D01*
X134351339Y-94814574D01*
X134918584Y-95381819D01*
X134952069Y-95443142D01*
X134947085Y-95512834D01*
X134905213Y-95568767D01*
X134839749Y-95593184D01*
X134830903Y-95593500D01*
X134795155Y-95593500D01*
X134640510Y-95624261D01*
X134640498Y-95624264D01*
X134494827Y-95684602D01*
X134494814Y-95684609D01*
X134363711Y-95772210D01*
X134363707Y-95772213D01*
X134252213Y-95883707D01*
X134252210Y-95883711D01*
X134164609Y-96014814D01*
X134164602Y-96014827D01*
X134104264Y-96160498D01*
X134104261Y-96160510D01*
X134073500Y-96315153D01*
X134073500Y-96472846D01*
X134104261Y-96627489D01*
X134104264Y-96627501D01*
X134164602Y-96773172D01*
X134164609Y-96773185D01*
X134252210Y-96904288D01*
X134252213Y-96904292D01*
X134363707Y-97015786D01*
X134363711Y-97015789D01*
X134494814Y-97103390D01*
X134494827Y-97103397D01*
X134615747Y-97153483D01*
X134640503Y-97163737D01*
X134776572Y-97190803D01*
X134795153Y-97194499D01*
X134795156Y-97194500D01*
X134795158Y-97194500D01*
X134952844Y-97194500D01*
X134952845Y-97194499D01*
X135107497Y-97163737D01*
X135249053Y-97105103D01*
X135253172Y-97103397D01*
X135253172Y-97103396D01*
X135253179Y-97103394D01*
X135384289Y-97015789D01*
X135495789Y-96904289D01*
X135583394Y-96773179D01*
X135643737Y-96627497D01*
X135674500Y-96472842D01*
X135674500Y-96315158D01*
X135674500Y-96315155D01*
X135673903Y-96309093D01*
X135676711Y-96308816D01*
X135681768Y-96251324D01*
X135724546Y-96196081D01*
X135790400Y-96172735D01*
X135829313Y-96176771D01*
X135902943Y-96196500D01*
X136061057Y-96196500D01*
X136694258Y-96196500D01*
X136761297Y-96216185D01*
X136807052Y-96268989D01*
X136816996Y-96338147D01*
X136801645Y-96382498D01*
X136788671Y-96404970D01*
X136768301Y-96440252D01*
X136717800Y-96562170D01*
X136683724Y-96689341D01*
X136666500Y-96820166D01*
X136666500Y-97386002D01*
X136671644Y-97457939D01*
X136682603Y-97495262D01*
X136686363Y-97547841D01*
X136666500Y-97685998D01*
X136666500Y-98251833D01*
X136679234Y-98348553D01*
X136683725Y-98382662D01*
X136698610Y-98438211D01*
X136717800Y-98509829D01*
X136768302Y-98631750D01*
X136768303Y-98631751D01*
X136834120Y-98745749D01*
X136834132Y-98745767D01*
X136912709Y-98848169D01*
X136914459Y-98850449D01*
X137007551Y-98943541D01*
X137007555Y-98943544D01*
X137112232Y-99023867D01*
X137112236Y-99023869D01*
X137112243Y-99023875D01*
X137112250Y-99023879D01*
X137226248Y-99089696D01*
X137226249Y-99089697D01*
X137226252Y-99089698D01*
X137226257Y-99089701D01*
X137348171Y-99140200D01*
X137475338Y-99174275D01*
X137606174Y-99191500D01*
X137792210Y-99191500D01*
X137859249Y-99211185D01*
X137905004Y-99263989D01*
X137913827Y-99291305D01*
X137914262Y-99293495D01*
X137914264Y-99293501D01*
X137974602Y-99439172D01*
X137974609Y-99439185D01*
X138062210Y-99570288D01*
X138062213Y-99570292D01*
X138173707Y-99681786D01*
X138173711Y-99681789D01*
X138304814Y-99769390D01*
X138304827Y-99769397D01*
X138443255Y-99826735D01*
X138450503Y-99829737D01*
X138605153Y-99860499D01*
X138605156Y-99860500D01*
X138605158Y-99860500D01*
X138762844Y-99860500D01*
X138762845Y-99860499D01*
X138917497Y-99829737D01*
X139063179Y-99769394D01*
X139194289Y-99681789D01*
X139305789Y-99570289D01*
X139393394Y-99439179D01*
X139453737Y-99293497D01*
X139484500Y-99138842D01*
X139484500Y-98981158D01*
X139484500Y-98981155D01*
X139484499Y-98981153D01*
X139458499Y-98850444D01*
X139453737Y-98826503D01*
X139427951Y-98764250D01*
X139393397Y-98680827D01*
X139393390Y-98680814D01*
X139305789Y-98549711D01*
X139305786Y-98549707D01*
X139201117Y-98445038D01*
X139201115Y-98445037D01*
X139201113Y-98445034D01*
X139201009Y-98444930D01*
X139184457Y-98414617D01*
X139167556Y-98383754D01*
X139167551Y-98383658D01*
X139167524Y-98383607D01*
X139164995Y-98348553D01*
X139165257Y-98344813D01*
X139177500Y-98251826D01*
X139177500Y-98179902D01*
X140485500Y-98179902D01*
X140485500Y-98416097D01*
X140522446Y-98649368D01*
X140595433Y-98873996D01*
X140671797Y-99023867D01*
X140702657Y-99084433D01*
X140841483Y-99275510D01*
X141008490Y-99442517D01*
X141199567Y-99581343D01*
X141298991Y-99632002D01*
X141410003Y-99688566D01*
X141410005Y-99688566D01*
X141410008Y-99688568D01*
X141530412Y-99727689D01*
X141634631Y-99761553D01*
X141867903Y-99798500D01*
X141867908Y-99798500D01*
X142104097Y-99798500D01*
X142337368Y-99761553D01*
X142561992Y-99688568D01*
X142772433Y-99581343D01*
X142963510Y-99442517D01*
X143130517Y-99275510D01*
X143269343Y-99084433D01*
X143376568Y-98873992D01*
X143449553Y-98649368D01*
X143463920Y-98558659D01*
X143486500Y-98416097D01*
X143486500Y-98179902D01*
X143449553Y-97946631D01*
X143380616Y-97734467D01*
X143376568Y-97722008D01*
X143376566Y-97722005D01*
X143376566Y-97722003D01*
X143302551Y-97576741D01*
X143269343Y-97511567D01*
X143130517Y-97320490D01*
X142963510Y-97153483D01*
X142772433Y-97014657D01*
X142561996Y-96907433D01*
X142337368Y-96834446D01*
X142104097Y-96797500D01*
X142104092Y-96797500D01*
X141867908Y-96797500D01*
X141867903Y-96797500D01*
X141634631Y-96834446D01*
X141410003Y-96907433D01*
X141199566Y-97014657D01*
X141090550Y-97093862D01*
X141008490Y-97153483D01*
X141008488Y-97153485D01*
X141008487Y-97153485D01*
X140841485Y-97320487D01*
X140841485Y-97320488D01*
X140841483Y-97320490D01*
X140797823Y-97380583D01*
X140702657Y-97511566D01*
X140595433Y-97722003D01*
X140522446Y-97946631D01*
X140485500Y-98179902D01*
X139177500Y-98179902D01*
X139177500Y-97686000D01*
X139172355Y-97614060D01*
X139161396Y-97576740D01*
X139157636Y-97524158D01*
X139159446Y-97511567D01*
X139177500Y-97386000D01*
X139177500Y-96820174D01*
X139177128Y-96817352D01*
X139160275Y-96689341D01*
X139160275Y-96689338D01*
X139126200Y-96562171D01*
X139075701Y-96440257D01*
X139042354Y-96382499D01*
X139025882Y-96314601D01*
X139048734Y-96248574D01*
X139103655Y-96205383D01*
X139149742Y-96196500D01*
X143925860Y-96196500D01*
X143925876Y-96196501D01*
X143933472Y-96196501D01*
X144091583Y-96196501D01*
X144091586Y-96196501D01*
X144244314Y-96155577D01*
X144294433Y-96126639D01*
X144313501Y-96115630D01*
X144381398Y-96099157D01*
X144447425Y-96122008D01*
X144490617Y-96176929D01*
X144499500Y-96223017D01*
X144499500Y-98246249D01*
X144499274Y-98253736D01*
X144481728Y-98543794D01*
X144479923Y-98558659D01*
X144428219Y-98840797D01*
X144424635Y-98855335D01*
X144339304Y-99129174D01*
X144333994Y-99143176D01*
X144216277Y-99404730D01*
X144209319Y-99417987D01*
X144060928Y-99663458D01*
X144052422Y-99675782D01*
X143875525Y-99901573D01*
X143865595Y-99912781D01*
X143662781Y-100115595D01*
X143651573Y-100125525D01*
X143425782Y-100302422D01*
X143413458Y-100310928D01*
X143167987Y-100459319D01*
X143154730Y-100466277D01*
X142893176Y-100583994D01*
X142879174Y-100589304D01*
X142605335Y-100674635D01*
X142590797Y-100678219D01*
X142308659Y-100729923D01*
X142293794Y-100731728D01*
X142003736Y-100749274D01*
X141996249Y-100749500D01*
X119003751Y-100749500D01*
X118996264Y-100749274D01*
X118706205Y-100731728D01*
X118691340Y-100729923D01*
X118409202Y-100678219D01*
X118394664Y-100674635D01*
X118120825Y-100589304D01*
X118106827Y-100583995D01*
X117954096Y-100515256D01*
X117845269Y-100466277D01*
X117832012Y-100459319D01*
X117586541Y-100310928D01*
X117574217Y-100302422D01*
X117565906Y-100295911D01*
X117348426Y-100125525D01*
X117337218Y-100115595D01*
X117134404Y-99912781D01*
X117124474Y-99901573D01*
X117092295Y-99860500D01*
X116947573Y-99675776D01*
X116939071Y-99663458D01*
X116790680Y-99417987D01*
X116783722Y-99404730D01*
X116666000Y-99143163D01*
X116660698Y-99129182D01*
X116575363Y-98855334D01*
X116571780Y-98840797D01*
X116533471Y-98631751D01*
X116520075Y-98558657D01*
X116518271Y-98543794D01*
X116512297Y-98445038D01*
X116500726Y-98253736D01*
X116500500Y-98246249D01*
X116500500Y-94516455D01*
X116982500Y-94516455D01*
X116982500Y-94713544D01*
X117020947Y-94906828D01*
X117020949Y-94906836D01*
X117096367Y-95088910D01*
X117096372Y-95088920D01*
X117205860Y-95252780D01*
X117205863Y-95252784D01*
X117395817Y-95442737D01*
X117429302Y-95504060D01*
X117431753Y-95520685D01*
X117435001Y-95561949D01*
X117435002Y-95561956D01*
X117462371Y-95690717D01*
X117462375Y-95690731D01*
X117506421Y-95815115D01*
X117541370Y-95883707D01*
X117566189Y-95932418D01*
X117566192Y-95932423D01*
X117566196Y-95932429D01*
X117640928Y-96041167D01*
X117640932Y-96041172D01*
X117640935Y-96041176D01*
X117684981Y-96090094D01*
X117702610Y-96109673D01*
X117702615Y-96109677D01*
X117830155Y-96251324D01*
X118000266Y-96440252D01*
X118019548Y-96461666D01*
X118071508Y-96511685D01*
X118104621Y-96532085D01*
X118142600Y-96568644D01*
X118220285Y-96684608D01*
X118220288Y-96684612D01*
X118511870Y-97008448D01*
X118511906Y-97008487D01*
X118598900Y-97105102D01*
X118699245Y-97190803D01*
X118699247Y-97190804D01*
X118699248Y-97190805D01*
X118699251Y-97190807D01*
X118809660Y-97262507D01*
X118865365Y-97289077D01*
X118928762Y-97319316D01*
X119053970Y-97359999D01*
X119183725Y-97384047D01*
X119245078Y-97387262D01*
X119315189Y-97390937D01*
X119315192Y-97390936D01*
X119315197Y-97390937D01*
X119446751Y-97380584D01*
X119575526Y-97353212D01*
X119699918Y-97309162D01*
X119817222Y-97249393D01*
X119833223Y-97238396D01*
X119899622Y-97216647D01*
X119903457Y-97216588D01*
X123638287Y-97216588D01*
X123705326Y-97236273D01*
X123751081Y-97289077D01*
X123761507Y-97354473D01*
X123753500Y-97425531D01*
X123753500Y-97734471D01*
X123788086Y-98041437D01*
X123788089Y-98041455D01*
X123856831Y-98342635D01*
X123856835Y-98342647D01*
X123958862Y-98634222D01*
X123958868Y-98634236D01*
X124092903Y-98912562D01*
X124092905Y-98912565D01*
X124257265Y-99174143D01*
X124449880Y-99415674D01*
X124668326Y-99634120D01*
X124909857Y-99826735D01*
X125171435Y-99991095D01*
X125449771Y-100125135D01*
X125449777Y-100125137D01*
X125741352Y-100227164D01*
X125741364Y-100227168D01*
X126042548Y-100295911D01*
X126042554Y-100295911D01*
X126042562Y-100295913D01*
X126247206Y-100318970D01*
X126349529Y-100330499D01*
X126349532Y-100330500D01*
X126349535Y-100330500D01*
X128158468Y-100330500D01*
X128158469Y-100330499D01*
X128332172Y-100310928D01*
X128465437Y-100295913D01*
X128465442Y-100295912D01*
X128465452Y-100295911D01*
X128766636Y-100227168D01*
X129058229Y-100125135D01*
X129336565Y-99991095D01*
X129598143Y-99826735D01*
X129839674Y-99634120D01*
X130058120Y-99415674D01*
X130250735Y-99174143D01*
X130415095Y-98912565D01*
X130549135Y-98634229D01*
X130651168Y-98342636D01*
X130719911Y-98041452D01*
X130754500Y-97734465D01*
X130754500Y-97425535D01*
X130733415Y-97238396D01*
X130719913Y-97118562D01*
X130719910Y-97118544D01*
X130651168Y-96817364D01*
X130651164Y-96817352D01*
X130549137Y-96525777D01*
X130549135Y-96525771D01*
X130415095Y-96247435D01*
X130250735Y-95985857D01*
X130058120Y-95744326D01*
X129839674Y-95525880D01*
X129833163Y-95520688D01*
X129735416Y-95442737D01*
X129598143Y-95333265D01*
X129336565Y-95168905D01*
X129336562Y-95168903D01*
X129058236Y-95034868D01*
X129058222Y-95034862D01*
X128766647Y-94932835D01*
X128766635Y-94932831D01*
X128465455Y-94864089D01*
X128465437Y-94864086D01*
X128158471Y-94829500D01*
X128158465Y-94829500D01*
X126349535Y-94829500D01*
X126349528Y-94829500D01*
X126339159Y-94830668D01*
X126270338Y-94818609D01*
X126237602Y-94795128D01*
X126148587Y-94706113D01*
X126115102Y-94644790D01*
X126120086Y-94575098D01*
X126161958Y-94519165D01*
X126212079Y-94496814D01*
X126217497Y-94495737D01*
X126363179Y-94435394D01*
X126494289Y-94347789D01*
X126605789Y-94236289D01*
X126693394Y-94105179D01*
X126753737Y-93959497D01*
X126784500Y-93804842D01*
X126784500Y-93647158D01*
X126784500Y-93647155D01*
X126784499Y-93647153D01*
X126775283Y-93600821D01*
X126753737Y-93492503D01*
X126736045Y-93449790D01*
X126693397Y-93346827D01*
X126693390Y-93346814D01*
X126605789Y-93215711D01*
X126605786Y-93215707D01*
X126494292Y-93104213D01*
X126494288Y-93104210D01*
X126363185Y-93016609D01*
X126363172Y-93016602D01*
X126217501Y-92956264D01*
X126217489Y-92956261D01*
X126062845Y-92925500D01*
X126062842Y-92925500D01*
X125905158Y-92925500D01*
X125905155Y-92925500D01*
X125750510Y-92956261D01*
X125750498Y-92956264D01*
X125604827Y-93016602D01*
X125604814Y-93016609D01*
X125473711Y-93104210D01*
X125473707Y-93104213D01*
X125362213Y-93215707D01*
X125362210Y-93215711D01*
X125274609Y-93346814D01*
X125274602Y-93346827D01*
X125214264Y-93492498D01*
X125214260Y-93492511D01*
X125213183Y-93497928D01*
X125180795Y-93559838D01*
X125120078Y-93594409D01*
X125050308Y-93590666D01*
X125003886Y-93561412D01*
X119904819Y-88462345D01*
X119871334Y-88401022D01*
X119868500Y-88374664D01*
X119868500Y-86789153D01*
X121119500Y-86789153D01*
X121119500Y-86946846D01*
X121150261Y-87101489D01*
X121150264Y-87101501D01*
X121210602Y-87247172D01*
X121210609Y-87247185D01*
X121298210Y-87378288D01*
X121298213Y-87378292D01*
X121409707Y-87489786D01*
X121409711Y-87489789D01*
X121540814Y-87577390D01*
X121540827Y-87577397D01*
X121686498Y-87637735D01*
X121686503Y-87637737D01*
X121841153Y-87668499D01*
X121841156Y-87668500D01*
X121841158Y-87668500D01*
X121998844Y-87668500D01*
X121998845Y-87668499D01*
X122153497Y-87637737D01*
X122299179Y-87577394D01*
X122430289Y-87489789D01*
X122541789Y-87378289D01*
X122560749Y-87349912D01*
X122614360Y-87305109D01*
X122683685Y-87296400D01*
X122746712Y-87326554D01*
X122783432Y-87385997D01*
X122787379Y-87407993D01*
X122788248Y-87417932D01*
X122856482Y-87804900D01*
X122856485Y-87804913D01*
X122958182Y-88184458D01*
X123092582Y-88553718D01*
X123092588Y-88553733D01*
X123258644Y-88909838D01*
X123258652Y-88909854D01*
X123455118Y-89250143D01*
X123455127Y-89250158D01*
X123680513Y-89572042D01*
X123933093Y-89873054D01*
X123945299Y-89885260D01*
X123978784Y-89946583D01*
X123973800Y-90016275D01*
X123945299Y-90060622D01*
X123838213Y-90167707D01*
X123838210Y-90167711D01*
X123750609Y-90298814D01*
X123750602Y-90298827D01*
X123690264Y-90444498D01*
X123690261Y-90444510D01*
X123659500Y-90599153D01*
X123659500Y-90756846D01*
X123690261Y-90911489D01*
X123690264Y-90911501D01*
X123750602Y-91057172D01*
X123750609Y-91057185D01*
X123838210Y-91188288D01*
X123838213Y-91188292D01*
X123882821Y-91232899D01*
X123916307Y-91294222D01*
X123916759Y-91344768D01*
X123913500Y-91361154D01*
X123913500Y-91518846D01*
X123944261Y-91673489D01*
X123944264Y-91673501D01*
X124004602Y-91819172D01*
X124004609Y-91819185D01*
X124092210Y-91950288D01*
X124092213Y-91950292D01*
X124203707Y-92061786D01*
X124203711Y-92061789D01*
X124334814Y-92149390D01*
X124334827Y-92149397D01*
X124480498Y-92209735D01*
X124480503Y-92209737D01*
X124635153Y-92240499D01*
X124635156Y-92240500D01*
X124635158Y-92240500D01*
X124792844Y-92240500D01*
X124792845Y-92240499D01*
X124947497Y-92209737D01*
X125093179Y-92149394D01*
X125224289Y-92061789D01*
X125335789Y-91950289D01*
X125423394Y-91819179D01*
X125483737Y-91673497D01*
X125514500Y-91518842D01*
X125514500Y-91361158D01*
X125514500Y-91361155D01*
X125514499Y-91361153D01*
X125504557Y-91311172D01*
X125483737Y-91206503D01*
X125483368Y-91205613D01*
X125478412Y-91193647D01*
X125470942Y-91124178D01*
X125502216Y-91061698D01*
X125562305Y-91026045D01*
X125632130Y-91028538D01*
X125635382Y-91029671D01*
X125886089Y-91120920D01*
X125942353Y-91162346D01*
X125967289Y-91227615D01*
X125965296Y-91261633D01*
X125945500Y-91361153D01*
X125945500Y-91518846D01*
X125976261Y-91673489D01*
X125976264Y-91673501D01*
X126036602Y-91819172D01*
X126036609Y-91819185D01*
X126124210Y-91950288D01*
X126124213Y-91950292D01*
X126235707Y-92061786D01*
X126235711Y-92061789D01*
X126366814Y-92149390D01*
X126366827Y-92149397D01*
X126512498Y-92209735D01*
X126512503Y-92209737D01*
X126667153Y-92240499D01*
X126667156Y-92240500D01*
X126667158Y-92240500D01*
X126824844Y-92240500D01*
X126824845Y-92240499D01*
X126979497Y-92209737D01*
X127125179Y-92149394D01*
X127256289Y-92061789D01*
X127367789Y-91950289D01*
X127455394Y-91819179D01*
X127515737Y-91673497D01*
X127546500Y-91518842D01*
X127546500Y-91435223D01*
X127566185Y-91368184D01*
X127618989Y-91322429D01*
X127659693Y-91311695D01*
X127841929Y-91295751D01*
X128228900Y-91227517D01*
X128228913Y-91227514D01*
X128608458Y-91125817D01*
X128977718Y-90991417D01*
X128977733Y-90991411D01*
X129135188Y-90917988D01*
X129204265Y-90907496D01*
X129268049Y-90936015D01*
X129306289Y-90994492D01*
X129306844Y-91064359D01*
X129302155Y-91077821D01*
X129278263Y-91135503D01*
X129278261Y-91135510D01*
X129247500Y-91290153D01*
X129247500Y-91447846D01*
X129278261Y-91602489D01*
X129278264Y-91602501D01*
X129338602Y-91748172D01*
X129338609Y-91748185D01*
X129426210Y-91879288D01*
X129426213Y-91879292D01*
X129537707Y-91990786D01*
X129537711Y-91990789D01*
X129668814Y-92078390D01*
X129668827Y-92078397D01*
X129814498Y-92138735D01*
X129814503Y-92138737D01*
X129969153Y-92169499D01*
X129969156Y-92169500D01*
X129969158Y-92169500D01*
X130126844Y-92169500D01*
X130126845Y-92169499D01*
X130281497Y-92138737D01*
X130427179Y-92078394D01*
X130558289Y-91990789D01*
X130669789Y-91879289D01*
X130757394Y-91748179D01*
X130817737Y-91602497D01*
X130848500Y-91447842D01*
X130848500Y-91290158D01*
X130848500Y-91290155D01*
X130848499Y-91290153D01*
X130831860Y-91206503D01*
X130817737Y-91135503D01*
X130779165Y-91042383D01*
X130771697Y-90972915D01*
X130802972Y-90910436D01*
X130863061Y-90874784D01*
X130932886Y-90877278D01*
X130941179Y-90880371D01*
X131017689Y-90912062D01*
X131084503Y-90939737D01*
X131239153Y-90970499D01*
X131239156Y-90970500D01*
X131239158Y-90970500D01*
X131396844Y-90970500D01*
X131396845Y-90970499D01*
X131551497Y-90939737D01*
X131617053Y-90912582D01*
X131686522Y-90905114D01*
X131749001Y-90936389D01*
X131784653Y-90996478D01*
X131786135Y-91004903D01*
X131786311Y-91004868D01*
X131818261Y-91165489D01*
X131818264Y-91165501D01*
X131878602Y-91311172D01*
X131878609Y-91311185D01*
X131966210Y-91442288D01*
X131966213Y-91442292D01*
X132077707Y-91553786D01*
X132077711Y-91553789D01*
X132208814Y-91641390D01*
X132208827Y-91641397D01*
X132308060Y-91682500D01*
X132354503Y-91701737D01*
X132509153Y-91732499D01*
X132509156Y-91732500D01*
X132509158Y-91732500D01*
X132666844Y-91732500D01*
X132666845Y-91732499D01*
X132821497Y-91701737D01*
X132967179Y-91641394D01*
X133098289Y-91553789D01*
X133209789Y-91442289D01*
X133297394Y-91311179D01*
X133357737Y-91165497D01*
X133388500Y-91010842D01*
X133388500Y-90853158D01*
X133388500Y-90853155D01*
X133388499Y-90853153D01*
X133385531Y-90838232D01*
X133357737Y-90698503D01*
X133342502Y-90661721D01*
X133297397Y-90552827D01*
X133297390Y-90552814D01*
X133209789Y-90421711D01*
X133209786Y-90421707D01*
X133098292Y-90310213D01*
X133098288Y-90310210D01*
X132967185Y-90222609D01*
X132967172Y-90222602D01*
X132821501Y-90162264D01*
X132821489Y-90162261D01*
X132666845Y-90131500D01*
X132666842Y-90131500D01*
X132509158Y-90131500D01*
X132509155Y-90131500D01*
X132354510Y-90162261D01*
X132354502Y-90162263D01*
X132288945Y-90189417D01*
X132219475Y-90196884D01*
X132156997Y-90165609D01*
X132121345Y-90105519D01*
X132119865Y-90097096D01*
X132119689Y-90097132D01*
X132087738Y-89936510D01*
X132087737Y-89936503D01*
X132066512Y-89885260D01*
X132027397Y-89790827D01*
X132027390Y-89790814D01*
X131939789Y-89659711D01*
X131939786Y-89659707D01*
X131828292Y-89548213D01*
X131828288Y-89548210D01*
X131752607Y-89497641D01*
X131707802Y-89444028D01*
X131699095Y-89374703D01*
X131729250Y-89311676D01*
X131774048Y-89279977D01*
X131784785Y-89275530D01*
X131915895Y-89187925D01*
X132027395Y-89076425D01*
X132115000Y-88945315D01*
X132175343Y-88799633D01*
X132206106Y-88644978D01*
X132206106Y-88487294D01*
X132206106Y-88487291D01*
X132206105Y-88487289D01*
X132193919Y-88426026D01*
X132175343Y-88332639D01*
X132160890Y-88297745D01*
X132115003Y-88186963D01*
X132114996Y-88186950D01*
X132027395Y-88055847D01*
X132027392Y-88055843D01*
X131915898Y-87944349D01*
X131915894Y-87944346D01*
X131784788Y-87856743D01*
X131744014Y-87839854D01*
X131689610Y-87796012D01*
X131667546Y-87729718D01*
X131669351Y-87703760D01*
X131719751Y-87417930D01*
X131753999Y-87026475D01*
X131754000Y-87026475D01*
X131754000Y-86633525D01*
X131753999Y-86633524D01*
X131719751Y-86242069D01*
X131651517Y-85855099D01*
X131651514Y-85855086D01*
X131549817Y-85475541D01*
X131415417Y-85106281D01*
X131415411Y-85106266D01*
X131249355Y-84750161D01*
X131249347Y-84750145D01*
X131052881Y-84409856D01*
X131052872Y-84409841D01*
X130827486Y-84087957D01*
X130609445Y-83828107D01*
X130609444Y-83828106D01*
X127518457Y-86919095D01*
X127457134Y-86952580D01*
X127387442Y-86947596D01*
X127343095Y-86919095D01*
X127254000Y-86830000D01*
X127164904Y-86919096D01*
X127103581Y-86952580D01*
X127033889Y-86947596D01*
X126989542Y-86919095D01*
X123898555Y-83828107D01*
X123680508Y-84087964D01*
X123455127Y-84409841D01*
X123455118Y-84409856D01*
X123258652Y-84750145D01*
X123258644Y-84750161D01*
X123092588Y-85106266D01*
X123092582Y-85106281D01*
X122958182Y-85475541D01*
X122856485Y-85855086D01*
X122856482Y-85855099D01*
X122788248Y-86242069D01*
X122781499Y-86319205D01*
X122756046Y-86384273D01*
X122699454Y-86425251D01*
X122629692Y-86429128D01*
X122568908Y-86394674D01*
X122554868Y-86377285D01*
X122541790Y-86357712D01*
X122541786Y-86357707D01*
X122430292Y-86246213D01*
X122430288Y-86246210D01*
X122299185Y-86158609D01*
X122299172Y-86158602D01*
X122153501Y-86098264D01*
X122153489Y-86098261D01*
X121998845Y-86067500D01*
X121998842Y-86067500D01*
X121841158Y-86067500D01*
X121841155Y-86067500D01*
X121686510Y-86098261D01*
X121686498Y-86098264D01*
X121540827Y-86158602D01*
X121540814Y-86158609D01*
X121409711Y-86246210D01*
X121409707Y-86246213D01*
X121298213Y-86357707D01*
X121298210Y-86357711D01*
X121210609Y-86488814D01*
X121210602Y-86488827D01*
X121150264Y-86634498D01*
X121150261Y-86634510D01*
X121119500Y-86789153D01*
X119868500Y-86789153D01*
X119868500Y-83881335D01*
X119888185Y-83814296D01*
X119904814Y-83793659D01*
X120223918Y-83474555D01*
X124252107Y-83474555D01*
X127253999Y-86476446D01*
X130255892Y-83474554D01*
X130255891Y-83474553D01*
X129996042Y-83256513D01*
X129674158Y-83031127D01*
X129674143Y-83031118D01*
X129333854Y-82834652D01*
X129333838Y-82834644D01*
X128977733Y-82668588D01*
X128977718Y-82668582D01*
X128608458Y-82534182D01*
X128228913Y-82432485D01*
X128228900Y-82432482D01*
X127841929Y-82364248D01*
X127841931Y-82364248D01*
X127450475Y-82330000D01*
X127057525Y-82330000D01*
X126666069Y-82364248D01*
X126279099Y-82432482D01*
X126279086Y-82432485D01*
X125899541Y-82534182D01*
X125530281Y-82668582D01*
X125530266Y-82668588D01*
X125174161Y-82834644D01*
X125174145Y-82834652D01*
X124833856Y-83031118D01*
X124833841Y-83031127D01*
X124511964Y-83256508D01*
X124252107Y-83474555D01*
X120223918Y-83474555D01*
X123005319Y-80693153D01*
X127977500Y-80693153D01*
X127977500Y-80850846D01*
X128008261Y-81005489D01*
X128008264Y-81005501D01*
X128068602Y-81151172D01*
X128068609Y-81151185D01*
X128156210Y-81282288D01*
X128156213Y-81282292D01*
X128267707Y-81393786D01*
X128267711Y-81393789D01*
X128398814Y-81481390D01*
X128398827Y-81481397D01*
X128544498Y-81541735D01*
X128544503Y-81541737D01*
X128699153Y-81572499D01*
X128699156Y-81572500D01*
X128699158Y-81572500D01*
X128856844Y-81572500D01*
X128856845Y-81572499D01*
X129011497Y-81541737D01*
X129157179Y-81481394D01*
X129288289Y-81393789D01*
X129399789Y-81282289D01*
X129487394Y-81151179D01*
X129547737Y-81005497D01*
X129578500Y-80850842D01*
X129578500Y-80693158D01*
X129578500Y-80693155D01*
X129578499Y-80693153D01*
X129547738Y-80538510D01*
X129547737Y-80538503D01*
X129547735Y-80538498D01*
X129487397Y-80392827D01*
X129487390Y-80392814D01*
X129399789Y-80261711D01*
X129399786Y-80261707D01*
X129288292Y-80150213D01*
X129288288Y-80150210D01*
X129157185Y-80062609D01*
X129157172Y-80062602D01*
X129011501Y-80002264D01*
X129011489Y-80002261D01*
X128856845Y-79971500D01*
X128856842Y-79971500D01*
X128699158Y-79971500D01*
X128699155Y-79971500D01*
X128544510Y-80002261D01*
X128544498Y-80002264D01*
X128398827Y-80062602D01*
X128398814Y-80062609D01*
X128267711Y-80150210D01*
X128267707Y-80150213D01*
X128156213Y-80261707D01*
X128156210Y-80261711D01*
X128068609Y-80392814D01*
X128068602Y-80392827D01*
X128008264Y-80538498D01*
X128008261Y-80538510D01*
X127977500Y-80693153D01*
X123005319Y-80693153D01*
X125133483Y-78564989D01*
X125194804Y-78531506D01*
X125264496Y-78536490D01*
X125274962Y-78540951D01*
X125449771Y-78625135D01*
X125449777Y-78625137D01*
X125741352Y-78727164D01*
X125741364Y-78727168D01*
X126042548Y-78795911D01*
X126042554Y-78795911D01*
X126042562Y-78795913D01*
X126247206Y-78818970D01*
X126349529Y-78830499D01*
X126349532Y-78830500D01*
X126349535Y-78830500D01*
X128158468Y-78830500D01*
X128158469Y-78830499D01*
X128315356Y-78812822D01*
X128465437Y-78795913D01*
X128465442Y-78795912D01*
X128465452Y-78795911D01*
X128766636Y-78727168D01*
X129058229Y-78625135D01*
X129336565Y-78491095D01*
X129598143Y-78326735D01*
X129839674Y-78134120D01*
X130058120Y-77915674D01*
X130250735Y-77674143D01*
X130415095Y-77412565D01*
X130549135Y-77134229D01*
X130651168Y-76842636D01*
X130719911Y-76541452D01*
X130754500Y-76234465D01*
X130754500Y-75925535D01*
X130719911Y-75618548D01*
X130651168Y-75317364D01*
X130628908Y-75253750D01*
X130549137Y-75025777D01*
X130549135Y-75025771D01*
X130415095Y-74747435D01*
X130250735Y-74485857D01*
X130058120Y-74244326D01*
X129839674Y-74025880D01*
X129600510Y-73835153D01*
X140931500Y-73835153D01*
X140931500Y-73992846D01*
X140962261Y-74147489D01*
X140962264Y-74147501D01*
X141022602Y-74293172D01*
X141022609Y-74293185D01*
X141110210Y-74424288D01*
X141110213Y-74424292D01*
X141221707Y-74535786D01*
X141221711Y-74535789D01*
X141352814Y-74623390D01*
X141352827Y-74623397D01*
X141498498Y-74683735D01*
X141498503Y-74683737D01*
X141653153Y-74714499D01*
X141653156Y-74714500D01*
X141653158Y-74714500D01*
X141810844Y-74714500D01*
X141810845Y-74714499D01*
X141965497Y-74683737D01*
X142111179Y-74623394D01*
X142242289Y-74535789D01*
X142353789Y-74424289D01*
X142441394Y-74293179D01*
X142501737Y-74147497D01*
X142532500Y-73992842D01*
X142532500Y-73835158D01*
X142532500Y-73835155D01*
X142532499Y-73835153D01*
X142501738Y-73680510D01*
X142501737Y-73680503D01*
X142465296Y-73592525D01*
X142441397Y-73534827D01*
X142441390Y-73534814D01*
X142353789Y-73403711D01*
X142353786Y-73403707D01*
X142242292Y-73292213D01*
X142242288Y-73292210D01*
X142111185Y-73204609D01*
X142111172Y-73204602D01*
X141965501Y-73144264D01*
X141965489Y-73144261D01*
X141810845Y-73113500D01*
X141810842Y-73113500D01*
X141653158Y-73113500D01*
X141653155Y-73113500D01*
X141498510Y-73144261D01*
X141498498Y-73144264D01*
X141352827Y-73204602D01*
X141352814Y-73204609D01*
X141221711Y-73292210D01*
X141221707Y-73292213D01*
X141110213Y-73403707D01*
X141110210Y-73403711D01*
X141022609Y-73534814D01*
X141022602Y-73534827D01*
X140962264Y-73680498D01*
X140962261Y-73680510D01*
X140931500Y-73835153D01*
X129600510Y-73835153D01*
X129598143Y-73833265D01*
X129336565Y-73668905D01*
X129336562Y-73668903D01*
X129058236Y-73534868D01*
X129058222Y-73534862D01*
X128766647Y-73432835D01*
X128766635Y-73432831D01*
X128465455Y-73364089D01*
X128465437Y-73364086D01*
X128158471Y-73329500D01*
X128158465Y-73329500D01*
X126349535Y-73329500D01*
X126349528Y-73329500D01*
X126042562Y-73364086D01*
X126042544Y-73364089D01*
X125741364Y-73432831D01*
X125741352Y-73432835D01*
X125449777Y-73534862D01*
X125449763Y-73534868D01*
X125171437Y-73668903D01*
X124909858Y-73833264D01*
X124668326Y-74025879D01*
X124449879Y-74244326D01*
X124257264Y-74485858D01*
X124092903Y-74747437D01*
X123958868Y-75025763D01*
X123958862Y-75025777D01*
X123856835Y-75317352D01*
X123856831Y-75317364D01*
X123788089Y-75618544D01*
X123788086Y-75618562D01*
X123753500Y-75925528D01*
X123753500Y-76234469D01*
X123764389Y-76331109D01*
X123752335Y-76399931D01*
X123728850Y-76432674D01*
X117664174Y-82497351D01*
X117664172Y-82497354D01*
X117637415Y-82534182D01*
X117548476Y-82656594D01*
X117458669Y-82832851D01*
X117457608Y-82836612D01*
X117398291Y-83019169D01*
X117398291Y-83019172D01*
X117367500Y-83213577D01*
X117367500Y-89042422D01*
X117398290Y-89236826D01*
X117459117Y-89424030D01*
X117503483Y-89511102D01*
X117548476Y-89599405D01*
X117664172Y-89758646D01*
X117664174Y-89758648D01*
X122909433Y-95003907D01*
X122942918Y-95065230D01*
X122937934Y-95134922D01*
X122896062Y-95190855D01*
X122830598Y-95215272D01*
X122821752Y-95215588D01*
X120331665Y-95215588D01*
X120264626Y-95195903D01*
X120239515Y-95174560D01*
X120234421Y-95168903D01*
X120193646Y-95123617D01*
X120086335Y-95004436D01*
X120086331Y-95004432D01*
X120086322Y-95004422D01*
X120034362Y-94954403D01*
X120001242Y-94933998D01*
X119963268Y-94897442D01*
X119940923Y-94864086D01*
X119885584Y-94781478D01*
X119646956Y-94516455D01*
X119594000Y-94457641D01*
X119593957Y-94457594D01*
X119506977Y-94360994D01*
X119506968Y-94360984D01*
X119425252Y-94291194D01*
X119406625Y-94275285D01*
X119406622Y-94275283D01*
X119406621Y-94275282D01*
X119406618Y-94275280D01*
X119296209Y-94203580D01*
X119177115Y-94146775D01*
X119177112Y-94146774D01*
X119177108Y-94146772D01*
X119051900Y-94106089D01*
X118922145Y-94082041D01*
X118922142Y-94082040D01*
X118922138Y-94082040D01*
X118909331Y-94081369D01*
X118843414Y-94058203D01*
X118828140Y-94045220D01*
X118620784Y-93837863D01*
X118620780Y-93837860D01*
X118456920Y-93728372D01*
X118456910Y-93728367D01*
X118274836Y-93652949D01*
X118274828Y-93652947D01*
X118081543Y-93614500D01*
X118081540Y-93614500D01*
X117884460Y-93614500D01*
X117884457Y-93614500D01*
X117691171Y-93652947D01*
X117691163Y-93652949D01*
X117509089Y-93728367D01*
X117509079Y-93728372D01*
X117345219Y-93837860D01*
X117345215Y-93837863D01*
X117205863Y-93977215D01*
X117205860Y-93977219D01*
X117096372Y-94141079D01*
X117096367Y-94141089D01*
X117020949Y-94323163D01*
X117020947Y-94323171D01*
X116982500Y-94516455D01*
X116500500Y-94516455D01*
X116500500Y-75253750D01*
X116500726Y-75246263D01*
X116511636Y-75065902D01*
X117625500Y-75065902D01*
X117625500Y-75302097D01*
X117662446Y-75535368D01*
X117735433Y-75759996D01*
X117819777Y-75925528D01*
X117842657Y-75970433D01*
X117981483Y-76161510D01*
X118148490Y-76328517D01*
X118339567Y-76467343D01*
X118438991Y-76518002D01*
X118550003Y-76574566D01*
X118550005Y-76574566D01*
X118550008Y-76574568D01*
X118670412Y-76613689D01*
X118774631Y-76647553D01*
X119007903Y-76684500D01*
X119007908Y-76684500D01*
X119244097Y-76684500D01*
X119477368Y-76647553D01*
X119701992Y-76574568D01*
X119912433Y-76467343D01*
X120103510Y-76328517D01*
X120270517Y-76161510D01*
X120409343Y-75970433D01*
X120516568Y-75759992D01*
X120589553Y-75535368D01*
X120626500Y-75302097D01*
X120626500Y-75065902D01*
X120589553Y-74832631D01*
X120516566Y-74608003D01*
X120422960Y-74424292D01*
X120409343Y-74397567D01*
X120270517Y-74206490D01*
X120103510Y-74039483D01*
X119912433Y-73900657D01*
X119701996Y-73793433D01*
X119477368Y-73720446D01*
X119244097Y-73683500D01*
X119244092Y-73683500D01*
X119007908Y-73683500D01*
X119007903Y-73683500D01*
X118774631Y-73720446D01*
X118550003Y-73793433D01*
X118339566Y-73900657D01*
X118230550Y-73979862D01*
X118148490Y-74039483D01*
X118148488Y-74039485D01*
X118148487Y-74039485D01*
X117981485Y-74206487D01*
X117981485Y-74206488D01*
X117981483Y-74206490D01*
X117921862Y-74288550D01*
X117842657Y-74397566D01*
X117735433Y-74608003D01*
X117662446Y-74832631D01*
X117625500Y-75065902D01*
X116511636Y-75065902D01*
X116512383Y-75053549D01*
X116518271Y-74956205D01*
X116520076Y-74941340D01*
X116561647Y-74714499D01*
X116571780Y-74659198D01*
X116575364Y-74644664D01*
X116581992Y-74623394D01*
X116660699Y-74370812D01*
X116665997Y-74356842D01*
X116783727Y-74095258D01*
X116790680Y-74082012D01*
X116844582Y-73992846D01*
X116939075Y-73836534D01*
X116947567Y-73824230D01*
X117124481Y-73598417D01*
X117134396Y-73587226D01*
X117337226Y-73384396D01*
X117348417Y-73374481D01*
X117574230Y-73197567D01*
X117586534Y-73189075D01*
X117832012Y-73040680D01*
X117845258Y-73033727D01*
X118106842Y-72915997D01*
X118120812Y-72910699D01*
X118394668Y-72825362D01*
X118409198Y-72821780D01*
X118691344Y-72770075D01*
X118706201Y-72768271D01*
X118996264Y-72750726D01*
X119003751Y-72750500D01*
X119065892Y-72750500D01*
X141934108Y-72750500D01*
X141996249Y-72750500D01*
X142003736Y-72750726D01*
G37*
%TD.AperFunction*%
%TD*%
M02*
